<?xml version="1.0" encoding="UTF-8" standalone="no"?>
<!-- Generator: Adobe Illustrator 16.0.0, SVG Export Plug-In . SVG Version: 6.00 Build 0)  -->

<svg
   xmlns:dc="http://purl.org/dc/elements/1.1/"
   xmlns:cc="http://creativecommons.org/ns#"
   xmlns:rdf="http://www.w3.org/1999/02/22-rdf-syntax-ns#"
   xmlns:svg="http://www.w3.org/2000/svg"
   xmlns="http://www.w3.org/2000/svg"
   xmlns:sodipodi="http://sodipodi.sourceforge.net/DTD/sodipodi-0.dtd"
   xmlns:inkscape="http://www.inkscape.org/namespaces/inkscape"
   version="1.1"
   id="Livello_1"
   x="0px"
   y="0px"
   width="40"
   height="40"
   viewBox="0 0 40 40"
   enable-background="new 0 0 64 64"
   xml:space="preserve"
   sodipodi:docname="cross.svg"
   inkscape:version="0.92.5 (2060ec1f9f, 2020-04-08)"><metadata
   id="metadata4685"><rdf:RDF><cc:Work
       rdf:about=""><dc:format>image/svg+xml</dc:format><dc:type
         rdf:resource="http://purl.org/dc/dcmitype/StillImage" /><dc:title></dc:title></cc:Work></rdf:RDF></metadata><defs
   id="defs4683" /><sodipodi:namedview
   pagecolor="#ffffff"
   bordercolor="#666666"
   borderopacity="1"
   objecttolerance="10"
   gridtolerance="10"
   guidetolerance="10"
   inkscape:pageopacity="0"
   inkscape:pageshadow="2"
   inkscape:window-width="1680"
   inkscape:window-height="976"
   id="namedview4681"
   showgrid="false"
   inkscape:zoom="14.75"
   inkscape:cx="34.81904"
   inkscape:cy="22.444694"
   inkscape:window-x="0"
   inkscape:window-y="0"
   inkscape:window-maximized="1"
   inkscape:current-layer="g4678" />
<g
   id="g4678"
   transform="translate(0,-24)">
	
	
	<path
   d="m 23.385389,44.067797 13.947,-13.948 c 0.879,-0.879 0.879,-2.303 0,-3.182 -0.879,-0.879 -2.302,-0.879 -3.181,0 l -13.948,13.948 -13.9489992,-13.948 c -0.879,-0.879 -2.303,-0.879 -3.182,0 -0.879,0.879 -0.879,2.303 0,3.182 l 13.9489992,13.948 -13.9479992,13.948 c -0.879,0.879 -0.879,2.302 0,3.181 0.439,0.439 1.017,0.659 1.591,0.659 0.577,0 1.151,-0.22 1.59,-0.659 l 13.9489992,-13.947 13.948,13.947 c 0.439,0.439 1.016,0.659 1.59,0.659 0.578,0 1.151,-0.22 1.591,-0.659 0.879,-0.879 0.879,-2.302 0,-3.181 z"
   id="path4676"
   inkscape:connector-curvature="0"
   style="fill:#67809f" />
</g>
</svg>