<svg xmlns="http://www.w3.org/2000/svg" viewBox="0 0 69 69"><path fill="#726f76" d="m36.72 54.547-4.301 4V10.456l4.301 4zM45.322 54.547l-4.301 4V10.456l4.301 4z"/><path fill="#9a9ba5" d="m49.623 58.547-4.301-4V14.456l4.301-4zM41.021 58.547l-4.301-4V14.456l4.301-4zM32.419 58.547l-4.301-4V14.456l4.301-4z"/><path fill="#726f76" d="m28.118 54.547-4.301 4V10.456l4.301 4z"/><path fill="#c87b2c" d="M62.124 10.461H49.623v48.09h12.501a4 4 0 0 0 4-4v-40.09a4 4 0 0 0-4-4z"/><path fill="#9e5729" d="M66.12 14.463v40.09c0 2.21-1.79 4-4 4h-12.5v-4.11h8.39c2.21 0 4-1.79 4-4v-39.98h.11c2.21 0 4 1.79 4 4z"/><path fill="#d88f52" d="M51.63 31.538V10.463h-2.01v23.085c1.111 0 2.01-.9 2.01-2.01z"/><path fill="#ffca0f" d="M23.815 10.461v48.09H5.875c-1.66 0-3-1.35-3-3v-42.09c0-1.66 1.34-3 3-3h17.94z"/><path fill="#ffca0f" d="M6.831 10.463h16.98v48.09H6.831z"/><path fill="#ffa301" d="M23.81 10.463v48.09H6.83v-3.94h7.394a5.647 5.647 0 0 0 5.647-5.647V10.463h3.94z"/><path fill="#ffed91" d="M8.98 27.59V10.463H6.83V29.74a2.15 2.15 0 0 0 2.15-2.15z"/><path fill="#e5e5e5" d="M6.83 10.461h-.955c-1.66 0-3 1.34-3 3v42.09c0 1.65 1.34 3 3 3h.955v-48.09z"/><path fill="#6b6c6b" d="M23.816 48.551v2.682h-7.668v-2.682zM23.816 43.389v2.682h-7.668v-2.682zM23.816 35.746v2.682h-7.668v-2.682zM23.816 30.584v2.682h-7.668v-2.682zM23.816 22.942v2.682h-7.668v-2.682zM23.815 17.779v2.682h-7.668v-2.682z"/><path d="M62.125 9.711H49.623c-.005 0-.01.003-.016.003a.741.741 0 0 0-.27.055l-.008.002a.745.745 0 0 0-.217.136l-3.79 3.525-3.79-3.525c-.354-.244-.537-.31-1.022 0l-3.79 3.525c-.389-.36 1.409 1.31-3.803-3.534a.754.754 0 0 0-.996 0c-.103.092-3.904 3.621-3.803 3.534l-3.79-3.525c-.151-.14-.307-.174-.513-.196H5.875a3.754 3.754 0 0 0-3.75 3.75v42.09a3.754 3.754 0 0 0 3.75 3.75h17.94c.265 0 .424-.15.524-.215l3.78-3.515 3.8 3.532a.74.74 0 0 0 1 0c.102-.092 3.902-3.62 3.801-3.532l3.802 3.532c.283.255.709.26.998 0 .103-.092 3.903-3.62 3.802-3.532l3.764 3.5.02.02.006.005c.01.009.023.012.033.02.13.11.293.185.478.185h12.502c2.619 0 4.75-2.13 4.75-4.75v-40.09c0-2.619-2.131-4.75-4.75-4.75zm-46.727 38.84v.956H7.581v-4.411h7.817v.974c0 .415.336.75.75.75h6.917v.981h-6.917a.75.75 0 0 0-.75.75zm.75-27.34h6.917v.98h-6.917a.75.75 0 0 0-.75.75v.966H7.581v-4.412h7.817v.966c0 .414.336.75.75.75zm-.75 22.178v.957H7.58v-6.889h7.817v.97c0 .415.336.75.75.75h6.917v3.462h-6.917a.75.75 0 0 0-.75.75zm.75-17.016h6.917v3.461h-6.917a.75.75 0 0 0-.75.75v.961H7.581v-6.888h7.817v.966c0 .414.336.75.75.75zm-.75 9.373v.961H7.58v-4.412h7.817v.97c0 .415.336.75.75.75h6.917v.981h-6.917a.75.75 0 0 0-.75.75zm7.667-3.23h-6.167v-1.182h6.167v1.182zm-6.167 3.98h6.167v1.182h-6.167v-1.182zm6.167-11.623h-6.167v-1.181h6.167v1.181zM16.898 44.14h6.167v1.181h-6.167V44.14zm6.167-24.428h-6.167V18.53h6.167v1.182zm-6.167 29.59h6.167v1.182h-6.167V49.3zm6.167-32.272h-6.917a.75.75 0 0 0-.75.75v.966H7.58v-7.534h15.484v5.818zM5.875 57.801c-1.24 0-2.25-1.01-2.25-2.25v-42.09c0-1.24 1.01-2.25 2.25-2.25h.206v46.59h-.206zm1.706 0v-7.544h7.817v.976c0 .414.336.75.75.75h6.917V57.8H7.581zm16.986-45.623 2.801 2.605V54.22l-2.8 2.605V12.178zm4.301 2.605 2.8-2.605v44.647l-2.8-2.605V14.783zm4.301-2.605 2.801 2.605V54.22l-2.801 2.605V12.178zm4.301 2.605 2.801-2.605v44.647l-2.8-2.605V14.783zm4.301-2.605 2.8 2.605V54.22l-2.8 2.605V12.178zm4.3 2.605 2.802-2.605v44.647l-2.801-2.605V14.783zm19.304 39.768a3.254 3.254 0 0 1-3.25 3.25H50.373v-46.59h11.752a3.254 3.254 0 0 1 3.25 3.25v40.09z"/></svg>