<svg xmlns="http://www.w3.org/2000/svg" viewBox="0 0 69 69"><path fill="none" d="m32.158 33.574.185.194-.24-.24c.018.018.037.028.055.046z"/><path fill="#c87b2c" d="m27.932 46.697-5.844-5.841 31.25-28.631 3.226 3.227z"/><path fill="#d88f52" d="M54.921 13.809 23.674 42.44l-1.584-1.584 31.247-28.631z"/><path fill="#e5e5e5" d="m60.241 4.679 2.295 2.301-2.35-2.347c.018.009.037.027.055.046z"/><path fill="#e5e5e5" d="m56.564 15.452-3.226-3.227.816-3.068 4.474-4.475a1.14 1.14 0 0 1 1.611 0l3.86 3.861a1.151 1.151 0 0 1 0 1.624l-4.414 4.415-3.121.87z"/><ellipse cx="20.54" cy="48.453" fill="#726f76" rx="17.29" ry="17.266"/><path fill="#9a9ba5" d="M37.788 49.497a17.124 17.124 0 0 0-5.02-11.13c-6.754-6.753-17.7-6.753-24.453 0a17.165 17.165 0 0 0-5.027 11.15c-.297-4.765 1.372-9.63 5.027-13.272 6.746-6.745 17.7-6.738 24.452 0a17.11 17.11 0 0 1 5.02 13.252z"/><path fill="#e5e5e5" d="M10.931 58.048c-5.298-5.29-5.297-13.9 0-19.19 5.299-5.291 13.92-5.292 19.217 0s5.298 13.899 0 19.19c-5.298 5.29-13.918 5.291-19.217 0z"/><path fill="#d3d3d3" d="M30.144 58.045c-5.296 5.297-13.916 5.29-19.212.008a13.569 13.569 0 0 1-3.776-11.908 13.473 13.473 0 0 0 3.776 7.325c5.296 5.283 13.916 5.29 19.212-.007a13.403 13.403 0 0 0 3.769-7.304 13.455 13.455 0 0 1-3.77 11.886z"/><path fill="#fbfbfb" d="M34.075 49.532a13.494 13.494 0 0 0-3.924-8.45c-5.296-5.296-13.923-5.296-19.22 0a13.501 13.501 0 0 0-3.93 8.457c-.298-3.833 1.003-7.764 3.93-10.677 5.297-5.297 13.924-5.297 19.22 0 2.927 2.913 4.228 6.844 3.924 10.67z"/><path fill="#f0373c" d="m13.822 57.842-2.684-2.68a1.484 1.484 0 0 0-2.098 0l-3.617 3.612a1.48 1.48 0 0 0 0 2.094l2.685 2.68c.58.58 1.518.58 2.097 0l3.617-3.611a1.48 1.48 0 0 0 0-2.095z"/><path d="M66.386 12.049a.389.389 0 0 0-.551 0l-.414.414-1.278-1.278.49-.49a1.908 1.908 0 0 0 0-2.68l-3.86-3.87c-.74-.73-1.94-.73-2.67.01l-.49.49-.004.004-1.026-1.027.413-.413a.389.389 0 1 0-.55-.55l-1.378 1.377a.389.389 0 1 0 .551.55l.414-.413 1.02 1.022-2.38 2.39-.002.002-1.026-1.026.414-.414a.389.389 0 1 0-.551-.55L52.13 6.975a.389.389 0 1 0 .55.55l.415-.414 1.026 1.027-.499.488c-.09.09-.16.21-.19.34l-.757 2.85-23.021 21.09h-.002c-6.91-4.04-15.96-3.1-21.87 2.81-6.114 6.096-6.847 15.383-2.58 22.22l-.31.31a2.232 2.232 0 0 0 0 3.15l2.69 2.68c.87.889 2.299.871 3.15 0l.31-.31c6.91 4.288 16.217 3.463 22.25-2.57 6.09-6.09 6.858-15.281 2.65-22.13l21.035-22.954 2.905-.806c.13-.04.24-.1.33-.19l.442-.442 1.278 1.278-.412.413a.389.389 0 1 0 .55.551l.687-.688h.002v-.002l.688-.688a.389.389 0 1 0-.55-.55l-.414.413-1.278-1.278 2.387-2.387 1.279 1.278-.414.414a.389.389 0 1 0 .55.55l1.379-1.378a.389.389 0 0 0 0-.551zM33.293 35.716a17.213 17.213 0 0 0-2.338-1.968l22.358-20.482 2.21 2.21v.001L35.083 37.785c-.54-.73-1.14-1.42-1.79-2.07zm-23.62 27.3c-.28.29-.75.29-1.03 0l-2.69-2.68a.735.735 0 0 1 0-1.03c1.404-1.397 3.603-3.68 3.88-3.79.298-.075.559-.046.77.18l2.69 2.68a.732.732 0 0 1 0 1.03l-3.62 3.61zm4.68-5.7-2.68-2.69c-.71-.69-1.76-.83-2.59-.4-2.363-4.62-1.74-10.72 2.38-14.84 4.99-4.99 13.13-5.01 18.16 0 4.993 4.993 5.018 13.122-.01 18.13-4.01 4.01-10.075 4.807-14.85 2.38.41-.795.31-1.86-.41-2.58zm17.88 2.82c-5.44 5.43-13.76 6.28-20.1 2.55l1.62-1.62c5.42 2.903 12.327 2.096 16.93-2.49 5.636-5.636 5.543-14.707 0-20.25-5.6-5.58-14.69-5.58-20.28 0-4.434 4.417-5.49 11.205-2.5 16.91l-1.61 1.61c-3.662-6.169-3.019-14.502 2.55-20.07 6.462-6.443 16.952-6.437 23.39 0 6.465 6.445 6.477 16.903 0 23.36zm27.06-46.22-2.506.698L54.173 12v-.004l.65-2.45 4.34-4.33c.15-.16.39-.16.55 0l3.86 3.86c.15.15.15.41 0 .56l-4.28 4.28z"/><path d="m16.732 48.386 7.357-7.347a.75.75 0 1 0-1.06-1.06l-7.357 7.346a.75.75 0 1 0 1.06 1.06zm1.408 2.465a.75.75 0 0 0 1.06 0l7.357-7.347a.75.75 0 1 0-1.06-1.06L18.14 49.79a.75.75 0 0 0 0 1.06zm2.467 2.463a.75.75 0 0 0 1.061 0l7.356-7.345a.75.75 0 1 0-1.06-1.06l-7.357 7.345a.75.75 0 0 0 0 1.06zm-.069 4.107a.75.75 0 0 0 .53-1.28c-7.721-7.304-8.299-9.206-9.288-8.217a.75.75 0 0 0 0 1.06l8.228 8.217c.146.147.339.22.53.22z"/></svg>