<svg xmlns="http://www.w3.org/2000/svg" viewBox="0 0 69 69"><path fill="#ffca0f" d="M18.42 41.897 52.48 7.789l7.954 7.964-46.317 46.382-4.497-4.503 12.256-12.274z"/><path fill="#ffa301" d="m12.374 60.398 46.351-46.351 1.726 1.725L14.1 62.123z"/><path fill="#ffed91" d="m30.473 29.826-12.05 12.071 1.223 1.223 10.829-10.846a1.731 1.731 0 0 0-.002-2.448z"/><path fill="#e5e5e5" d="m43.343 32.868 5.875-5.884-7.953-7.964-5.876 5.884z"/><path fill="#d3d3d3" d="m47.301 25.068 1.916 1.916-5.869 5.883-1.923-1.923z"/><path fill="#fbfbfb" d="m41.269 19.022 1.238 1.237-5.876 5.891-1.245-1.245z"/><path fill="#c87b2c" d="M53.4 3.526a.945.945 0 0 1 1.335 0l9.936 9.949a.94.94 0 0 1 .006 1.33l-1.921 1.937a.945.945 0 0 1-1.335 0l-9.935-9.949a.949.949 0 0 1 0-1.336l1.915-1.93z"/><path fill="#b16426" d="m54.733 3.522 9.934 9.95a.947.947 0 0 1 .008 1.336l-1.917 1.93c-.014.014-.035.035-.056.042l.587-.586a.948.948 0 0 0-.007-1.337l-9.935-9.949a.94.94 0 0 0-1.28-.035l1.336-1.35a.952.952 0 0 1 1.33 0z"/><path fill="#fbb449" d="m63.6 15.897-.842.841a.947.947 0 0 1-1.336.007l-9.935-9.949a.956.956 0 0 1 0-1.343l.877-.877a.956.956 0 0 0 0 1.343l9.935 9.95c.36.36.94.36 1.3.028z"/><path fill="#c87b2c" d="m14.416 45.906 4.004-4.009 3.456 3.461-4.003 4.009z"/><path fill="#6b6c6b" d="m6.484 58.326.767-.768a1.621 1.621 0 0 1 2.295 0l4.644 4.65a1.627 1.627 0 0 1 0 2.299l-.767.768a1.621 1.621 0 0 1-2.295 0l-4.644-4.65a1.627 1.627 0 0 1 0-2.299z"/><ellipse cx="26.634" cy="40.909" fill="#fbfbfb" rx="1.504" ry="1.506" transform="rotate(-.81 26.648 40.92)"/><ellipse cx="31.127" cy="36.409" fill="#fbfbfb" rx="1.504" ry="1.506" transform="rotate(-.81 31.142 36.418)"/><ellipse cx="35.621" cy="31.909" fill="#fbfbfb" rx="1.504" ry="1.506" transform="rotate(-.81 35.637 31.916)"/><ellipse cx="48.678" cy="18.834" fill="#fbfbfb" rx="1.504" ry="1.506" transform="rotate(-.81 48.697 18.834)"/><path d="M65.2 12.95 55.26 3a1.678 1.678 0 0 0-2.39 0l-1.91 1.93a1.678 1.678 0 0 0 0 2.39l.46.47-6.355 6.365-1.373-1.375.978-.979a.75.75 0 1 0-1.06-1.06l-1.505 1.506-.004.003s0 .002-.002.003L18.55 35.835a.75.75 0 0 0 1.062 1.06l.977-.978 1.372 1.374-8.07 8.089c-.3.29-.3.76 0 1.06l1.19 1.2-.9.9a3.197 3.197 0 0 1-4.51 0l-5.08-5.1a.767.767 0 0 0-1.07 0c-.29.29-.29.77 0 1.06l5.09 5.1a4.705 4.705 0 0 0 6.64 0l.9-.9.66.67-7.26 7.27c-.9-.48-2.09-.35-2.83.39l-.77.77c-.92.92-.92 2.43 0 3.35l4.65 4.66a2.377 2.377 0 0 0 3.35 0l.77-.77c.76-.77.89-1.93.39-2.83 77.345-77.479-.256.257 45.32-45.4l.46.46c.32.32.74.5 1.2.5.45 0 .88-.18 1.2-.5l1.92-1.94c.65-.65.65-1.72-.01-2.38zm-21.195 2.266L44 15.22c-.112.091-11.888 11.907-11.99 12.01l-.002.001-1.374-1.376 11.997-12.013 1.373 1.374zM27.518 31.733l-1.376-1.378 3.433-3.438 1.374 1.375-3.428 3.438-.003.003zm-2.436-.316 1.37 1.372h-.001l-3.43 3.44-1.373-1.374 3.434-3.438zM15.48 45.91l2.94-2.95 2.4 2.4-2.95 2.95c-4.044-4.044.267.27-2.39-2.4zm-1.82 18.07-.77.76a.857.857 0 0 1-1.23 0l-4.65-4.65a.88.88 0 0 1 0-1.23l.77-.77a.856.856 0 0 1 1.23 0l4.65 4.65c.34.34.34.9 0 1.24zm.46-2.91-3.44-3.44 7.72-7.73 4.01-4.01c.29-.29.29-.77 0-1.06l-2.93-2.93 3.538-3.549 1.58 1.583a2.255 2.255 0 1 0 3.631-.624c-.67-.67-1.72-.81-2.56-.43l-.001.001-1.589-1.59v-.001l3.43-3.44h.001l1.59 1.59c-.41.83-.26 1.87.43 2.56a2.256 2.256 0 1 0 3.19-3.19c-.649-.648-1.71-.827-2.56-.43l-1.584-1.586.004-.004 3.427-3.437 1.59 1.593a2.234 2.234 0 0 0 .433 2.554c.856.877 2.316.884 3.18 0 .88-.87.88-2.31.01-3.19-.67-.67-1.73-.81-2.56-.43l-.004.002-1.588-1.59.002-.002 2.32-2.33 6.89 6.91-28.16 28.2zM26.1 40.375l.005-.008c.289-.285.746-.295 1.066.003.29.3.29.78 0 1.07-.29.29-.79.29-1.07 0a.766.766 0 0 1-.005-1.063l.004-.002zm4.495-4.5c.001-.002.001-.004.003-.005h.003a.748.748 0 0 1 1.06 0c.29.3.29.78 0 1.07-.28.29-.78.29-1.07 0a.765.765 0 0 1-.009-1.057c.004-.004.009-.005.013-.008zm4.493-4.5.003-.006a.748.748 0 0 1 1.06 0c.3.3.3.78 0 1.07-.28.29-.78.29-1.06 0a.748.748 0 0 1-.004-1.064zm8.253.435-6.89-6.91 4.81-4.82 6.9 6.9-4.82 4.83zm5.88-5.89-6.9-6.9 2.74-2.74.003-.003 1.578 1.58-.001.003c-.4.84-.25 1.88.44 2.57.896.896 2.345.864 3.19 0 .88-.88.88-2.31 0-3.19-.635-.634-1.66-.835-2.556-.431l-1.59-1.593L52.48 8.85l6.89 6.9-10.15 10.17zm-1.077-7.62.003-.004c.29-.285.785-.284 1.064.004.3.29.3.77 0 1.07-.28.28-.78.28-1.07 0a.766.766 0 0 1-.003-1.066l.006-.005zm15.997-4.02-1.92 1.93a.17.17 0 0 1-.13.06c0 .01-.09-.01-.14-.06-1.763-1.765-10.48-10.498-9.93-9.95a.182.182 0 0 1 0-.27l1.91-1.93c.05-.05.14-.04.14-.06.03 0 .09.01.13.06l9.94 9.95c.08.07.08.19 0 .27z"/></svg>