<svg xmlns="http://www.w3.org/2000/svg" data-name="Artboard 30" viewBox="0 0 64 64"><path fill="#ffc239" d="M14,7.97C7.215,7.762,2,6.511,2,5,2,3.343,8.268,2,16,2S30,3.343,30,5c0,1.585-5.735,2.883-13,2.992Z"/><path fill="#ffd55d" d="M2.805,4.005C4.511,5.041,8.787,5.817,14,5.977L17,6c5.662-.086,10.38-.894,12.193-2C27.274,2.837,22.1,2,16,2S4.722,2.838,2.805,4.005Z"/><path fill="#aaadb9" d="M14,23V6.5A1.5,1.5,0,0,1,15.5,5h0A1.5,1.5,0,0,1,17,6.5V23Z"/><polygon fill="#aaadb9" points="4 36.031 4 24 22 24 22 36 4 36.031"/><path fill="#eaebef" d="M19.871,36H3.5A1.5,1.5,0,0,0,2,37.5H2A1.5,1.5,0,0,0,3.5,39H18.7Z"/><rect width="22" height="3" x="2" y="21" fill="#eaebef" rx="1.5"/><path fill="#ccced5" d="M22,36V26.969H11.41a4.376,4.376,0,0,0-4.377,4.377v4.68Z"/><path fill="#ffc239" d="M46,7.97C39.215,7.762,34,6.511,34,5c0-1.657,6.268-3,14-3S62,3.343,62,5c0,1.585-5.735,2.883-13,2.992Z"/><path fill="#ffd55d" d="M35.566,3.625c.35,1.439,5.42,2.611,11.967,2.812l3,.023c4.983-.076,9.245-.71,11.431-1.612C61.592,3.262,55.492,2,48,2,42.583,2,37.894,2.66,35.566,3.625Z"/><path fill="#aaadb9" d="M46,23V6.5A1.5,1.5,0,0,1,47.5,5h0A1.5,1.5,0,0,1,49,6.5V23Z"/><polygon fill="#aaadb9" points="42 36.031 42 24 60 24 60 36 42 36.031"/><path fill="#2b2c2c" d="M47.89,46h4.2A1.915,1.915,0,0,0,54,44.085V39h3v5.4A4.6,4.6,0,0,1,52.4,49H47.3Z"/><path fill="#eaebef" d="M44.129,36H60.5A1.5,1.5,0,0,1,62,37.5h0A1.5,1.5,0,0,1,60.5,39H45.3Z"/><rect width="22" height="3" x="40" y="21" fill="#eaebef" rx="1.5"/><path fill="#ccced5" d="M60,36V26.969H49.41a4.376,4.376,0,0,0-4.377,4.377v4.68Z"/><path fill="#2b2c2c" d="M16.11 46H11.915A1.915 1.915 0 0110 44.085V39H7v5.4A4.6 4.6 0 0011.6 49H16.7zM17.612 54.818L15.18 59.641A1.63 1.63 0 0016.649 62h1.4a1.954 1.954 0 001.569-.788l1.906-2.575zM46.39 54.814l2.434 4.827A1.63 1.63 0 0147.355 62h-1.4a1.954 1.954 0 01-1.569-.788l-1.907-2.577z"/><circle cx="32" cy="44" r="18" fill="#c64635"/><circle cx="32" cy="44" r="15" fill="#eaebef"/><path fill="#ccced5" d="M19.871,44A15,15,0,0,1,33.436,29.073C32.963,29.028,32.485,29,32,29a15,15,0,0,0,0,30c.485,0,.963-.028,1.436-.073A15,15,0,0,1,19.871,44Z"/><path d="M32,28A16,16,0,1,0,48,44,16.019,16.019,0,0,0,32,28Zm0,30A14,14,0,1,1,46,44,14.015,14.015,0,0,1,32,58Z"/><path d="M63,5c0-3.887-13.465-4-15-4S33,1.114,33,5c0,3.019,8.231,3.754,12,3.932V20H41.5a2.5,2.5,0,0,0-.5,4.95v2.323a18.954,18.954,0,0,0-18,0V24.951A2.5,2.5,0,0,0,22.5,20H18V8.97C21.607,8.852,31,8.234,31,5c0-3.887-13.465-4-15-4S1,1.114,1,5C1,8.02,9.231,8.755,13,8.933V20H3.5a2.5,2.5,0,0,0-.5,4.95v10.1A2.5,2.5,0,0,0,3.5,40H6v4.405A5.6,5.6,0,0,0,11.6,50h2.39a18.937,18.937,0,0,0,2.47,4.892l-2.169,4.3A2.63,2.63,0,0,0,16.648,63h1.4a2.964,2.964,0,0,0,2.373-1.193l1.349-1.823a18.867,18.867,0,0,0,20.467,0l1.35,1.824A2.964,2.964,0,0,0,45.958,63h1.4a2.627,2.627,0,0,0,2.254-1.256,2.6,2.6,0,0,0,.108-2.552l-2.17-4.3A18.935,18.935,0,0,0,50.014,50H52.4A5.6,5.6,0,0,0,58,44.406V40h2.5a2.5,2.5,0,0,0,.5-4.949v-10.1A2.5,2.5,0,0,0,60.5,20H50V8.97C53.607,8.852,63,8.234,63,5ZM35.085,5C35.957,4.222,40.6,3,48,3S60.043,4.222,60.915,5C60.163,5.659,56.487,6.769,50,6.969V6.5a2.5,2.5,0,1,0-5,0V6.93C39.058,6.65,35.788,5.62,35.085,5ZM43,25H59V35H48.727A19.132,19.132,0,0,0,43,28.538Zm7.568,15H53v4.085a.915.915,0,0,1-.915.915H50.949c.018-.333.051-.662.051-1A18.978,18.978,0,0,0,50.568,40ZM15.273,35H5V25H21v3.537A19.132,19.132,0,0,0,15.273,35ZM3.085,5C3.957,4.222,8.6,3,16,3S28.043,4.222,28.915,5C28.163,5.659,24.487,6.769,18,6.969V6.5a2.5,2.5,0,0,0-5,0V6.93C7.058,6.65,3.788,5.62,3.085,5ZM15,6.5a.5.5,0,0,1,1,0V20H15ZM3.5,22h19a.5.5,0,0,1,0,1H3.5a.5.5,0,0,1,0-1ZM3,37.5a.5.5,0,0,1,.5-.5H14.353q-.2.5-.367,1H3.5A.5.5,0,0,1,3,37.5ZM13.051,45H11.915A.915.915,0,0,1,11,44.086V40h2.432A18.978,18.978,0,0,0,13,44C13,44.339,13.033,44.668,13.051,45ZM11.6,48A3.6,3.6,0,0,1,8,44.406V40H9v4.085A2.918,2.918,0,0,0,11.915,47h1.346c.053.335.1.672.171,1Zm7.216,12.617a.956.956,0,0,1-.766.383h-1.4a.631.631,0,0,1-.549-.3.614.614,0,0,1-.027-.6l1.756-3.481a19.1,19.1,0,0,0,2.313,2.21Zm29.12-.524a.613.613,0,0,1-.026.6.634.634,0,0,1-.551.3h-1.4a.956.956,0,0,1-.766-.383l-1.331-1.8a19.115,19.115,0,0,0,2.314-2.211ZM32,61A17,17,0,1,1,49,44,17.019,17.019,0,0,1,32,61ZM56,44.406A3.6,3.6,0,0,1,52.4,48H50.568c.071-.328.118-.665.171-1h1.346A2.918,2.918,0,0,0,55,44.086V40h1ZM60.5,38H50.014q-.169-.505-.367-1H60.5a.5.5,0,0,1,0,1ZM61,22.5a.5.5,0,0,1-.5.5h-19a.5.5,0,0,1,0-1h19A.5.5,0,0,1,61,22.5ZM47,20V6.5a.5.5,0,1,1,1,0V20Z"/></svg>