<svg xmlns="http://www.w3.org/2000/svg" data-name="Artboard 30" viewBox="0 0 64 64"><polygon fill="#eaebef" points="37.625 36 26.38 36 26.625 32 37.375 32 37.625 36"/><rect width="26" height="3.021" x="35" y="41.979" fill="#eaebef" rx="1.511"/><rect width="28.007" height="3.022" x="33.996" y="22.968" fill="#eaebef" rx="1.511"/><path fill="#e8e4d8" d="M36,22.979h0a4,4,0,0,1,4-4H56a4,4,0,0,1,4,4H36Z"/><polygon fill="#a66a43" points="60 26 59 42 37 42 36 26 60 26"/><rect width="26" height="3.021" x="3.004" y="42" fill="#eaebef" rx="1.511"/><rect width="28.007" height="3.022" x="2" y="22.989" fill="#eaebef" rx="1.511"/><path fill="#e8e4d8" d="M4,23H4a4,4,0,0,1,4-4H24a4,4,0,0,1,4,4H4Z"/><polygon fill="#a66a43" points="28.004 26.021 27.004 42.021 5.004 42.021 4.004 26.021 28.004 26.021"/><path fill="#bc7751" d="M59.812 29H45.364a5.857 5.857 0 00-5.845 6.221L39.943 42H59zM27.817 29H13.491a5.513 5.513 0 00-5.5 5.856l.448 7.165H27z"/><path d="M60.9,22.01A5.006,5.006,0,0,0,56,17.98H40a5.007,5.007,0,0,0-4.9,4.03,2.5,2.5,0,0,0-.041,4.936L35.311,31H28.694l.252-4.034a2.5,2.5,0,0,0-.041-4.935A5.006,5.006,0,0,0,24,18H8a5.007,5.007,0,0,0-4.9,4.031,2.5,2.5,0,0,0-.041,4.935l.882,14.106a2.507,2.507,0,0,0,.572,4.949H27.493a2.507,2.507,0,0,0,.572-4.949L28.319,37h7.367l.253,4.051A2.507,2.507,0,0,0,36.511,46H59.489a2.507,2.507,0,0,0,.572-4.949l.882-14.106A2.5,2.5,0,0,0,60.9,22.01ZM40,19.98H56a3,3,0,0,1,2.812,1.989H37.188A3,3,0,0,1,40,19.98Zm-2.062,21-.874-13.989H58.936L58.062,40.98ZM5.942,41,5.067,27.013H26.94L26.065,41ZM8,20H24a3,3,0,0,1,2.813,1.989H5.191A3,3,0,0,1,8,20ZM3.511,23.99H28.5a.512.512,0,0,1,0,1.023H3.511a.512.512,0,0,1,0-1.023ZM27.493,44.022H4.514a.511.511,0,1,1,0-1.021H27.493a.511.511,0,0,1,0,1.021ZM28.444,35l.125-2h6.867l.125,2Zm31.045,9H36.511a.511.511,0,1,1,0-1.021H59.489a.511.511,0,1,1,0,1.021Zm1-19.01H35.507a.511.511,0,0,1,0-1.022H60.493a.511.511,0,0,1,0,1.022Z"/></svg>