<svg xmlns="http://www.w3.org/2000/svg" viewBox="0 0 69 69"><circle cx="34.442" cy="34.498" r="26.114" fill="#e5e5e5"/><path fill="#fbfbfb" d="M54.084 17.297a25.98 25.98 0 0 0-17.2-6.47c-14.42 0-26.12 11.69-26.12 26.11 0 6.6 2.46 12.64 6.51 17.24-5.48-4.79-8.95-11.83-8.95-19.68 0-14.42 11.7-26.11 26.12-26.11 7.83 0 14.86 3.45 19.64 8.91z"/><path fill="#59b9ff" d="M34.442 56.612c-12.193 0-22.114-9.92-22.114-22.114s9.92-22.114 22.114-22.114 22.114 9.92 22.114 22.114-9.92 22.114-22.114 22.114z"/><path fill="#489cd5" d="M56.554 34.497c0 12.19-9.92 22.12-22.11 22.12-6.92 0-13.11-3.2-17.16-8.19 3.81 3.1 8.65 4.96 13.93 4.96 12.19 0 22.11-9.92 22.11-22.12 0-5.27-1.86-10.12-4.95-13.93 4.99 4.06 8.18 10.24 8.18 17.16z"/><path fill="#b4dff9" d="M51.264 20.167c-3.86-3.3-8.86-5.29-14.33-5.29-12.19 0-22.11 9.92-22.11 22.11 0 5.47 1.99 10.47 5.29 14.33-4.77-4.05-7.79-10.09-7.79-16.82 0-12.19 9.92-22.11 22.12-22.11 6.73 0 12.77 3.02 16.82 7.78z"/><circle cx="34.442" cy="5.789" r="2.595" fill="#f0373c"/><circle cx="34.442" cy="63.207" r="2.595" fill="#f0373c"/><circle cx="54.742" cy="14.198" r="2.595" fill="#f0373c"/><circle cx="14.142" cy="54.798" r="2.595" fill="#f0373c"/><circle cx="63.151" cy="34.498" fill="#f0373c" transform="rotate(-34.318 63.151 34.498)" r="2.595"/><circle cx="5.733" cy="34.498" fill="#f0373c" transform="rotate(-34.318 5.733 34.498)" r="2.595"/><circle cx="54.742" cy="54.798" r="2.595" fill="#f0373c"/><circle cx="14.142" cy="14.198" r="2.595" fill="#f0373c"/><path fill="#c87b2c" d="m49.432 63.89-3.634 1.756c-.684.331-1.595-.174-1.985-1.099L30.157 31.654c-.354-.84-.146-1.724.475-2.025.621-.3 1.443.087 1.882.886l17.29 31.137c.483.88.312 1.908-.372 2.238zM65.682 45.614l-2.072 3.463c-.39.652-1.275.823-1.926.372L38.67 33.322c-.59-.41-.775-1.186-.42-1.778.354-.592 1.125-.797 1.765-.469l25.086 12.666c.705.36.972 1.221.581 1.873z"/><path fill="#d88f52" d="m46.504 65.307-.71.34c-.68.33-1.59-.17-1.98-1.1l-13.66-32.89c-.35-.84-.14-1.73.48-2.03.14-.07.29-.1.45-.1.41 0 .86.23 1.19.64-.19.4-.19.96.04 1.49l13.65 32.89c.13.31.32.57.54.76zM63.864 48.647l-.25.43c-.39.65-1.28.82-1.93.37l-23.01-16.13c-.59-.4-.78-1.18-.42-1.77.24-.4.67-.63 1.12-.63.22 0 .43.05.64.16l.23.11c-.08.49.13 1.01.58 1.32l23.02 16.13c.01 0 .01.01.02.01z"/><path d="m65.438 43.075-4.85-2.45c.28-1.12.47-2.27.58-3.44.55.42 1.24.66 1.98.66 1.85 0 3.35-1.5 3.35-3.35 0-1.84-1.5-3.34-3.35-3.34-.74 0-1.43.25-1.98.66-.53-5.4-2.67-10.33-5.94-14.31.69-.1 1.35-.41 1.88-.94 1.3-1.31 1.3-3.43 0-4.73a3.338 3.338 0 0 0-4.73 0c-.54.53-.85 1.19-.94 1.88a26.563 26.563 0 0 0-14.31-5.94c.42-.55.66-1.24.66-1.99a3.346 3.346 0 0 0-6.69 0c0 .75.25 1.44.66 1.99-5.4.53-10.33 2.67-14.31 5.94-.1-.71-.42-1.36-.94-1.88a3.338 3.338 0 0 0-4.73 0 3.343 3.343 0 0 0 0 4.73c.52.52 1.17.84 1.88.94a26.563 26.563 0 0 0-5.94 14.3 3.348 3.348 0 0 0-5.33 2.69 3.35 3.35 0 0 0 5.33 2.7c.54 5.4 2.68 10.33 5.94 14.3-.69.09-1.35.4-1.88.94a3.338 3.338 0 0 0 0 4.73 3.341 3.341 0 0 0 4.73 0c.53-.53.84-1.19.93-1.89 3.98 3.27 8.92 5.42 14.32 5.95-.41.55-.66 1.24-.66 1.98 0 1.85 1.5 3.35 3.34 3.35 1.85 0 3.35-1.5 3.35-3.35 0-.74-.24-1.43-.66-1.98 1.43-.14 2.83-.39 4.18-.75l1.81 4.36c.31.72.86 1.28 1.52 1.53a1.94 1.94 0 0 0 1.49-.04l3.63-1.76c.45-.22.79-.62.96-1.14.21-.67.12-1.45-.26-2.14l-2.11-3.8c1.09-.67 2.12-1.4 3.09-2.2.09.69.41 1.35.94 1.88a3.341 3.341 0 0 0 4.73 0c1.3-1.31 1.3-3.43 0-4.73-.53-.53-1.19-.85-1.88-.94.98-1.19 1.86-2.47 2.61-3.82l3.42 2.39c.994.69 2.345.449 3-.6l2.07-3.47c.608-1.006.208-2.36-.89-2.92zm-2.29-10.42c1.02 0 1.85.83 1.85 1.84 0 1.02-.83 1.85-1.85 1.85a1.85 1.85 0 0 1-1.84-1.85c0-1.01.83-1.84 1.84-1.84zm-9.71-19.76a1.847 1.847 0 0 1 2.61 2.61c-.72.72-1.89.72-2.61 0s-.72-1.89 0-2.61zm-20.84-7.11c0-1.01.83-1.84 1.84-1.84 1.02 0 1.85.83 1.85 1.84 0 1.02-.83 1.85-1.85 1.85a1.85 1.85 0 0 1-1.84-1.85zm-19.76 9.72a1.845 1.845 0 1 1 2.61 0c-.69.689-1.912.698-2.61 0zm-7.1 20.84c-1.02 0-1.85-.83-1.85-1.85 0-1.01.83-1.84 1.85-1.84 1.01 0 1.84.83 1.84 1.84 0 1.02-.83 1.85-1.84 1.85zm9.71 19.76c-.72.72-1.89.72-2.61 0s-.72-1.89 0-2.61a1.846 1.846 0 0 1 2.61 2.61zm20.84 7.1c0 1.02-.83 1.85-1.85 1.85a1.85 1.85 0 0 1-1.84-1.85c0-1.02.83-1.84 1.84-1.84 1.02 0 1.85.82 1.85 1.84zm-1.85-3.34c-13.98 0-25.36-11.38-25.36-25.37 0-13.98 11.38-25.36 25.36-25.36 13.99 0 25.37 11.38 25.37 25.36 0 1.87-.2 3.69-.59 5.44l-2.32-1.17c.27-1.38.41-2.81.41-4.27 0-12.6-10.26-22.86-22.87-22.86-12.6 0-22.86 10.26-22.86 22.86 0 12.61 10.26 22.87 22.86 22.87 1.83 0 3.61-.22 5.32-.63l.97 2.34c-2.01.52-4.12.79-6.29.79zm3.8-25.93 15.07 10.56a21.352 21.352 0 0 1-7.64 8.17l-12.5-22.51c-.64-1.17-1.87-1.68-2.86-1.2-1 .48-1.36 1.77-.84 2.99l9.7 23.38c-1.52.36-3.1.54-4.73.54-11.78 0-21.36-9.59-21.36-21.37 0-11.78 9.58-21.36 21.36-21.36s21.37 9.58 21.37 21.36c0 1.21-.1 2.4-.31 3.56l-15.14-7.65c-.99-.5-2.2-.17-2.75.75-.56.93-.28 2.15.63 2.78zm10.91 28.08c.21.38.21.74.14.95-.03.09-.08.2-.18.25l-3.64 1.76c-.1.04-.22.02-.3-.01-.21-.08-.49-.31-.66-.71-2.801-6.732-.513-1.224-13.66-32.89-.21-.49-.11-.95.11-1.06.04-.02.08-.03.13-.03.23 0 .56.21.77.6.8 1.442 18.454 33.234 17.29 31.14zm6.9-8.52c.72.72.72 1.89 0 2.61s-1.89.72-2.61 0-.72-1.89 0-2.61 1.89-.72 2.61 0zm-8.43 2.67-1.22-2.19c3.42-2.1 6.24-5.07 8.15-8.61l2.06 1.44a25.386 25.386 0 0 1-8.99 9.36zm17.42-10.94-2.07 3.47c-.197.296-.593.323-.85.14l-23.02-16.13c-.27-.18-.36-.52-.21-.78.15-.24.504-.323.79-.18l25.08 12.66c.351.198.433.59.28.82z"/></svg>