<svg xmlns="http://www.w3.org/2000/svg" viewBox="0 0 69 69"><path fill="#ffca0f" d="M48.653 3.232 65.75 20.33c-3.69-.622-6.66.311-9.044 1.591-1.909 1.018-3.613 2.369-5.147 3.903l-32.372 32.4-8.393-8.408 32.386-32.4c1.52-1.52 2.87-3.224 3.889-5.133 1.28-2.383 2.213-5.353 1.584-9.05z"/><path fill="#ffa301" d="m63.693 18.272 2.057 2.058c-3.69-.622-6.66.311-9.044 1.591-1.909 1.018-3.613 2.369-5.147 3.903l-32.372 32.4-2.057-2.058 32.371-32.4c1.535-1.534 3.239-2.884 5.148-3.903 2.383-1.28 5.353-2.213 9.044-1.59z"/><path fill="#ffed91" d="M32.439 28.162 10.794 49.816l1.308 1.309L32.44 30.779a1.85 1.85 0 0 0 0-2.617z"/><path fill="#e5e5e5" d="m19.188 58.22-8.394-8.399-7.147 10.927a2.455 2.455 0 0 0 .318 3.08l1.224 1.225a2.452 2.452 0 0 0 3.078.318l10.92-7.151z"/><path fill="#d3d3d3" d="m17.413 56.45 1.774 1.774-10.924 7.149a2.46 2.46 0 0 1-3.076-.318L3.963 63.83a1.639 1.639 0 0 1-.24-.297c.806.594 1.916.63 2.772.071l10.918-7.156z"/><path fill="#fbfbfb" d="m10.794 49.816 1.308 1.309-7.149 10.924c-.622.962-.516 2.228.283 3.04a.127.127 0 0 1-.05-.034L3.964 63.83a2.451 2.451 0 0 1-.31-3.083l7.141-10.932z"/><ellipse cx="20.512" cy="48.497" fill="#fbfbfb" rx="1.925" ry="1.926" transform="translate(-.136 .058)"/><ellipse cx="26.938" cy="42.066" fill="#fbfbfb" rx="1.925" ry="1.926" transform="translate(-.118 .076)"/><ellipse cx="33.365" cy="35.636" fill="#fbfbfb" rx="1.925" ry="1.926" transform="translate(-.1 .094)"/><path d="M66.281 19.8 49.182 2.702a.749.749 0 0 0-1.27.656c.886 5.195-1.522 9.789-5.263 13.529l-.957.958-3.218-3.22a.75.75 0 1 0-1.06 1.06l3.218 3.22-1.91 1.91-3.217-3.219a.75.75 0 1 0-1.06 1.06l3.217 3.22-1.909 1.91-3.217-3.22a.75.75 0 1 0-1.06 1.061l3.217 3.22-5.526 5.528-1.334-1.335 1.68-1.681a.75.75 0 1 0-1.06-1.06L11.179 43.581a.75.75 0 1 0 1.06 1.06l1.68-1.68 1.334 1.333-4.99 4.991c-.068.069-4.827 7.36-7.245 11.052a3.216 3.216 0 0 0 .416 4.02l1.225 1.225a3.217 3.217 0 0 0 4.02.415c3.85-2.524 10.975-7.18 11.039-7.244l32.37-32.4c3.728-3.724 8.318-6.168 13.538-5.284a.75.75 0 0 0 .655-1.27zM28.107 31.436l-5.367 5.369-1.333-1.335 5.366-5.37 1.334 1.336zM14.98 41.9l5.366-5.37 1.334 1.334-5.367 5.37L14.98 41.9zM7.857 64.743a1.712 1.712 0 0 1-2.137-.22l-1.225-1.226a1.712 1.712 0 0 1-.22-2.138l6.64-10.154 7.088 7.094-10.146 6.644zm43.171-39.449L19.19 57.161l-7.335-7.344 4.459-4.46 1.862 1.862a2.672 2.672 0 0 0 .445 3.17c.521.521 1.206.782 1.892.782s1.37-.26 1.891-.782a2.68 2.68 0 0 0 0-3.785 2.67 2.67 0 0 0-3.168-.446l-1.862-1.863 5.367-5.369 1.862 1.863a2.672 2.672 0 0 0 .445 3.17c.505.505 1.176.783 1.891.783s1.387-.278 1.892-.784a2.68 2.68 0 0 0 0-3.784c-.826-.828-2.152-.966-3.162-.44L23.8 37.867l5.367-5.37 1.861 1.863a2.673 2.673 0 0 0 .445 3.17c.522.521 1.206.782 1.892.782s1.37-.26 1.892-.782a2.68 2.68 0 0 0 0-3.786 2.67 2.67 0 0 0-3.168-.445l-1.862-1.862 5.526-5.528 3.293 3.294a.75.75 0 1 0 1.06-1.06l-3.293-3.295 1.91-1.91 3.291 3.295a.75.75 0 1 0 1.061-1.06l-3.293-3.295 1.91-1.91 3.292 3.293a.75.75 0 1 0 1.06-1.06l-3.292-3.295.958-.957c3.434-3.434 6.006-7.811 5.89-12.706l14.145 14.144c-4.881-.131-9.276 2.47-12.717 5.908zM20.512 47.321c.3 0 .601.114.83.343a1.175 1.175 0 1 1-.831-.344zm6.426-6.431a1.178 1.178 0 0 1 .831 2.008 1.201 1.201 0 0 1-1.662 0 1.178 1.178 0 0 1 .831-2.008zm6.427-6.43c.3 0 .602.115.831.344a1.175 1.175 0 1 1-.831-.344z"/></svg>