<svg xmlns="http://www.w3.org/2000/svg" viewBox="0 0 69 69"><path fill="#c87b2c" d="M54.73 28.35c0 9.592-3.014 26.54-7.72 36.197a2.127 2.127 0 0 1-1.914 1.203H23.904a2.127 2.127 0 0 1-1.914-1.203c-4.706-9.656-7.72-26.605-7.72-36.198 0-8.073 2.136-15.218 5.615-20.442h29.23c3.479 5.224 5.615 12.369 5.615 20.442z"/><path fill="#9e5729" d="M54.734 28.345c0 9.6-3.02 26.55-7.72 36.2-.36.74-1.1 1.21-1.92 1.21h-4.97c.81 0 1.55-.47 1.91-1.21 4.71-9.65 7.72-26.6 7.72-36.2 0-8.07-2.14-15.21-5.62-20.44h4.98c3.48 5.23 5.62 12.37 5.62 20.44z"/><path fill="#d88f52" d="M26.773 65.755h-2.87c-.81 0-1.55-.47-1.91-1.21-4.71-9.65-7.72-26.6-7.72-36.2 0-8.07 2.13-15.21 5.61-20.44h2.87c-3.48 5.23-5.62 12.37-5.62 20.44 0 9.6 3.02 26.55 7.72 36.2.36.74 1.1 1.21 1.92 1.21z"/><path fill="#e5e5e5" d="M20.8 61.84c.385.947.778 1.863 1.19 2.707.36.739 1.1 1.203 1.914 1.203h21.192c.814 0 1.554-.464 1.914-1.203.411-.844.805-1.76 1.19-2.706H20.8z"/><path fill="#6b6c6b" d="M48.92 3.25H20.078a2.332 2.332 0 0 0-2.335 2.33 2.332 2.332 0 0 0 2.335 2.33h28.84a2.332 2.332 0 0 0 2.335-2.33 2.332 2.332 0 0 0-2.335-2.33z"/><path fill="#8a8c8a" d="M51.253 5.575c0 .43-.11.83-.31 1.17a2.34 2.34 0 0 0-2.02-1.17h-28.84c-.87 0-1.62.47-2.03 1.17a2.332 2.332 0 0 1 2.03-3.49h28.84a2.33 2.33 0 0 1 2.33 2.32z"/><circle cx="20.57" cy="21.936" r="2.111" fill="#fbfbfb"/><circle cx="29.523" cy="21.936" r="2.111" fill="#fbfbfb"/><circle cx="39.476" cy="21.936" r="2.111" fill="#fbfbfb"/><circle cx="48.43" cy="21.936" r="2.111" fill="#fbfbfb"/><path d="M55.48 28.349c0-7.503-1.862-14.55-5.227-20.005a3.075 3.075 0 0 0 1.75-2.765A3.085 3.085 0 0 0 48.92 2.5h-28.84c-1.701 0-3.085 1.38-3.085 3.08 0 1.219.72 2.266 1.752 2.764C15.382 13.8 13.52 20.845 13.52 28.35c0 10.318 3.299 27.298 7.795 36.527a2.863 2.863 0 0 0 2.589 1.624h21.191c1.109 0 2.1-.622 2.59-1.625 4.471-9.17 7.795-26.163 7.795-36.526zM20.078 4h28.84c.875 0 1.586.708 1.586 1.58 0 .864-.701 1.567-1.566 1.577H20.06a1.583 1.583 0 0 1-1.565-1.578c0-.871.71-1.579 1.584-1.579zm.211 4.66h1.394l-1.761 10.496a2.861 2.861 0 0 0-2.213 2.78c0 1.578 1.283 2.86 2.861 2.86s2.86-1.282 2.86-2.86a2.855 2.855 0 0 0-1.998-2.714L23.204 8.66h6.504l-.883 10.512a2.859 2.859 0 0 0-2.163 2.766 2.864 2.864 0 0 0 2.861 2.86 2.864 2.864 0 0 0 2.86-2.86 2.856 2.856 0 0 0-2.055-2.732l.884-10.546h6.575l.885 10.546a2.856 2.856 0 0 0-2.056 2.732 2.864 2.864 0 0 0 2.86 2.86 2.864 2.864 0 0 0 2.862-2.86 2.859 2.859 0 0 0-2.164-2.766L39.292 8.66h6.504l1.772 10.563a2.855 2.855 0 0 0-1.999 2.715 2.864 2.864 0 0 0 2.86 2.86 2.864 2.864 0 0 0 2.862-2.86 2.861 2.861 0 0 0-2.214-2.781L47.316 8.659h1.394c3.401 5.277 5.27 12.25 5.27 19.69 0 8.744-2.477 23.102-6.287 32.742H21.307c-3.81-9.64-6.287-23.997-6.287-32.742 0-7.44 1.869-14.413 5.27-19.69zm.281 11.915a1.362 1.362 0 0 1 0 2.722c-.75 0-1.36-.61-1.36-1.36 0-.751.61-1.362 1.36-1.362zm8.953 0a1.362 1.362 0 0 1 0 2.722c-.75 0-1.36-.61-1.36-1.36 0-.751.61-1.362 1.36-1.362zm9.953 0a1.362 1.362 0 0 1 0 2.722 1.362 1.362 0 0 1 0-2.722zm8.953 0a1.362 1.362 0 0 1 0 2.722 1.362 1.362 0 0 1 0-2.722zM45.095 65H23.904c-.53 0-1.005-.3-1.24-.781a52.117 52.117 0 0 1-.739-1.628h25.149a54.824 54.824 0 0 1-.737 1.627c-.236.482-.711.782-1.242.782z"/></svg>