<svg xmlns="http://www.w3.org/2000/svg" viewBox="0 0 69 69"><path fill="#c87b2c" d="M31.925 60.702c-6.56 6.55-17.192 6.55-23.753 0s-6.56-17.166 0-23.716a16.654 16.654 0 0 1 5.93-3.825c.178.807.579 1.575 1.21 2.204a4.553 4.553 0 0 0 6.434 0 4.536 4.536 0 0 0 0-6.424 4.928 4.928 0 0 0-.774-.624c.16-.183.327-.36.505-.538 6.961-6.951 21.355-1.683 21.355-1.683s5.276 14.371-1.686 21.322c-.177.178-.355.344-.539.504a4.923 4.923 0 0 0-.625-.773 4.553 4.553 0 0 0-6.434 0 4.536 4.536 0 0 0 0 6.424c.63.63 1.4 1.03 2.208 1.208a16.622 16.622 0 0 1-3.83 5.92z"/><path fill="#9e5729" d="M33.548 53.575c.63.63 1.4 1.03 2.21 1.21-.82 2.16-2.09 4.18-3.83 5.92-6.56 6.55-17.19 6.55-23.76 0a16.706 16.706 0 0 1-4.64-14.9c.59 3.23 2.14 6.33 4.64 8.82 6.57 6.55 17.2 6.55 23.76 0 .46-.46.89-.94 1.28-1.44.1.14.22.27.34.39z"/><path fill="#d88f52" d="M44.708 38.345c-.26-5.11-1.88-9.52-1.88-9.52s-13.24-4.85-20.46.89c-.17-.27-.38-.53-.62-.77s-.51-.45-.78-.63c.16-.18.33-.36.51-.54 6.96-6.95 21.35-1.68 21.35-1.68s2.24 6.08 1.88 12.25z"/><path fill="#6b6c6b" d="m31.053 34.655 22.439-22.438 3.188 3.188-22.44 22.438z"/><path fill="#8a8c8a" d="m54.728 13.455-22.44 22.43-1.23-1.23 22.43-22.44z"/><path fill="#e5e5e5" d="M36.978 32.242c2.027 2.027 2.037 5.314.012 7.339-2.025 2.025-5.311 2.015-7.338-.012s-2.028-5.304-.003-7.33a5.179 5.179 0 0 1 7.33.003z"/><path fill="#d3d3d3" d="M36.988 39.585c-2.02 2.02-5.31 2.01-7.34-.02-.28-.28-.52-.58-.72-.9 2.01 1.26 4.69 1.03 6.43-.71a5.188 5.188 0 0 0 .72-6.43c.32.2.62.44.9.72a5.185 5.185 0 0 1 .01 7.34z"/><path fill="#fbfbfb" d="M37.518 32.875a5.177 5.177 0 0 0-6.7.54c-1.82 1.82-2 4.66-.53 6.69a5.38 5.38 0 0 1-.64-.54 5.19 5.19 0 0 1 0-7.33 5.182 5.182 0 0 1 7.33.01c.2.2.38.41.54.63z"/><path fill="#e5e5e5" d="m19.034 55.879-6.024-6.025A2.28 2.28 0 0 1 13 46.63a2.28 2.28 0 0 1 3.224.011l6.025 6.025a2.28 2.28 0 0 1 .01 3.224 2.28 2.28 0 0 1-3.224-.011z"/><path fill="#ffca0f" d="m64.128 10.185-4.36 4.36-3.09.86-3.19-3.19.81-3.03 4.42-4.42c.44-.44 1.15-.44 1.59 0l3.82 3.81c.44.44.44 1.17 0 1.61z"/><path fill="#ffa301" d="m64.128 10.185-4.36 4.36-3.09.86-1.76-1.76 3.09-.86 4.36-4.36c.43-.43.44-1.15.02-1.59l1.74 1.74c.44.44.44 1.17 0 1.61z"/><path fill="#ffed91" d="M61.608 6.065c-.44-.44-1.15-.44-1.59 0l-4.42 4.42-.81 3.03-1.3-1.3.81-3.03 4.42-4.42c.44-.44 1.15-.44 1.59 0l1.3 1.3z"/><path d="M16.752 46.113a3.006 3.006 0 0 0-4.28-.01c-1.2 1.2-1.158 3.113.01 4.28l6.02 6.03a3.04 3.04 0 0 0 4.29.01 3.042 3.042 0 0 0-.01-4.29l-6.03-6.02zm4.98 9.25a1.541 1.541 0 0 1-2.17-.01l-6.02-6.03c-.582-.582-.62-1.57-.01-2.16.592-.613 1.565-.585 2.16.01l6.03 6.02c.583.583.613 1.545.01 2.17z"/><path d="M66.388 12.038a.39.39 0 0 0-.552 0l-.405.405-1.25-1.25.48-.48c.35-.35.55-.83.55-1.33 0-.51-.2-.98-.55-1.34l-3.82-3.81c-.74-.73-1.92-.73-2.65 0l-.48.49-1.006-1.006.406-.405a.389.389 0 1 0-.552-.551l-1.361 1.361a.389.389 0 1 0 .551.551l.405-.405 1.006 1.007-2.356 2.346-1.001-1 .405-.406a.389.389 0 1 0-.552-.55l-1.361 1.36a.389.389 0 1 0 .552.551l.405-.405 1 1.001-.48.481c-.1.09-.16.21-.2.34l-.76 2.84-12.68 12.68c-4.71-1.19-13.87-2.57-19.19 2.73-.19.2-.36.38-.53.58-.15.16-.21.38-.18.6.03.21.15.4.33.52.25.16.47.34.65.53a3.766 3.766 0 0 1 0 5.36 3.802 3.802 0 0 1-5.37 0c-.51-.5-.85-1.14-1.01-1.83a.708.708 0 0 0-.37-.5.712.712 0 0 0-.62-.04c-2.33.87-4.42 2.21-6.2 3.99-6.853 6.853-6.864 17.917 0 24.78 6.821 6.802 17.918 6.852 24.81 0 1.78-1.78 3.13-3.86 4.01-6.19a.75.75 0 0 0-.05-.62.71.71 0 0 0-.49-.37c-.7-.16-1.34-.51-1.84-1.01a3.766 3.766 0 0 1 0-5.36 3.802 3.802 0 0 1 5.37 0c.19.18.37.41.53.65.12.18.31.3.52.33.22.03.44-.03.6-.18.2-.17.39-.34.57-.53 5.34-5.33 3.93-14.53 2.74-19.22l12.66-12.66 2.9-.81c.12-.03.23-.1.33-.19l.43-.42 1.246 1.245-.406.405a.389.389 0 1 0 .552.55l1.361-1.36a.389.389 0 1 0-.551-.551l-.405.404-1.245-1.245 2.348-2.348.003-.003 1.245 1.244-.405.406a.389.389 0 1 0 .551.55l1.362-1.361a.389.389 0 0 0 0-.55zM40.692 46.813c-.06-.07-.12-.13-.18-.2-2.07-2.06-5.43-2.06-7.49 0a5.274 5.274 0 0 0 0 7.49c.5.5 1.09.89 1.73 1.15-.79 1.83-1.92 3.48-3.36 4.92-6.25 6.24-16.43 6.24-22.69 0-6.246-6.245-6.296-16.364 0-22.66 1.44-1.43 3.09-2.56 4.93-3.35.26.64.65 1.23 1.15 1.73 2.07 2.07 5.43 2.07 7.49 0a5.273 5.273 0 0 0 .01-7.48c-.07-.06-.13-.12-.2-.18 4.45-4.35 12.2-3.49 16.79-2.46l-4.33 4.33c-1.813-.407-3.924.101-5.42 1.61-2.31 2.31-2.31 6.07 0 8.39 2.285 2.286 6.059 2.351 8.4.01a5.922 5.922 0 0 0 1.46-5.95l4.17-4.17c1.03 4.57 1.91 12.36-2.46 16.82zm-4.23-7.76a4.438 4.438 0 0 1-6.28-.02 4.424 4.424 0 0 1 0-6.26c1.76-1.78 4.631-1.676 6.27 0 1.699 1.7 1.764 4.526.01 6.28zm1.85-6.34c-.22-.35-.49-.69-.8-1-.42-.42-.9-.77-1.41-1.05 11.888-11.867 6.084-6.083 17.39-17.39l2.13 2.13-17.31 17.31zm21.06-18.84-2.47.69-2.58-2.57v-.01l.65-2.41 4.28-4.28c.14-.14.38-.14.53 0l3.82 3.81c.09.1.11.22.11.28s-.02.18-.11.27l-4.23 4.22z"/></svg>