<svg xmlns="http://www.w3.org/2000/svg" viewBox="0 0 69 69"><path fill="#ffca0f" d="M8.568 62.122c6.638-6.406 19.744-7.872 26.546-8.307a18.547 18.547 0 0 1-8.42-10.89c-6.396-1.033-13.698-3.11-18.126-7.384v26.581z"/><path fill="#ffa301" d="M35.11 53.817c-6.8.43-19.91 1.9-26.54 8.31v-5.51c5.11-4.94 14.06-6.94 21.01-7.8 1.48 2.02 3.36 3.72 5.53 5z"/><path fill="#ffed91" d="M22.014 41.988c-5.033-1.217-10.07-3.192-13.443-6.451v2.25c2.88 2.775 6.97 4.624 11.237 5.861a1.728 1.728 0 0 0 2.206-1.66z"/><path fill="#ffca0f" d="m63.21 37.784-1-29.29h-4l-1 15.626c-3.32-3.07-7.747-4.96-12.625-4.96-10.286 0-18.625 8.338-18.625 18.624S34.3 56.41 44.585 56.41s18.624-8.339 18.624-18.625h.001zM44.585 51.856c-7.76 0-14.072-6.312-14.072-14.071 0-7.76 6.313-14.073 14.072-14.073s14.072 6.313 14.072 14.073c0 7.759-6.313 14.071-14.072 14.071z"/><path fill="#ffa301" d="M62.21 8.497h-2.83l.9 26.36c0 10.29-8.34 18.63-18.62 18.63-4.4 0-8.44-1.53-11.62-4.08 3.4 4.27 8.65 7 14.54 7 10.29 0 18.63-8.34 18.63-18.62l-1-29.29z"/><path fill="#ffed91" d="M62.21 8.497h-4l-1 15.62c-3.32-3.07-7.75-4.96-12.63-4.96-10.28 0-18.62 8.34-18.62 18.63 0 5.46 2.35 10.37 6.1 13.78-3-3.3-4.84-7.69-4.84-12.52 0-10.29 8.34-18.62 18.63-18.62 4.87 0 9.3 1.89 12.62 4.96l1-15.63h2.78l-.04-1.26z"/><circle cx="38.699" cy="45.49" r="1.783" fill="#6b6c6b"/><circle cx="44.585" cy="45.49" r="1.783" fill="#6b6c6b"/><circle cx="50.471" cy="45.49" r="1.783" fill="#6b6c6b"/><path fill="#ffa301" d="m64.464 3.785-2.25 4.71h-4l-2.25-4.71zM6.55 32.452a2.017 2.017 0 0 0-2.016 2.017v28.725a2.017 2.017 0 1 0 4.034 0V34.47a2.017 2.017 0 0 0-2.017-2.017z"/><path d="M44.585 22.965c-8.17 0-14.82 6.65-14.82 14.82s6.65 14.82 14.82 14.82 14.82-6.65 14.82-14.82-6.65-14.82-14.82-14.82zm13.32 14.82c0 .1-.01.2-.01.29a2.885 2.885 0 0 1-2.87 2.59h-3.8v-5.76h3.8c1.49 0 2.72 1.13 2.87 2.59 0 .09.01.19.01.29zm-8.18 2.88h-4.39v-5.76h4.39v5.76zm-5.89 0h-4.39v-5.76h4.39v5.76zm-5.89 0h-3.8c-1.49 0-2.72-1.13-2.87-2.59 0-.09-.01-.19-.01-.29s.01-.2.01-.29a2.885 2.885 0 0 1 2.87-2.59h3.8v5.76zm6.64 10.44c-6.07 0-11.2-4.07-12.8-9.63.68.44 1.49.69 2.36.69h3.8v.9a2.555 2.555 0 0 0-1.78 2.43 2.54 2.54 0 0 0 2.53 2.53c1.4 0 2.54-1.14 2.54-2.53 0-1.14-.76-2.11-1.79-2.43v-.9h4.39v.9a2.555 2.555 0 0 0-1.78 2.43c0 1.39 1.13 2.53 2.53 2.53s2.53-1.14 2.53-2.53c0-1.14-.75-2.1-1.78-2.43v-.9h4.39v.9a2.554 2.554 0 0 0-1.79 2.43c0 1.39 1.14 2.53 2.54 2.53a2.54 2.54 0 0 0 2.53-2.53c0-1.14-.75-2.1-1.78-2.43v-.9h3.8c.87 0 1.68-.25 2.36-.69-1.6 5.56-6.73 9.63-12.8 9.63zm-5.89-6.65c.567 0 1.04.469 1.04 1.04 0 .56-.47 1.03-1.04 1.03a1.035 1.035 0 0 1 0-2.07zm5.89 0a1.035 1.035 0 0 1 0 2.07 1.035 1.035 0 0 1 0-2.07zm5.89 0a1.035 1.035 0 0 1 0 2.07c-.57 0-1.04-.47-1.04-1.03 0-.572.473-1.04 1.04-1.04zm4.55-11.05h-3.8v-2.69c0-.42-.34-.75-.75-.75-.42 0-.75.33-.75.75v2.69h-4.39v-2.69a.749.749 0 1 0-1.5 0v2.69h-4.39v-2.69c0-.42-.33-.75-.75-.75-.41 0-.75.33-.75.75v2.69h-3.8c-.87 0-1.68.25-2.36.69 1.6-5.56 6.73-9.63 12.8-9.63s11.2 4.07 12.8 9.63c-.68-.44-1.49-.69-2.36-.69z"/><path d="M65.095 3.385a.726.726 0 0 0-.63-.35h-8.5c-.26 0-.5.13-.63.35-.14.22-.16.49-.05.72l2.17 4.54-.9 13.93c-3.41-2.7-7.61-4.17-11.97-4.17-10.68 0-19.37 8.7-19.37 19.38 0 1.44.16 2.85.46 4.2-7.45-1.32-12.94-3.6-16.36-6.77v-.75a2.766 2.766 0 0 0-5.53 0v28.73a2.77 2.77 0 0 0 2.77 2.77c1.52 0 2.76-1.24 2.76-2.77v-.74c4.7-4.36 13.55-7.08 25.64-7.88 2.84 1.65 6.13 2.58 9.63 2.58 10.68 0 19.38-8.69 19.38-19.37v-.03l-.99-29.1 2.17-4.55c.11-.23.09-.5-.05-.72zm-57.28 59.81c0 .7-.56 1.27-1.26 1.27s-1.27-.57-1.27-1.27v-28.73c0-.7.57-1.26 1.27-1.26s1.26.56 1.26 1.26v28.73zm1.5-2.72v-23.28c3.77 3 9.41 5.15 16.79 6.39 1.154 3.719 3.44 7.096 6.79 9.64-10.65.92-18.72 3.4-23.58 7.25zm35.27-4.82c-9.376 0-17.87-7.492-17.87-17.87 0-9.86 8.01-17.88 17.87-17.88 4.49 0 8.79 1.7 12.12 4.77.21.19.52.25.78.14.27-.11.46-.36.47-.65l.96-14.92h2.57l.98 28.55c-.01 9.85-8.03 17.86-17.88 17.86zm17.16-47.91h-3.06l-1.53-3.21h6.12l-1.53 3.21z"/></svg>