<svg xmlns="http://www.w3.org/2000/svg" data-name="Artboard 30" viewBox="0 0 64 64"><rect width="2" height="11.314" x="12" y="38.343" fill="#f4ac1c" transform="rotate(-45 13 44)"/><rect width="2" height="9.899" x="18.5" y="31.55" fill="#f4ac1c" transform="rotate(-45 19.5 36.5)"/><rect width="2" height="9.899" x="25.5" y="24.55" fill="#f4ac1c" transform="rotate(-45 26.5 29.5)"/><rect width="2" height="9.192" x="32.25" y="17.654" fill="#f4ac1c" transform="rotate(-45 33.25 22.25)"/><rect width="35.355" height="2" x="1.822" y="28.5" fill="#ffd55d" transform="rotate(-45 19.5 29.5)"/><path fill="#f4ac1c" d="M53.317,4.513,55.227,2.6a2.058,2.058,0,0,1,2.909,0L61.4,5.864a2.058,2.058,0,0,1,0,2.909L8.773,61.4a2.058,2.058,0,0,1-2.909,0L2.6,58.136a2.058,2.058,0,0,1,0-2.909L45.513,12.316Z"/><rect width="11.234" height="7.021" x="44.383" y="5.489" fill="#ffd55d" rx="3.511" transform="rotate(-45 50 9)"/><path fill="#ffe69e" d="M46.047,7.988l1.4,1.4a2.08,2.08,0,0,0,2.941,0h0a2.08,2.08,0,0,0,0-2.941l-1.4-1.4Z"/><rect width="3.565" height="8.726" x="42.478" y="15.377" fill="#ffd55d" transform="rotate(-45 44.26 19.74)"/><path fill="#ffd55d" d="M14.824 43.005C14.882 43 14.941 43 15 43a3 3 0 11-3 3c0-.059 0-.118.005-.176zM21.824 36.005C21.883 36 21.941 36 22 36a3 3 0 11-3 3c0-.059 0-.117 0-.176zM28.824 29.005c.058 0 .117 0 .176 0a3 3 0 11-3 3c0-.059 0-.118 0-.176zM35.824 22.005c.058 0 .117 0 .176 0a3 3 0 11-3 3c0-.059 0-.118.005-.176z"/><path d="M58.843,1.9a3.061,3.061,0,0,0-4.322,0L53.107,3.31A4.511,4.511,0,0,0,48.3,4.322L45.321,7.3a4.51,4.51,0,0,0-1.013,4.807L34.415,22l-3-3,1.293-1.293-1.414-1.414-25,25,1.414,1.414L9,41.415l3,3L1.9,54.521a3.059,3.059,0,0,0,0,4.324l3.261,3.261a3.059,3.059,0,0,0,4.322,0L62.1,9.481a3.058,3.058,0,0,0,0-4.323ZM51.489,5a2.509,2.509,0,0,1,1.776,4.284l-2.979,2.98a2.511,2.511,0,0,1-4.1-2.724l.557.558A3.08,3.08,0,0,0,51.1,5.745l-.557-.557A2.524,2.524,0,0,1,51.489,5Zm-1.8,2.157a1.079,1.079,0,0,1,0,1.526,1.085,1.085,0,0,1-1.527,0l-.7-.7,1.526-1.527Zm-7.249,9.65,4.756,4.756-1.106,1.107-4.756-4.757ZM38,25a1.995,1.995,0,0,1-3.978.222l2.2-2.2A2,2,0,0,1,38,25Zm-5-1.585L27.415,29l-3-3L30,20.415ZM31,32a1.995,1.995,0,0,1-3.978.222l2.2-2.2A2,2,0,0,1,31,32Zm-7,7a1.995,1.995,0,0,1-3.978.222l2.2-2.2A2,2,0,0,1,24,39Zm-3.585-3-3-3L23,27.415l3,3Zm-10,4L16,34.415l3,3L13.415,43ZM17,46a1.995,1.995,0,0,1-3.978.222l2.2-2.2A2,2,0,0,1,17,46ZM8.065,60.692a1.057,1.057,0,0,1-1.494,0L3.31,57.431a1.057,1.057,0,0,1,0-1.495L11.446,47.8a3.986,3.986,0,1,0,5.345-5.345L18.446,40.8a3.986,3.986,0,1,0,5.345-5.345L25.446,33.8A3.988,3.988,0,1,0,30.8,28.447L32.446,26.8a3.987,3.987,0,1,0,5.348-5.348l2.121-2.121,4.756,4.757ZM60.69,8.067,48.606,20.152,43.85,15.4l1.6-1.606a4.492,4.492,0,0,0,6.245-.109l2.979-2.98a4.505,4.505,0,0,0,.109-6.244l1.147-1.146a1.056,1.056,0,0,1,1.494,0L60.69,6.572A1.057,1.057,0,0,1,60.69,8.067Z"/></svg>