<svg xmlns="http://www.w3.org/2000/svg" width="64" height="64" enable-background="new 0 0 64 64" viewBox="0 0 64 64"><path fill="#E6E9ED" d="M16.66,57.5C16.88,57.951,17,58.461,17,59c0,0.541-0.12,1.051-0.34,1.5c-0.56,1.19-1.77,2-3.16,2
			c-1.93,0-3.5-1.56-3.5-3.5c0-1.93,1.57-3.5,3.5-3.5C14.891,55.5,16.101,56.32,16.66,57.5z"/><path fill="#FFD2A6" d="M52,60.5H16.66C16.88,60.051,17,59.541,17,59c0-0.539-0.12-1.049-0.34-1.5H52V60.5z"/><path fill="#ED5565" d="M42.33 6.49h9.971c3.239 2.35 5.909 5.43 7.76 9.01h-9.99-.01c-1.851-3.569-4.51-6.649-7.74-9L42.33 6.49zM27 53.5c5.73 0 11.03-1.85 15.32-5l.01.021h9.96C48 51.66 42.721 53.5 37 53.5H27zM53 27.5h10c0 4.33-1.06 8.42-2.939 12.01h-9.99l-.01-.01C51.94 35.91 53 31.83 53 27.5zM63 27.5H53c0-4.33-1.06-8.41-2.939-12h.01 9.99C61.94 19.09 63 23.17 63 27.5z"/><path fill="#ED5565" d="M37 1.5c5.721 0 11.011 1.851 15.301 4.99H42.33L42.32 6.5c-4.29-3.149-9.59-5-15.32-5H37zM42.32 48.5c3.23-2.35 5.89-5.43 7.74-9l.01.01h9.99c-1.86 3.58-4.53 6.66-7.771 9.011h-9.96L42.32 48.5z"/><path fill="#E6E9ED" d="M50.061,15.5C51.94,19.09,53,23.17,53,27.5s-1.06,8.41-2.939,12c-1.851,3.57-4.51,6.65-7.74,9
			c-4.29,3.15-9.59,5-15.32,5c-14.359,0-26-11.64-26-26c0-14.359,11.641-26,26-26c5.73,0,11.03,1.851,15.32,5
			C45.551,8.851,48.21,11.931,50.061,15.5z M48,27.5c0-11.6-9.399-21-21-21c-11.6,0-21,9.4-21,21c0,11.59,9.4,21,21,21
			C38.601,48.5,48,39.09,48,27.5z"/><path fill="#CCD1D9" d="M27,6.5c11.601,0,21,9.4,21,21c0,11.59-9.399,21-21,21c-11.6,0-21-9.41-21-21C6,15.9,15.4,6.5,27,6.5z"/><g><path d="M27,54.494c-14.888,0-27-12.11-27-26.997C0,12.61,12.112,0.498,27,0.498S54,12.61,54,27.497
			C54,42.384,41.888,54.494,27,54.494z M27,2.498c-13.785,0-25,11.214-25,24.999C2,41.28,13.215,52.494,27,52.494
			S52,41.28,52,27.497C52,13.712,40.785,2.498,27,2.498z"/><path d="M27,49.494c-12.131,0-22-9.868-22-21.997c0-12.13,9.869-21.999,22-21.999s22,9.869,22,21.999
			C49,39.626,39.131,49.494,27,49.494z M27,7.498c-11.028,0-20,8.972-20,19.999c0,11.026,8.972,19.997,20,19.997s20-8.971,20-19.997
			C47,16.47,38.028,7.498,27,7.498z"/><path d="M37,54.494c-0.553,0-1-0.447-1-1s0.447-1,1-1c13.785,0,25-11.214,25-24.997C62,13.712,50.785,2.498,37,2.498
			c-0.553,0-1-0.448-1-1s0.447-1,1-1c14.888,0,27,12.112,27,26.999C64,42.384,51.888,54.494,37,54.494z"/><path d="M37 54.494H27c-.553 0-1-.447-1-1s.447-1 1-1h10c.553 0 1 .447 1 1S37.553 54.494 37 54.494zM37 2.498H27c-.553 0-1-.448-1-1s.447-1 1-1h10c.553 0 1 .448 1 1S37.553 2.498 37 2.498zM63 28.497H53c-.553 0-1-.448-1-1s.447-1 1-1h10c.553 0 1 .448 1 1S63.553 28.497 63 28.497zM60.069 16.497h-9.998c-.553 0-1-.448-1-1s.447-1 1-1h9.998c.553 0 1 .448 1 1S60.622 16.497 60.069 16.497zM52.332 7.493h-9.999c-.553 0-1-.448-1-1s.447-1 1-1h9.999c.553 0 1 .448 1 1S52.885 7.493 52.332 7.493zM60.063 40.508h-9.992c-.553 0-1-.447-1-1s.447-1 1-1h9.992c.553 0 1 .447 1 1S60.616 40.508 60.063 40.508zM52.332 49.516h-9.999c-.553 0-1-.447-1-1s.447-1 1-1h9.999c.553 0 1 .447 1 1S52.885 49.516 52.332 49.516zM13.498 63.502c-2.481 0-4.5-2.019-4.5-4.5s2.019-4.5 4.5-4.5 4.5 2.019 4.5 4.5S15.979 63.502 13.498 63.502zM13.498 56.502c-1.379 0-2.5 1.121-2.5 2.5s1.121 2.5 2.5 2.5 2.5-1.121 2.5-2.5S14.877 56.502 13.498 56.502z"/><path d="M52.004 58.499H16.659c-.553 0-1-.447-1-1s.447-1 1-1h35.345c.553 0 1 .447 1 1S52.557 58.499 52.004 58.499zM52.004 61.497H16.663c-.553 0-1-.447-1-1s.447-1 1-1h35.341c.553 0 1 .447 1 1S52.557 61.497 52.004 61.497z"/><path d="M52.004,61.497c-0.553,0-1-0.447-1-1v-2.998c0-0.553,0.447-1,1-1s1,0.447,1,1v2.998
				C53.004,61.05,52.557,61.497,52.004,61.497z"/></g></svg>