<svg xmlns="http://www.w3.org/2000/svg" data-name="Artboard 30" viewBox="0 0 64 64"><path fill="#a66a43" d="M38.638,29.362A31.152,31.152,0,0,1,42,34.287h0c2.266,3.521.822,10.278-4.56,10.27-1.717.111-4.406.443-4.226,3.236a12.95,12.95,0,0,1-7.616,13.352h0a10.777,10.777,0,0,1-7.543.325l-.022-.009A28.093,28.093,0,0,1,2.53,45.976h0a10.775,10.775,0,0,1,.325-7.542h0a12.952,12.952,0,0,1,13.352-7.617C19,31,19.332,28.308,19.443,26.591c-.008-5.381,6.749-6.826,10.27-4.559h0a31.085,31.085,0,0,1,4.925,3.357Z"/><path fill="#bc7751" d="M42,34.287h0a31.152,31.152,0,0,0-3.357-4.925l-4-3.973a31.085,31.085,0,0,0-4.925-3.357c-3.521-2.267-10.278-.822-10.27,4.559C19.332,28.308,19,31,16.207,30.817A13.052,13.052,0,0,0,4.5,35.664,22,22,0,0,0,33.049,51.839a12.472,12.472,0,0,0,.16-4.046c-.18-2.793,2.509-3.125,4.226-3.236C42.817,44.565,44.261,37.808,42,34.287Z"/><path fill="#e8e4d8" d="M46.232 12.449L43.459 9.675a1.567 1.567 0 010-2.216h0a1.567 1.567 0 012.216 0L48 9.784zM57.238 14.454l2.087 2.087a1.567 1.567 0 002.216 0h0a1.567 1.567 0 000-2.216L59.9 12.687zM49.8 7.02L47.459 4.675a1.567 1.567 0 010-2.216h0a1.567 1.567 0 012.216 0l1.9 1.9zM52.06 18.277l2.265 2.264a1.567 1.567 0 002.216 0h0a1.567 1.567 0 000-2.216l-1.816-1.816zM27 46a9 9 0 113.7-17.2A1 1 0 0131 29l4 4a1 1 0 01.2.294A9 9 0 0127 46zm0-16a6.994 6.994 0 106.452 4.28l-3.733-3.733A6.958 6.958 0 0027 30z"/><rect width="27.543" height="5.657" x="24.199" y="23.2" fill="#4e301c" transform="rotate(-44.999 37.97 26.029)"/><path fill="#a66a43" d="M44.605,15.587a2.065,2.065,0,0,1-.261-2.6L51.2,2.66a2.255,2.255,0,0,1,3.188,0L61.34,9.618a2.256,2.256,0,0,1,0,3.189L51.014,19.656a2.065,2.065,0,0,1-2.6-.261Z"/><rect width="2" height="2.828" x="48" y="10.586" fill="#e8e4d8" transform="rotate(-45 49 12)"/><rect width="2" height="2.828" x="52" y="6.586" fill="#e8e4d8" transform="rotate(-45 53 8)"/><rect width="2" height="2.828" x="55" y="9.586" fill="#e8e4d8" transform="rotate(-45 56 11)"/><rect width="2" height="2.828" x="51" y="13.586" fill="#e8e4d8" transform="rotate(-45 52 15)"/><path fill="#241905" d="M31.872,35.871a4.991,4.991,0,1,1-3.745-3.744Z"/><path fill="#4e301c" d="M12.121,42h0a2.12,2.12,0,0,1,1.5.621l7.758,7.758a2.12,2.12,0,0,1,.621,1.5h0A2.122,2.122,0,0,1,19.879,54h0a2.12,2.12,0,0,1-1.5-.621l-7.758-7.758a2.12,2.12,0,0,1-.621-1.5h0A2.122,2.122,0,0,1,12.121,42Z"/><rect width="2" height="2.828" x="48" y="10.587" transform="rotate(-45 49 12.002)"/><rect width="2" height="2.828" x="52" y="6.587" transform="rotate(-45 53 8.002)"/><rect width="2" height="2.828" x="55" y="9.587" transform="rotate(-45 56 11.001)"/><rect width="2" height="2.828" x="51" y="13.587" transform="rotate(-45 52 15.001)"/><path d="M17.739,62.421a11.673,11.673,0,0,0,3.64.58,11.834,11.834,0,0,0,4.6-.933,13.921,13.921,0,0,0,8.226-14.339,1.529,1.529,0,0,1,.862-1.669,6.376,6.376,0,0,1,2.365-.5h.011a6.117,6.117,0,0,0,5.568-3.325,8.744,8.744,0,0,0-.142-8.427,32.026,32.026,0,0,0-2.9-4.366l8.694-8.693A3.09,3.09,0,0,0,49.876,21a3.051,3.051,0,0,0,1.69-.508l.778-.516,1.273,1.275a2.568,2.568,0,0,0,3.631-3.631l-.539-.539,1.045-.693.863.863a2.568,2.568,0,0,0,3.631-3.631l-.157-.157a3.257,3.257,0,0,0-.044-4.549L55.09,1.956a3.328,3.328,0,0,0-4.548-.044l-.159-.159a2.568,2.568,0,0,0-3.631,3.631l.864.864-.693,1.045-.54-.54a2.568,2.568,0,0,0-3.631,3.631l1.274,1.274-.514.775a3.071,3.071,0,0,0-.257,2.9l-8.71,8.709a31.7,31.7,0,0,0-4.291-2.849,8.774,8.774,0,0,0-8.487-.177,6.083,6.083,0,0,0-3.322,5.513c-.184,2.847-.976,3.372-2.112,3.3a13.956,13.956,0,0,0-14.4,8.219,11.793,11.793,0,0,0-.33,8.307A29.281,29.281,0,0,0,17.739,62.421ZM34,37a7,7,0,1,1-5.564-6.851l-.882.883C27.37,31.016,27.185,31,27,31a6,6,0,1,0,6,6c0-.186-.014-.371-.031-.555l.882-.882A7.015,7.015,0,0,1,34,37Zm-3.075-.661A3.959,3.959,0,0,1,31,37a4.139,4.139,0,1,1-3.341-3.925ZM32,34.586,29.413,32l15.1-15.094,2.586,2.586ZM55.834,19.034a.566.566,0,0,1,0,.8.568.568,0,0,1-.8,0l-.987-.987.965-.64Zm5-3.2a.568.568,0,0,1-.8,0l-.576-.576.965-.64.414.415a.566.566,0,0,1,0,.8ZM53.676,3.369l6.957,6.957a1.26,1.26,0,0,1,.058,1.713l-10.23,6.785a1.067,1.067,0,0,1-1.342-.135l-3.807-3.807a1.069,1.069,0,0,1-.134-1.343L51.966,3.31A1.281,1.281,0,0,1,53.676,3.369Zm-5.51.6a.566.566,0,0,1,0-.8.569.569,0,0,1,.8,0l.415.416-.64.965Zm-4,5a.566.566,0,0,1,0-.8.569.569,0,0,1,.8,0l.825.826-.64.965ZM3.776,38.824a11.943,11.943,0,0,1,12.367-7.007c3.961.259,4.211-3.821,4.3-5.226a4.149,4.149,0,0,1,2.283-3.82,6.776,6.776,0,0,1,6.505.139,30.045,30.045,0,0,1,3.891,2.555L30.046,28.54a9.025,9.025,0,1,0,5.415,5.414l3.071-3.071a30.644,30.644,0,0,1,2.621,3.947,6.763,6.763,0,0,1,.105,6.445,4.189,4.189,0,0,1-3.884,2.286h0a8.218,8.218,0,0,0-3.219.721,3.52,3.52,0,0,0-1.935,3.638A11.911,11.911,0,0,1,25.2,60.225a9.755,9.755,0,0,1-6.8.31A27.209,27.209,0,0,1,3.48,45.666,9.776,9.776,0,0,1,3.776,38.824Z"/><path d="M17.672,54.087A3.121,3.121,0,0,0,23,51.88a3.1,3.1,0,0,0-.914-2.207l-7.758-7.757A3.12,3.12,0,0,0,9,44.123a3.1,3.1,0,0,0,.914,2.207ZM12.121,43a1.13,1.13,0,0,1,.793.329l7.758,7.757A1.121,1.121,0,0,1,19.879,53a1.129,1.129,0,0,1-.793-.328l-7.758-7.757A1.122,1.122,0,0,1,12.121,43Z"/></svg>