<svg xmlns="http://www.w3.org/2000/svg" data-name="Artboard 30" viewBox="0 0 64 64"><rect width="2" height="4.803" x="44.523" y="7.477" fill="#444" transform="rotate(-38.615 45.523 9.879)"/><rect width="2" height="4.777" x="48.51" y="4.479" fill="#444" transform="rotate(-38.61 49.51 6.867)"/><rect width="2" height="4.53" x="52.427" y="1.505" fill="#444" transform="rotate(-38.611 53.427 3.77)"/><path fill="#953528" d="M34.044,34.018c2.428,6.136,8.982,5,8.982,5h0s0,3.994-4.993,4c-2.491,0-5.093,1.238-5.075,3.978L33.1,48.1a12.5,12.5,0,0,1-7.54,13.041h0a10.747,10.747,0,0,1-7.532.325h0a24.367,24.367,0,0,1-15.5-15.527h0A10.794,10.794,0,0,1,2.854,38.4h0A12.5,12.5,0,0,1,15.987,31s5.065.163,5.986-9.014c.973-9.7,5.987-6.682,6.99-6-.066.938-3.68,7.859,4.187,11.076Z"/><path fill="#c64635" d="M34.044,34.018l-.894-6.96C25.283,23.841,28.9,16.92,28.963,15.982c-1-.679-6.018-3.694-6.99,6C21.052,31.161,15.987,31,15.987,31A12.5,12.5,0,0,0,2.854,38.4a10.928,10.928,0,0,0-.646,2.152A34.857,34.857,0,0,0,25,49a35.05,35.05,0,0,0,8.094-.951l-.136-1.055c-.018-2.74,2.584-3.975,5.075-3.978,4.993-.008,4.993-4,4.993-4S36.472,40.154,34.044,34.018Z"/><path fill="#444" d="M45.45 15.432L28.472 31.479a1.464 1.464 0 000 2.065l2.035 2.042a1.45 1.45 0 002.057 0l16.728-17.7zM12.622 42.626l8.823 8.838a2.086 2.086 0 010 2.946h0a2.076 2.076 0 01-2.941 0L9.681 45.572a2.086 2.086 0 010-2.946h0A2.076 2.076 0 0112.622 42.626zM20.019 36.529l7.466 7.479a1.765 1.765 0 010 2.493h0A1.759 1.759 0 0125 46.5L17.53 39.022a1.765 1.765 0 010-2.493h0A1.759 1.759 0 0120.019 36.529z"/><path fill="#6d6d6d" d="M62,5.9h0A3.892,3.892,0,0,0,58.112,2h0a3.2,3.2,0,0,0-1.977.685L44.815,11.6a2.025,2.025,0,0,0-.18,3.021l1.637,1.64a5.944,5.944,0,0,0,8.887-.532L61.318,7.87A3.2,3.2,0,0,0,62,5.9Z"/><path d="M13.33 41.921a3.149 3.149 0 00-4.356 0 3.088 3.088 0 000 4.358L17.8 55.117a3.081 3.081 0 004.357-4.357zm7.407 11.784a1.1 1.1 0 01-1.525 0l-8.823-8.838a1.088 1.088 0 010-1.534 1.079 1.079 0 011.526 0l8.823 8.839A1.087 1.087 0 0120.737 53.705zM20.727 35.825h0a2.826 2.826 0 00-3.9 0 2.767 2.767 0 000 3.905l7.465 7.479a2.761 2.761 0 103.9-3.9zM26.776 45.8a.775.775 0 01-1.072 0l-7.466-7.479a.765.765 0 010-1.079.759.759 0 011.074 0l7.465 7.48A.764.764 0 0126.776 45.8z"/><path d="M58.112,1a4.211,4.211,0,0,0-2.595.9L54.1,3.014,52.8,1.377,51.232,2.625l1.3,1.626L50.177,6.1,48.8,4.379,47.238,5.627,48.606,7.34,46.253,9.192,44.806,7.38,43.243,8.628l1.438,1.8-.485.382a3.025,3.025,0,0,0-.269,4.512l.089.089L32.952,25.87c-4.6-2.165-4.234-5.685-3.227-8.877a4.374,4.374,0,0,0,.236-.939,1,1,0,0,0-.438-.9c-.821-.555-2.954-1.742-5.007-.784-1.939.909-3.129,3.438-3.538,7.516-.773,7.7-4.486,8.093-4.935,8.112a13.515,13.515,0,0,0-14.11,8.012,11.793,11.793,0,0,0-.354,8.245A25.362,25.362,0,0,0,17.717,62.421a11.645,11.645,0,0,0,3.637.58,11.814,11.814,0,0,0,4.6-.934,13.52,13.52,0,0,0,8.142-14.089l-.135-1.045a2.411,2.411,0,0,1,.71-1.756,4.83,4.83,0,0,1,3.366-1.159c4.739-.008,5.992-3.276,5.992-5a1,1,0,0,0-1.169-.986c-.225.038-5.366.824-7.62-3.816L49.661,18.95A6.981,6.981,0,0,0,50.48,19c.137,0,.275,0,.413-.013a6.956,6.956,0,0,0,5.053-2.648l6.159-7.856A4.216,4.216,0,0,0,63,5.9,4.9,4.9,0,0,0,58.112,1ZM41.752,40.117h.008c-.39.856-1.353,1.9-3.728,1.9a6.736,6.736,0,0,0-4.783,1.751A4.443,4.443,0,0,0,31.958,47a.82.82,0,0,0,.008.121l.143,1.107a11.515,11.515,0,0,1-6.937,11.995,9.748,9.748,0,0,1-6.832.3A23.362,23.362,0,0,1,3.48,45.635a9.8,9.8,0,0,1,.295-6.848A11.559,11.559,0,0,1,15.955,32c.243.022,6.01.079,7.013-9.913.324-3.234,1.176-5.331,2.4-5.9a2.85,2.85,0,0,1,2.433.271c-.636,2.016-2.331,7.631,3.606,10.88l-3.64,3.44a2.469,2.469,0,0,0,0,3.478L29.8,36.293a2.45,2.45,0,0,0,3.493-.02l.492-.521A9.05,9.05,0,0,0,41.752,40.117Zm-9.9-5.236a.449.449,0,0,1-.64,0L29.181,32.84a.459.459,0,0,1-.022-.633L45.43,16.829l.134.135A6.936,6.936,0,0,0,47.5,18.323ZM60.531,7.254l-6.159,7.854a4.944,4.944,0,0,1-7.392.444l-1.638-1.641a1.025,1.025,0,0,1,.092-1.529l11.32-8.91A2.2,2.2,0,0,1,58.112,3,2.9,2.9,0,0,1,61,5.9,2.214,2.214,0,0,1,60.531,7.254Z"/></svg>