<svg xmlns="http://www.w3.org/2000/svg" viewBox="0 0 69 69"><path fill="#fbfbfb" d="m59.965 5.907 4.813 5.218a3.677 3.677 0 0 1-.194 5.185l-50.39 46.98a3.638 3.638 0 0 1-5.158-.196l-4.813-5.218a3.693 3.693 0 0 1 .194-5.185l50.391-46.98a3.638 3.638 0 0 1 5.157.196z"/><path fill="#ffca0f" d="M46.602 4.719 4.054 44.386a2.455 2.455 0 0 0-.13 3.457l5.87 6.363L55.91 11.213l-5.87-6.364a2.424 2.424 0 0 0-3.437-.13z"/><path fill="#ffa301" d="m55.913 11.208-46.12 43-2.89-3.14 45.99-42.87-3.58-3.88c.27.12.52.3.73.53l5.87 6.36z"/><path fill="#ffed91" d="M51.436 6.145c-.91-.58-2.13-.5-2.96.27l-42.54 39.66a2.45 2.45 0 0 0-.13 3.46l4.37 4.73-.07.07-5.87-6.37c-.91-.99-.85-2.53.13-3.45l42.55-39.67c.98-.92 2.52-.86 3.44.13l1.08 1.17z"/><path fill="#726f76" d="m55.901 11.213 9.18 9.953c.919.995.861 2.533-.129 3.456L22.41 64.284c-.99.923-2.52.865-3.438-.13l-9.18-9.953 46.11-42.988z"/><path fill="#9a9ba5" d="m11.594 55.998 7.94 8.61c-.2-.12-.39-.27-.56-.45l-9.18-9.96 46.11-42.99 1.73 1.88-46.04 42.91z"/><path fill="#e5e5e5" d="m57.495 20.134 5.673 6.15-38.974 36.337-5.674-6.15a2.446 2.446 0 0 1 .13-3.457l35.407-33.01a2.415 2.415 0 0 1 3.438.13z"/><path fill="#d3d3d3" d="m63.163 26.288-38.97 36.33-2.71-2.94 38.85-36.23-3.54-3.84c.26.13.49.31.7.53l5.67 6.15z"/><path fill="#fbfbfb" d="M58.604 21.338c-.91-.53-2.08-.43-2.89.32l-35.41 33.01c-.99.92-1.05 2.46-.13 3.46l4.08 4.43-.06.06-5.67-6.15c-.92-.99-.86-2.53.13-3.45l35.4-33.01c.99-.93 2.52-.87 3.44.13l1.11 1.2z"/><ellipse cx="15.431" cy="41.365" fill="#f0373c" rx="2.232" ry="2.244"/><ellipse cx="29.09" cy="28.631" fill="#f0373c" rx="2.232" ry="2.244"/><ellipse cx="42.749" cy="15.897" fill="#f0373c" rx="2.232" ry="2.244"/><path d="m63.508 18.347 1.59-1.49c1.77-1.65 1.88-4.45.23-6.24l-4.81-5.22a4.389 4.389 0 0 0-6.22-.23l-1.58 1.48-2.13-2.31a3.171 3.171 0 0 0-4.5-.17l-42.54 39.67a3.192 3.192 0 0 0-.17 4.51l2.13 2.31-1.6 1.49c-1.78 1.65-1.88 4.45-.24 6.24l4.82 5.22a4.388 4.388 0 0 0 6.22.23l1.58-1.48 2.13 2.31a3.18 3.18 0 0 0 4.5.17c11.876-11.078 44.594-41.59 42.55-39.67a3.21 3.21 0 0 0 .17-4.51l-2.13-2.31zm-8.19-12.09a2.902 2.902 0 0 1 4.1.16l4.81 5.22a2.92 2.92 0 0 1-.16 4.12l-1.59 1.48-8.75-9.5 1.59-1.48zm-50.84 41.08c-.64-.69-.6-1.77.09-2.4l42.55-39.67a1.67 1.67 0 0 1 2.37.09l5.36 5.81-45.02 41.97c-8.975-9.725 2.862 3.103-5.35-5.8zm9.2 15.4a2.877 2.877 0 0 1-4.09-.15l-4.81-5.22a2.942 2.942 0 0 1 .15-4.13l1.59-1.48 8.75 9.5-1.59 1.48zm10.56-1.18c-10.056-10.898 1.034 1.12-5.17-5.6a1.7 1.7 0 0 1 .09-2.39l2.571-2.402 6.31 6.84-.002.002-3.8 3.55zm4.901-4.572-6.31-6.84 3.766-3.506 6.305 6.835-.002.003-3.759 3.508zm4.862-4.531-6.31-6.84 3.76-3.511 6.31 6.84-.004.004-3.756 3.507zm4.86-4.531-6.309-6.84 3.76-3.51 6.31 6.84-.005.004-3.756 3.506zm2.313-14.883 6.31 6.84-3.757 3.507-.005.004-6.31-6.84 3.762-3.51zm4.86-4.53 6.31 6.84-3.757 3.507h-.006l-6.307-6.837 3.76-3.51zm4.862-4.532 6.31 6.84-3.76 3.511-6.31-6.84 3.76-3.51zm7.41 5.82-6.31-6.84 2.571-2.401a1.658 1.658 0 0 1 2.38.09l5.16 5.6-3.8 3.55zm6.132-5.721-1.23 1.15c-10.042-10.882 1.008 1.094-5.16-5.6-1.197-1.3-3.212-1.396-4.5-.17l-35.41 33.01a3.21 3.21 0 0 0-.17 4.51l5.17 5.61-1.24 1.15a1.656 1.656 0 0 1-2.37-.09c-6.866-7.43-2.53-2.74-8.68-9.4l45.01-41.97 8.67 9.4c.64.68.6 1.76-.09 2.4z"/><path d="M17.214 43.295a2.647 2.647 0 0 0 .141-3.72 2.613 2.613 0 0 0-3.707-.14 2.646 2.646 0 0 0-.14 3.72 2.615 2.615 0 0 0 3.706.14zm-3.035-3.29a1.833 1.833 0 0 1 2.602.1c.691.75.647 1.925-.098 2.62-.732.683-1.9.663-2.601-.098a1.865 1.865 0 0 1 .097-2.622zm16.694-9.444a2.645 2.645 0 0 0 .14-3.72 2.61 2.61 0 0 0-3.707-.14 2.646 2.646 0 0 0-.14 3.72 2.613 2.613 0 0 0 3.707.14zm-3.036-3.29a1.833 1.833 0 0 1 2.602.099c.692.75.648 1.925-.098 2.62a1.832 1.832 0 0 1-2.6-.098 1.864 1.864 0 0 1 .096-2.62zm16.695-9.444a2.645 2.645 0 0 0 .14-3.721c-.94-1.018-2.592-1.18-3.707-.14a2.646 2.646 0 0 0-.14 3.721 2.612 2.612 0 0 0 3.707.14zm-3.035-3.29a1.833 1.833 0 0 1 2.601.098 1.863 1.863 0 0 1-.097 2.621 1.835 1.835 0 0 1-2.602-.098 1.865 1.865 0 0 1 .098-2.621z"/></svg>