<svg xmlns="http://www.w3.org/2000/svg" viewBox="0 0 69 69"><path fill="#c87b2c" d="M15.533 21.728c0 .86.2 1.73.61 2.54l17.3 33.69h4.98l-17.87-35.44c-.32-.64-.08-1.42.54-1.77.21-.12.44-.17.66-.17.45 0 .88.21 1.14.61l2.52 3.89c1.63 2.5 5.32 2.43 6.84-.13 0 0 1.74-2.82 2.25-3.79 3.01-5.64 6.67-8.71 11.39-9.22 1-.12 2.04-.12 3.14 0v-4.87c-.9.02-1.78.07-2.65.17-5.59.62-10.5 3.02-13.8 8.46-.73 1.19-2.7 4.89-2.7 4.89-.51.92-1.8 1.02-2.44.18l-1.81-2.4a5.633 5.633 0 0 0-7.52-1.35 5.581 5.581 0 0 0-2.58 4.71z"/><path fill="#d88f52" d="m18.356 24.265 17.3 33.69h-2.21l-17.3-33.69a5.62 5.62 0 0 1-.61-2.54c0-1.85.92-3.65 2.58-4.71a5.542 5.542 0 0 1 4.11-.77c-.66.13-1.3.39-1.9.77a5.581 5.581 0 0 0-2.58 4.71c0 .86.2 1.73.61 2.54zm30.2-12.37c.16-.02.32-.03.48-.03v.07c-.16-.02-.32-.03-.48-.04z"/><path fill="#c87b2c" d="M41.083 57.958h4.59c.08 0 .15 0 .23.01l5.64-51.99c.16-1.47-1-2.76-2.49-2.76-.64 0-1.23.24-1.67.64-.44.4-.74.96-.81 1.59l-.19 1.79-.49 4.7-4.81 46.02z"/><path fill="#d88f52" d="M45.676 57.955h.23v.01c-.08-.01-.15-.01-.23-.01zm4.33-54.55c-.26.11-.5.26-.71.45-.44.4-.74.96-.81 1.59l-.19 1.79-.49 4.7-4.81 46.02h-1.91l4.81-46.02.49-4.7.19-1.79c.07-.63.37-1.19.81-1.59a2.478 2.478 0 0 1 2.62-.45z"/><path fill="#6b6c6b" d="M34.368 57.96h11.3c4.308 0 7.8 3.475 7.8 7.762h-26.9c0-4.287 3.492-7.761 7.8-7.761z"/><path fill="#494949" d="M53.466 65.725h-5.52c0-4.29-3.49-7.76-7.8-7.76h5.52c4.31 0 7.8 3.47 7.8 7.76z"/><path fill="#8a8c8a" d="M37.306 57.965c-4.31 0-7.8 3.47-7.8 7.76h-2.94c0-4.29 3.49-7.76 7.8-7.76h2.94z"/><path d="m46.73 57.283 5.56-51.22c.464-4.223-6.037-4.92-6.46-.69l-.13 1.2c-6.11.82-10.74 3.76-13.76 8.73-.73 1.2-2.64 4.78-2.71 4.92a.712.712 0 0 1-1.19.09l-1.81-2.4c-1.99-2.64-5.74-3.31-8.52-1.53a6.326 6.326 0 0 0-2.23 8.23l16.86 32.84c-3.74.91-6.52 4.27-6.52 8.27 0 .41.33.75.75.75h26.9c.41 0 .75-.34.75-.75 0-4.33-3.28-7.92-7.49-8.44zm-20.51-30.37c.78.51 1.71.78 2.68.75.12 0 .24-.01.36-.03h.004l-.859 8.78-2.61-5.177.418-4.328.007.005zm4.6.3c.85-.39 1.57-1.04 2.07-1.87.05-.08.8-1.29 1.45-2.39l.003-.005-2.059 21.159-2.616-5.19 1.144-11.7.008-.004zm8.878-11.737-3.532 36.33-2.619-5.193 2.613-26.845c1.107-1.772 2.274-3.198 3.53-4.285l.008-.007zM24.53 28.753l-3.31-6.57a.597.597 0 0 1 .24-.78.596.596 0 0 1 .8.19c3.412 5.263 2.354 3.73 2.576 3.965l-.306 3.195zm14.35 28.46-1.452-2.884 3.895-40.061c.51-.253 1.542-1.031 3.727-1.445l-4.64 44.39h-1.53zm8.44-51.68c.27-2.315 3.708-1.872 3.48.36l-5.57 51.31h-3.32l5.41-51.67zm-30.51 18.4c-1.16-2.353-.334-4.98 1.71-6.28 2.13-1.37 4.99-.85 6.51 1.17l1.82 2.4a2.208 2.208 0 0 0 3.69-.28c.02-.04 1.97-3.7 2.68-4.86 2.76-4.53 6.79-7.15 12.32-7.97l-.33 3.17c-5.154.745-7.574 4.021-10.45 7.93-.063.1-3.1 5.25-3.15 5.35-.947 1.57-2.829 2.262-5.34.43-.266-.428 1.013 1.547-2.75-4.21-.58-.9-1.88-1.21-2.8-.69-.97.55-1.34 1.76-.84 2.76 6.387 12.65 11.436 22.675 17.32 34.35h-3.3l-17.09-33.27zm10.55 41.04c.38-3.52 3.38-6.26 7.01-6.26h11.3c3.63 0 6.63 2.74 7.01 6.26H27.36z"/></svg>