<svg xmlns="http://www.w3.org/2000/svg" data-name="Artboard 30" viewBox="0 0 64 64"><path fill="#f6f8ff" d="M38.119,20.533l1.414-1.414-4.826-4.826a1,1,0,0,0-1.414,0l-11,11a1,1,0,0,0,0,1.414l4.826,4.826,1.414-1.414L24.414,26,28.5,21.914l4.119,4.119,1.414-1.414L29.914,20.5,34,16.414Z"/><rect width="14.142" height="2" x="49.929" y="6" fill="#393a3a" transform="rotate(-45 57 7)"/><rect width="5.288" height="24.68" x="8.856" y="40.16" fill="#aaadb9" rx="2.644" transform="rotate(-45 11.5 52.5)"/><path fill="#444" d="M6.461,43.723a21.729,21.729,0,0,0,11.9-6.087L43,13l4.412-2.647,6.235,6.235L51,21,26.364,45.636a21.732,21.732,0,0,0-6.087,11.9Z"/><circle cx="36" cy="28" r="2" fill="#7a7b7d"/><rect width="4.159" height="15.248" x="49.921" y="4.376" fill="#aaadb9" rx="2.079" transform="rotate(-45 52 12)"/><polygon fill="#393a3a" points="51 21 43 13 47.412 10.353 53.647 16.588 51 21"/><path fill="#f6f8ff" d="M34,47a1,1,0,0,1-.707-.293L25.71,39.124l1.414-1.414L34,44.586,47.586,31,40.71,24.124l1.414-1.414,7.583,7.583a1,1,0,0,1,0,1.414l-15,15A1,1,0,0,1,34,47Z"/><rect width="2" height="10.724" x="34.209" y="31.847" fill="#f6f8ff" transform="rotate(-45 35.208 37.208)"/><path fill="#393a3a" d="M14.372,40.786l8.842,8.842c.354-.576.745-1.131,1.153-1.675l-8.32-8.32C15.5,40.041,14.948,40.432,14.372,40.786Z"/><circle cx="26" cy="38" r="2" fill="#7a7b7d"/><circle cx="31" cy="33" r="2" fill="#7a7b7d"/><circle cx="41" cy="23" r="2" fill="#7a7b7d"/><path d="M33,28a3,3,0,1,0,3-3A3,3,0,0,0,33,28Zm4,0a1,1,0,1,1-1-1A1,1,0,0,1,37,28Z"/><path d="M61.293,1.294,53.47,9.117,50.256,5.9A3.079,3.079,0,0,0,45,8.081a3.047,3.047,0,0,0,.812,2.067l-3.326,2a1,1,0,0,0-.193.15L37.5,17.087l-2.793-2.793a1,1,0,0,0-1.414,0l-11,11a1,1,0,0,0,0,1.414L25.086,29.5l-7.429,7.43A20.6,20.6,0,0,1,6.708,42.655a3.746,3.746,0,0,0-4.641.414,3.645,3.645,0,0,0,0,5.154L15.779,61.934a3.641,3.641,0,0,0,5.569-4.648,20.588,20.588,0,0,1,5.723-10.941L30,43.415l3.293,3.293a1,1,0,0,0,1.414,0l15-15a1,1,0,0,0,0-1.414L46.414,27l5.293-5.293a.993.993,0,0,0,.15-.192l2-3.327A3.074,3.074,0,0,0,58.1,13.745l-3.214-3.214,7.823-7.823ZM34,16.415,36.086,18.5,32,22.587,29.914,20.5ZM24.414,26,28.5,21.915,30.586,24,26.5,28.087ZM8.481,44.329A22.527,22.527,0,0,0,15.1,41.512l7.393,7.393a22.527,22.527,0,0,0-2.817,6.616ZM19.518,60.52a1.684,1.684,0,0,1-2.325,0L3.481,46.809h0a1.644,1.644,0,0,1,0-2.326,1.684,1.684,0,0,1,2.325,0L19.518,58.194a1.644,1.644,0,0,1,0,2.326ZM34,44.587,31.414,42,35,38.415,37.586,41ZM47.586,31,39,39.587,36.414,37,45,28.415ZM41,24a1,1,0,1,1,1-1A1,1,0,0,1,41,24Zm0-4a3,3,0,0,0,0,6,2.951,2.951,0,0,0,1.285-.3l1.3,1.3L35,35.587l-1.3-1.3A2.951,2.951,0,0,0,34,33a3,3,0,1,0-3,3,2.951,2.951,0,0,0,1.285-.3l1.3,1.3L30,40.587l-1.3-1.3A2.951,2.951,0,0,0,29,38a3,3,0,1,0-3,3,2.951,2.951,0,0,0,1.285-.3l1.3,1.3-2.929,2.93a22.885,22.885,0,0,0-2,2.31l-6.892-6.893a22.875,22.875,0,0,0,2.31-2L43,14.415,49.586,21,45,25.587l-1.3-1.3A2.951,2.951,0,0,0,44,23,3,3,0,0,0,41,20ZM31,34a1,1,0,1,1,1-1A1,1,0,0,1,31,34Zm-5,5a1,1,0,1,1,1-1A1,1,0,0,1,26,39ZM50.8,19.388,44.613,13.2l2.644-1.587,5.131,5.131ZM57,15.922a1.079,1.079,0,0,1-1.842.764L47.316,8.844a1.079,1.079,0,0,1,1.526-1.527l7.842,7.842A1.072,1.072,0,0,1,57,15.922Z"/></svg>