<svg xmlns="http://www.w3.org/2000/svg" viewBox="0 0 69 69"><path fill="#e5e5e5" d="m55.065 60.797-3.18-2.427c5.163-6.764 8.37-15.634 8.37-23.147C60.255 21.022 48.7 9.469 34.5 9.469S8.746 21.022 8.746 35.223c0 7.513 3.207 16.383 8.37 23.147l-3.18 2.427c-5.669-7.428-9.19-17.227-9.19-25.574 0-16.407 13.347-29.754 29.754-29.754s29.755 13.347 29.755 29.754c0 8.347-3.522 18.146-9.19 25.574z"/><path fill="#fbfbfb" d="M56.326 15.027c-5.32-5.01-12.48-8.08-20.35-8.08-16.41 0-29.76 13.34-29.76 29.75 0 7.74 3.02 16.72 7.98 23.9l-.26.2c-5.67-7.43-9.19-17.23-9.19-25.57 0-16.41 13.35-29.76 29.75-29.76 8.62 0 16.39 3.68 21.83 9.56z"/><path fill="#59b9ff" d="m45.844 42.526-7.67 19.709c-.322.829.088 1.763.918 2.086l2.846 1.107a1.611 1.611 0 0 0 2.086-.917l7.67-19.709a1.611 1.611 0 0 0-.917-2.086l-2.847-1.108a1.611 1.611 0 0 0-2.086.918z"/><path fill="#489cd5" d="m51.696 44.807-7.67 19.7c-.32.83-1.26 1.24-2.09.92l-2.84-1.11a1.607 1.607 0 0 1-.92-2.08l.23-.6 2.35.91c.83.32 1.76-.09 2.09-.92l7.43-19.1.5.19c.83.32 1.24 1.26.92 2.09z"/><path fill="#b4dff9" d="M41.98 52.46c1.141 0 2.165-.7 2.579-1.763l2.907-7.47c.32-.83 1.25-1.24 2.08-.92l1.62.63c-.11-.09-.25-.16-.39-.22l-2.85-1.11c-.83-.32-1.76.09-2.08.92L41.98 52.46z"/><path fill="#f0373c" d="m51.665 44.96-7.556 19.416a5.95 5.95 0 0 0 7.704-3.388l3.24-8.325a5.95 5.95 0 0 0-3.388-7.704z"/><path fill="#fe5c6e" d="M54.326 47.027a5.71 5.71 0 0 0-1.31-.72l-7.18 18.46c-.58-.04-1.16-.17-1.73-.39l7.56-19.42c1.11.43 2.02 1.17 2.66 2.07z"/><path fill="#6b6c6b" d="M55.207 52.267a4.472 4.472 0 0 1 2.546 5.789l-.305.782a4.472 4.472 0 0 1-5.79 2.546l3.549-9.117z"/><path fill="#ffca0f" d="M16.097 18.485c.964 0 1.9-.345 2.62-.987 4.198-3.746 9.727-6.03 15.783-6.03 6.057 0 11.586 2.284 15.784 6.03a3.93 3.93 0 0 0 2.62.987c3.635 0 5.42-4.505 2.712-6.93C50.006 6.531 42.609 3.47 34.5 3.47c-8.108 0-15.505 3.062-21.115 8.086-2.708 2.425-.923 6.93 2.711 6.93z"/><path fill="#ffa301" d="M56.926 14.437c0 2.05-1.6 4.05-4.02 4.05-.97 0-1.9-.35-2.62-.99-4.2-3.74-9.73-6.03-15.79-6.03-6.05 0-11.58 2.29-15.78 6.03-.72.64-1.65.99-2.62.99-2.99 0-4.73-3.06-3.74-5.49.55 1.44 1.91 2.58 3.74 2.58.97 0 1.9-.34 2.62-.99 4.2-3.74 9.73-6.02 15.78-6.02 6.06 0 11.59 2.28 15.79 6.02.72.65 1.65.99 2.62.99 1.83 0 3.19-1.14 3.74-2.58.19.46.28.95.28 1.44z"/><path fill="#ffed91" d="M56.306 12.367c-5.5-4.59-12.56-7.35-20.26-7.35-8.11 0-15.5 3.06-21.11 8.09-1.52 1.36-1.63 3.38-.78 4.88-2.23-1.22-2.94-4.49-.77-6.43 5.61-5.03 13.01-8.09 21.11-8.09 8.11 0 15.51 3.06 21.12 8.09.28.25.51.52.69.81z"/><path fill="#59b9ff" d="m23.157 42.526 7.67 19.709a1.611 1.611 0 0 1-.918 2.086l-2.847 1.107a1.611 1.611 0 0 1-2.086-.917l-7.67-19.709a1.611 1.611 0 0 1 .918-2.086l2.847-1.108a1.611 1.611 0 0 1 2.086.918z"/><path fill="#489cd5" d="m17.305 44.807 7.67 19.7c.32.83 1.26 1.24 2.09.92l2.84-1.11c.83-.32 1.24-1.25.92-2.08l-.23-.6-2.35.91c-.83.32-1.76-.09-2.09-.92l-7.43-19.1-.5.19c-.83.32-1.24 1.26-.92 2.09z"/><path fill="#b4dff9" d="M27.02 52.46c-1.14 0-2.164-.7-2.578-1.763l-2.907-7.47a1.606 1.606 0 0 0-2.08-.92l-1.62.63c.11-.09.25-.16.39-.22l2.85-1.11c.83-.32 1.76.09 2.08.92l3.865 9.934z"/><path fill="#f0373c" d="m17.336 44.96 7.556 19.416a5.95 5.95 0 0 1-7.704-3.388l-3.24-8.325a5.95 5.95 0 0 1 3.388-7.704z"/><path fill="#fe5c6e" d="M14.675 47.027c.39-.29.83-.53 1.31-.72l7.18 18.46c.58-.04 1.16-.17 1.73-.39l-7.56-19.42a5.864 5.864 0 0 0-2.66 2.07z"/><path fill="#6b6c6b" d="M13.794 52.267a4.472 4.472 0 0 0-2.546 5.789l.305.782a4.472 4.472 0 0 0 5.789 2.546l-3.548-9.117z"/><path d="M57.59 15.315c.31-1.6-.22-3.2-1.47-4.32a32.363 32.363 0 0 0-21.62-8.28c-7.98 0-15.65 2.94-21.62 8.28-1.25 1.12-1.79 2.72-1.47 4.32A30.344 30.344 0 0 0 4 35.225c0 6.82 2.31 14.6 6.2 21.31.01.59.12 1.2.35 1.79l.3.79c.997 2.52 3.702 3.808 6.14 3.17a6.757 6.757 0 0 0 5.75 3.25c.6 0 1.21-.08 1.81-.26a2.345 2.345 0 0 0 2.78.85l2.85-1.11a2.351 2.351 0 0 0 1.34-3.05l-7.66-19.71a2.368 2.368 0 0 0-3.06-1.35l-2.85 1.11a2.36 2.36 0 0 0-1.48 2.52 6.65 6.65 0 0 0-3.62 5.15c-2.14-4.79-3.35-9.89-3.35-14.46 0-6.11 2.19-11.71 5.84-16.05a4.704 4.704 0 0 0 3.88-1.12c4.22-3.76 9.64-5.84 15.28-5.84 5.64 0 11.07 2.08 15.28 5.84a4.704 4.704 0 0 0 3.88 1.12c3.65 4.34 5.84 9.94 5.84 16.05 0 4.57-1.21 9.67-3.35 14.46a6.65 6.65 0 0 0-3.62-5.15c.14-1.05-.45-2.12-1.48-2.52l-2.85-1.11c-.59-.22-1.23-.21-1.81.04-.57.26-1.02.72-1.24 1.31l-7.67 19.71c-.48 1.21.13 2.58 1.34 3.05l2.85 1.11c.992.39 2.173.053 2.78-.85 2.75.825 5.95-.334 7.56-2.99 2.419.633 5.136-.63 6.14-3.17l.3-.79c.23-.59.35-1.21.36-1.81 3.89-6.71 6.19-14.47 6.19-21.29 0-7.6-2.79-14.57-7.41-19.91zm-45.34 43.25-.3-.78c-.58-1.465-.187-3.34 1.44-4.48l2.95 7.58a3.712 3.712 0 0 1-4.09-2.32zm6.25-15.15 2.84-1.11c.448-.18.936.06 1.12.49l7.67 19.71a.876.876 0 0 1-.49 1.12l-2.85 1.1a.844.844 0 0 1-1.11-.49l-7.67-19.7a.858.858 0 0 1 .49-1.12zm-3.77 5a5.222 5.222 0 0 1 2.2-2.44l6.97 17.92c-2.47.57-5.07-.74-6.01-3.18-3.331-8.547-3.195-8.205-3.24-8.32-.51-1.3-.48-2.71.08-3.98zM8 35.225c0 5.38 1.61 11.43 4.39 16.95-.77.55-1.35 1.29-1.72 2.12-3.27-6.12-5.17-12.99-5.17-19.07 0-6.94 2.44-13.31 6.52-18.3.44.74 1.07 1.34 1.81 1.73A26.348 26.348 0 0 0 8 35.225zm42.78-18.29a24.412 24.412 0 0 0-32.56 0c-1.471 1.334-4.19 1.055-5.14-1.24-.01-.02-.02-.05-.03-.07-.45-1.198-.215-2.575.84-3.51 5.68-5.09 13-7.9 20.61-7.9s14.93 2.81 20.62 7.9c1.048.947 1.277 2.318.83 3.51-.01.02-.02.05-.03.07-.93 2.246-3.623 2.616-5.14 1.24zm-8.57 47.79-2.85-1.1a.882.882 0 0 1-.49-1.12l7.67-19.71c.09-.21.25-.38.46-.47.11-.05.23-.08.35-.08.1 0 .21.02.31.06l2.84 1.11c.45.17.67.67.49 1.12l-7.66 19.7c-.18.45-.68.67-1.12.49zm8.9-4.01c-.94 2.44-3.54 3.75-6.01 3.18l6.97-17.91a5.203 5.203 0 0 1 2.28 6.41l-3.24 8.32zm5.94-2.93-.3.78c-.683 1.763-2.512 2.62-4.09 2.32l2.95-7.58c1.7 1.19 1.984 3.107 1.44 4.48zm1.29-3.5c-.37-.83-.96-1.56-1.73-2.11 2.78-5.52 4.39-11.57 4.39-16.95 0-6.27-2.18-12.03-5.83-16.57.74-.39 1.37-.99 1.81-1.73a28.804 28.804 0 0 1 6.52 18.3c0 6.08-1.9 12.94-5.16 19.06z"/></svg>