<svg xmlns="http://www.w3.org/2000/svg" id="Layer_1" enable-background="new 0 0 69 69" viewBox="0 0 69 69"><circle cx="24.981" cy="5.759" r="1.224" fill="#6b6c6b"/><circle cx="28.787" cy="5.759" r="1.224" fill="#6b6c6b"/><circle cx="32.594" cy="5.759" r="1.224" fill="#6b6c6b"/><circle cx="36.401" cy="5.759" r="1.224" fill="#6b6c6b"/><circle cx="40.208" cy="5.759" r="1.224" fill="#6b6c6b"/><circle cx="44.014" cy="5.759" r="1.224" fill="#6b6c6b"/><path fill="#c87b2c" d="M48.28949,65.89441H21.49388c-1.35108,0-2.31343-1.31193-1.90768-2.60064l3.18118-10.10363h23.45857
			l3.92459,9.97182C50.66699,64.47417,49.69968,65.89441,48.28949,65.89441z"/><path fill="#9e5729" d="M48.29099,65.89165H43.491c1.40997,0,2.38-1.42004,1.85999-2.73004L41.431,53.19165h4.78998l3.92999,9.96997
			C50.67099,64.47161,49.70102,65.89165,48.29099,65.89165z"/><path fill="#d88f52" d="M23.89096,65.89165H21.491c-1.35004,0-2.31-1.31-1.90002-2.60003l3.17999-10.09998h2.40002l-3.19,10.09998
			C21.58097,64.58166,22.54099,65.89165,23.89096,65.89165z"/><rect width="31.097" height="3.217" x="18.948" y="11.222" fill="#f0373c"/><rect width="31.1" height="1.46" x="18.961" y="11.212" fill="#fe5c6e"/><path fill="#ffca0f" d="M59.54576,39.03143c-0.24863,1.71204-0.73644,3.37634-1.41555,4.95447
			c-1.35816,3.14674-3.42415,5.93008-6.03527,8.20646c-2.6207,2.27638-5.63358,3.92147-8.76117,5.05009
			c-0.03016,0.01089-0.06033,0.02172-0.09052,0.03251c-5.63417,2.01403-11.85482,2.01351-17.4887-0.00137
			c-0.0289-0.01033-0.05779-0.02071-0.08668-0.03114c-3.12765-1.12862-6.14047-2.7737-8.77074-5.05009
			c-2.60161-2.27639-4.67711-5.05972-6.03527-8.20646c-0.66954-1.57813-1.15734-3.24242-1.41555-4.95447
			c-0.26784-1.71205-0.24869-3.48154-0.02872-5.08839c0.43999-3.26151,1.5877-5.99704,2.78328-8.44558
			c1.20515-2.44854,2.48684-4.6101,3.51026-6.78129s1.80767-4.3328,1.95116-6.6187c0.15307-2.27639-0.27735-4.64845-1.69296-6.5518
			l1.02342-1.00427c2.18076,1.77901,3.45287,4.55277,3.9311,7.33605c0.51647,2.83115,0.19125,5.74835-0.35394,8.41686
			c-0.55471,2.67814-1.32944,5.20316-1.83639,7.5465c-0.52604,2.34334-0.79388,4.58149-0.55477,6.43703
			c0.12435,0.93731,0.34437,1.74071,0.69826,2.50592c0.33474,0.76516,0.79382,1.49208,1.3295,2.16156
			c1.06166,1.33907,2.48678,2.44854,3.99801,3.17546c2.96501,1.40603,6.60253,1.04258,10.29148,1.04257
			c3.68901-0.00001,7.33611,0.36346,10.29154-1.04257c1.51123-0.72692,2.93635-1.83639,4.00758-3.17546
			c0.53562-0.66948,0.98518-1.3964,1.3295-2.16156c0.34431-0.76522,0.56434-1.56861,0.68868-2.50592
			c0.23912-1.85554-0.02872-4.09369-0.54519-6.43703c-0.51653-2.34334-1.29126-4.86836-1.84597-7.5465
			c-0.54519-2.66851-0.87041-5.58571-0.35395-8.41686c0.47823-2.78328,1.75034-5.55704,3.93111-7.33605l1.03294,1.00427
			c-1.42512,1.90335-1.85554,4.27542-1.70247,6.5518c0.14344,2.2859,0.92774,4.44751,1.95116,6.6187
			c1.02342,2.17119,2.30511,4.33274,3.51977,6.78129c1.18606,2.44854,2.33377,5.18407,2.78334,8.44558
			C59.79445,35.54989,59.8136,37.31938,59.54576,39.03143z"/><path fill="#ffa301" d="M59.54099,39.03161c-0.23999,1.71002-0.72998,3.38-1.40997,4.95001
			c-1.36005,3.15002-3.42004,5.92999-6.04004,8.21002c-2.62,2.27997-5.63,3.91998-8.76001,5.04999
			c-0.02997,0.01001-0.06,0.02002-0.08997,0.02997c-3.52002,1.26001-7.27002,1.74005-10.96002,1.42004
			c2.20001-0.20001,4.38-0.67004,6.48004-1.42004c0.02997-0.00995,0.06-0.01996,0.08997-0.02997
			c3.13-1.13,6.14001-2.77002,8.76001-5.04999c2.60999-2.28003,4.67999-5.06,6.02997-8.21002
			c0.68005-1.57001,1.17004-3.23999,1.42004-4.95001c0.26996-1.70996,0.25-3.47998,0.03998-5.08997
			c-0.45001-3.26001-1.59998-6-2.78998-8.44c-1.21002-2.45001-2.48999-4.60999-3.52002-6.79004
			c-0.33002-0.70996-0.64001-1.41998-0.90997-2.12994c-0.13-1.55005-0.10004-3.14002,0.19-4.70001
			c0.47998-2.79004,1.75-5.56,3.92999-7.34003l1.02997,1c-1.41998,1.91003-1.84998,4.28003-1.70001,6.56
			c0.14001,2.28003,0.93005,4.44,1.95001,6.60999c1.02002,2.18005,2.31,4.34003,3.52002,6.79004
			c1.19,2.44,2.33002,5.17999,2.77997,8.44C59.79099,35.55163,59.811,37.32165,59.54099,39.03161z"/><path fill="#ffed91" d="M28.01102,57.2716c2.44995,0.88,5.01996,1.37006,7.59997,1.49005
			c-3.33002,0.13995-6.69-0.35004-9.85998-1.49005c-0.03003-0.00995-0.04999-0.01996-0.08002-0.02997
			c-3.13-1.13-6.14001-2.77002-8.77002-5.04999c-2.60999-2.28003-4.67999-5.06-6.03998-8.21002
			c-0.66998-1.57001-1.15997-3.23999-1.40997-4.95001c-0.27002-1.70996-0.25-3.47998-0.03003-5.08997
			c0.44-3.26001,1.58002-6,2.78003-8.44c1.20996-2.45001,2.48999-4.60999,3.50995-6.79004
			c1.02002-2.16998,1.81-4.32996,1.95001-6.60999c0.15002-2.27997-0.27997-4.64996-1.69-6.56l1.02002-1
			c0.79999,0.65002,1.46997,1.44,2.02997,2.31c0.78003,1.63,1.02002,3.47003,0.90002,5.25
			c-0.14001,2.28003-0.92999,4.44-1.95001,6.60999c-1.01996,2.18005-2.31,4.34003-3.51001,6.79004
			c-1.19995,2.44-2.33997,5.17999-2.77997,8.44c-0.22003,1.60999-0.23999,3.38,0.02002,5.08997
			c0.25995,1.71002,0.75,3.38,1.41998,4.95001c1.35999,3.15002,3.42999,5.92999,6.02997,8.21002
			c2.64001,2.27997,5.65002,3.91998,8.78003,5.04999C27.95102,57.25164,27.98099,57.26165,28.01102,57.2716z"/><circle cx="13.802" cy="7.711" r="4.599" fill="#e5e5e5"/><circle cx="55.192" cy="7.946" r="4.599" fill="#e5e5e5"/><path fill="#fbfbfb" d="M17.681 5.25164c-.70001-.44-1.54004-.70001-2.44-.70001-2.53998 0-4.60004 2.06-4.60004 4.59998 0 .91003.26001 1.75.72003 2.46002-1.29999-.82001-2.15997-2.26001-2.15997-3.90002 0-2.53998 2.06-4.59998 4.59998-4.59998C15.431 3.11163 16.871 3.9616 17.681 5.25164zM59.09097 5.50164c-.70996-.46002-1.54999-.72003-2.45996-.72003-2.54004 0-4.60004 2.06-4.60004 4.60004 0 .89996.26001 1.73999.70001 2.44-1.28998-.81-2.14001-2.25-2.14001-3.88 0-2.54004 2.06-4.60004 4.60004-4.60004C56.83096 3.34161 58.27097 4.20166 59.09097 5.50164z"/><path d="M52.095,12.29001c0.88,0.63,1.95001,1,3.10004,1c2.94995,0,5.34998-2.40002,5.34998-5.33997
		c0-2.95001-2.40002-5.35004-5.34998-5.35004c-1.28003,0-2.46002,0.46002-3.39001,1.22003h-0.01001
		c-0.8012,0.2667-3.19323,2.80734-4.20001,6.64996h-3.19V7.32004c0.70001-0.17004,1.22003-0.80005,1.22003-1.56
		c0-0.89001-0.72003-1.62006-1.60999-1.62006c-0.89001,0-1.61005,0.73004-1.61005,1.62006c0,0.75995,0.52002,1.38995,1.22003,1.56
		V10.47H40.595V7.32004c0.70001-0.17004,1.23004-0.80005,1.23004-1.56c0-0.89001-0.73004-1.62006-1.62006-1.62006
		c-0.88995,0-1.60999,0.73004-1.60999,1.62006c0,0.75995,0.52002,1.38995,1.22003,1.56V10.47h-3.02002V7.32004
		c0.70001-0.17004,1.22003-0.80005,1.22003-1.56c0-0.89001-0.72003-1.62006-1.61005-1.62006c-0.88995,0-1.62,0.73004-1.62,1.62006
		c0,0.75995,0.53003,1.38995,1.23004,1.56V10.47h-3.03003V7.32004c0.70001-0.17004,1.21997-0.80005,1.21997-1.56
		c0-0.89001-0.71997-1.62006-1.60999-1.62006s-1.60999,0.73004-1.60999,1.62006c0,0.75995,0.52002,1.38995,1.21997,1.56V10.47
		h-3.02997V7.32004c0.70001-0.17004,1.22998-0.80005,1.22998-1.56c0-0.89001-0.72998-1.62006-1.62-1.62006
		s-1.60999,0.73004-1.60999,1.62006c0,0.75995,0.52002,1.38995,1.21997,1.56V10.47h-3.01996V7.32004
		c0.70001-0.17004,1.21997-0.80005,1.21997-1.56c0-0.89001-0.71997-1.62006-1.60999-1.62006s-1.62,0.73004-1.62,1.62006
		c0,0.75995,0.52997,1.38995,1.22998,1.56V10.47h-3.20001c-0.94082-3.65705-3.82958-8.10999-7.58997-8.10999
		c-2.95001,0-5.35004,2.40002-5.35004,5.34998c0,2.95001,2.40002,5.35004,5.35004,5.35004c1.15997,0,2.23999-0.37,3.10999-1.01001
		c-0.28307,4.4349-3.12793,8.51663-5.39001,13.12C8.37928,31.59834,7.28317,37.53268,10.17502,44.28
		c2.16824,5.03844,6.07252,9.11184,10.92999,11.71002l-2.22998,7.08002c-0.27002,0.83997-0.12,1.73999,0.39996,2.44995
		c0.53003,0.71002,1.33002,1.12,2.22003,1.12H48.285c0.91003,0,1.76001-0.43994,2.28003-1.19995
		c0.51001-0.75,0.62-1.71002,0.27997-2.55005l-2.75-6.98999c1.63-0.90997,3.13-1.95996,4.48999-3.13995
		c2.74005-2.39001,4.84003-5.24005,6.23004-8.48004C64.87041,30.34401,52.82401,21.08525,52.095,12.29001z M43.18503,5.76004
		c0-0.46002,0.37-0.84003,0.83002-0.84003c0.45996,0,0.82996,0.38,0.82996,0.84003c0,0.45996-0.37,0.82996-0.82996,0.82996
		C43.55502,6.59,43.18503,6.22,43.18503,5.76004z M39.37503,5.76004c0-0.46002,0.37-0.84003,0.82996-0.84003
		c0.46002,0,0.84003,0.38,0.84003,0.84003c0,0.45996-0.38,0.82996-0.84003,0.82996C39.74503,6.59,39.37503,6.22,39.37503,5.76004z
		 M35.56503,5.76004c0-0.46002,0.38-0.84003,0.83997-0.84003c0.46002,0,0.83002,0.38,0.83002,0.84003
		c0,0.45996-0.37,0.82996-0.83002,0.82996C35.94504,6.59,35.56503,6.22,35.56503,5.76004z M31.75504,5.76004
		c0-0.46002,0.38-0.84003,0.83997-0.84003c0.46002,0,0.83002,0.38,0.83002,0.84003c0,0.45996-0.37,0.82996-0.83002,0.82996
		C32.13504,6.59,31.75504,6.22,31.75504,5.76004z M27.95499,5.76004c0-0.46002,0.37006-0.84003,0.83002-0.84003
		c0.46002,0,0.84003,0.38,0.84003,0.84003c0,0.45996-0.38,0.82996-0.84003,0.82996C28.32504,6.59,27.95499,6.22,27.95499,5.76004z
		 M24.14499,5.76004c0-0.46002,0.38-0.84003,0.84003-0.84003s0.83002,0.38,0.83002,0.84003c0,0.45996-0.37,0.82996-0.83002,0.82996
		S24.14499,6.22,24.14499,5.76004z M55.19504,4.10001c2.12,0,3.84998,1.72003,3.84998,3.85004
		c0,2.12-1.72998,3.83997-3.84998,3.83997c-2.19985,0-3.85004-1.81194-3.85004-3.83997
		C51.345,5.79794,53.08633,4.10001,55.19504,4.10001z M47.285,11.97c-0.08997,0.56-0.15997,1.13-0.19,1.72003
		c-15.65515,0-9.66754,0-25.20001,0c-0.02997-0.59003-0.09998-1.16003-0.19-1.72003C23.47307,11.97,47.61026,11.97,47.285,11.97z
		 M48.20499,38.48001c-0.96997,1.22003-2.29999,2.27002-3.73999,2.96002c-0.01996,0.01001-0.03998,0.01996-0.06,0.01996V15.19003
		h2.65002C47.22744,24.33779,53.11012,32.4208,48.20499,38.48001z M21.93503,15.19003H24.595V41.47
		c-0.01996-0.01001-0.04999-0.01996-0.07001-0.02997c-2.76939-1.327-5.19101-3.98784-5.59998-7.26001
		C18.23786,29.01047,21.80497,22.03305,21.93503,15.19003z M25.37503,15.19003h3.01996v27.17999
		c-1.06-0.08002-2.07996-0.26001-3.01996-0.59003V15.19003z M29.17502,15.19003h3.02997v27.25
		c-1.03998,0.01996-2.06,0.02997-3.02997-0.02002V15.19003z M32.98502,15.19003h3.03003v27.25
		c-1.01001-0.03003-2.03003-0.03003-3.03003,0V15.19003z M36.79501,15.19003h3.02002v27.22998
		c-0.97003,0.04999-1.98004,0.03998-3.02002,0.02002V15.19003z M40.595,15.19003h3.03003V41.78
		c-0.95001,0.33002-1.96002,0.51001-3.03003,0.60004V15.19003z M13.80502,11.56003c-2.13,0-3.85004-1.73004-3.85004-3.85004
		s1.72003-3.84998,3.85004-3.84998c2.0927,0,3.84998,1.71693,3.84998,3.84998C17.655,9.81304,15.9241,11.56003,13.80502,11.56003z
		 M49.45499,63.44003c0.15002,0.38995,0.10004,0.81-0.12994,1.15997c-0.24005,0.35004-0.62006,0.53998-1.04004,0.53998H21.49503
		c-0.40002,0-0.77002-0.17999-1.01001-0.50995c-0.23999-0.32001-0.29999-0.73004-0.17999-1.11005l2.14996-6.82996
		c3.77798,1.86938,7.85004,2.84998,12.05005,2.84998c4.23018,0,8.33819-0.99852,12.26001-2.94L49.45499,63.44003z
		 M57.44504,43.69003c-1.31,3.02997-3.28003,5.69995-5.84003,7.94c-13.37761,11.6377-33.91376,6.31485-40.04999-7.94
		c-2.68674-6.25584-1.66647-11.77855,1.32001-17.86005c2.33834-4.76002,6.11054-10.29844,5.53998-15.42999
		c0.35004-0.57996,0.58002-1.21997,0.66998-1.90997c0.51153,1.05699,0.88495,2.29556,1.09003,3.47998
		c0.01001,0.01001,0.01001,0.03003,0.01001,0.04004c0.99359,5.36645-1.22812,11.15843-2.17999,15.66998
		c-0.61005,2.71997-0.80005,4.90997-0.57001,6.70001c0.51865,3.81529,3.20173,6.86481,6.45001,8.41998
		c3.33821,1.58596,6.88951,1.04031,12.48999,1.13c3.14996,0.06,6.13,0.10999,8.73999-1.13
		c3.27531-1.58737,5.95367-4.61443,6.44-8.42999c0.86481-6.65589-4.15686-14.63527-2.75-22.37c0-0.01001,0-0.02002,0.01001-0.03003
		c0.23379-1.35117,0.62148-2.50216,1.07001-3.42999c0.07996,0.75,0.31,1.45001,0.69,2.07001
		c-0.01001,0.02002-0.01001,0.03998-0.01001,0.07001C50.1132,21.287,63.49545,29.60217,57.44504,43.69003z"/></svg>