<svg xmlns="http://www.w3.org/2000/svg" viewBox="0 0 69 69"><path fill="#c87b2c" d="M23.903 61.93a3.778 3.778 0 0 0 5.36-1.09c2.42-3.85 8.64-13.54 12.1-19.51 1.49-2.6 4.23-4.12 7.22-4.31-2.26.13-4.4-.4-6.21-1.66-1.79-1.24-3.02-3.05-3.7-5.19.85 2.85.36 5.94-1.54 8.23-4.39 5.31-11.31 14.52-14.07 18.13a3.778 3.778 0 0 0 .84 5.4z"/><path fill="#9e5729" d="M23.903 61.93c.13.09.26.17.39.23a3.76 3.76 0 0 1 .34-4.06c2.76-3.61 9.68-12.82 14.07-18.13 1.46-1.75 2.08-3.98 1.92-6.2-.87-1.03-1.52-2.25-1.95-3.6.85 2.85.36 5.94-1.54 8.23-4.39 5.31-11.31 14.52-14.07 18.13a3.778 3.778 0 0 0 .84 5.4z"/><path fill="#fbb449" d="M22.853 60.82a3.778 3.778 0 0 0 6.41.02c2.42-3.85 8.64-13.54 12.1-19.51 1.49-2.6 4.23-4.12 7.22-4.31-1.43.08-2.82-.1-4.1-.57-1.8.69-3.34 1.94-4.33 3.67-3.46 5.97-9.68 15.66-12.1 19.51a3.765 3.765 0 0 1-5.2 1.19z"/><path fill="#e5e5e5" d="M41.917 14.53a22.286 22.286 0 0 0-2.693 5.18c-2.274 6.283-1.195 12.634 3.154 15.655 4.349 3.022 10.67 1.813 15.767-2.509a22.286 22.286 0 0 0 3.917-4.33 22.795 22.795 0 0 0 2.7-5.19c2.273-6.283 1.202-12.628-3.147-15.65S50.945 5.875 45.84 10.19a22.8 22.8 0 0 0-3.923 4.34z"/><path fill="#d3d3d3" d="M42.373 35.36c2.12 1.48 4.7 1.95 7.39 1.53a9.125 9.125 0 0 1-3.83-1.53c-4.35-3.02-5.43-9.37-3.15-15.65.63-1.76 1.53-3.51 2.69-5.18s2.5-3.13 3.92-4.34c2.62-2.21 5.56-3.61 8.39-4.03-3.8-.64-8.2.86-11.94 4.03a22.87 22.87 0 0 0-3.93 4.34 22.273 22.273 0 0 0-2.69 5.18c-2.27 6.28-1.19 12.63 3.15 15.65z"/><path fill="#fbfbfb" d="M47.043 37c3.6.3 7.63-1.2 11.1-4.14 1.43-1.21 2.76-2.66 3.92-4.34 1.16-1.67 2.06-3.43 2.7-5.18 2.27-6.29 1.2-12.63-3.15-15.65-1.89-1.31-4.14-1.83-6.51-1.64 1.69.14 3.28.67 4.67 1.64 4.34 3.02 5.41 9.36 3.14 15.65-.64 1.75-1.54 3.51-2.7 5.18a21.893 21.893 0 0 1-3.92 4.34c-2.88 2.44-6.16 3.89-9.25 4.14z"/><path fill="#59b9ff" d="M41.917 14.53a22.286 22.286 0 0 0-2.693 5.18l18.92 13.146a22.286 22.286 0 0 0 3.918-4.33 22.795 22.795 0 0 0 2.699-5.19L45.841 10.19a22.8 22.8 0 0 0-3.924 4.34z"/><path fill="#489cd5" d="m39.223 19.71 18.92 13.15c.84-.71 1.65-1.51 2.41-2.39-.05.04-.1.09-.15.13l-18.92-13.15c.63-1.76 1.53-3.5 2.69-5.18.47-.68.98-1.33 1.51-1.94a22.861 22.861 0 0 0-3.77 4.2 22.273 22.273 0 0 0-2.69 5.18z"/><path fill="#b4dff9" d="m44.533 11.5 18.92 13.14c-.64 1.76-1.54 3.52-2.7 5.19-.61.88-1.27 1.71-1.96 2.46 1.19-1.09 2.29-2.35 3.27-3.77 1.16-1.67 2.06-3.43 2.7-5.18l-18.92-13.15c-.64.54-1.26 1.13-1.84 1.77.18-.15.35-.31.53-.46z"/><circle cx="62.999" cy="16.926" r="1.058" fill="#f0373c"/><circle cx="59.487" cy="14.486" r="1.058" fill="#f0373c"/><circle cx="55.975" cy="12.046" r="1.058" fill="#f0373c"/><circle cx="52.464" cy="9.606" r="1.058" fill="#f0373c"/><g fill="#f0373c"><circle cx="51.521" cy="33.44" r="1.058"/><circle cx="48.009" cy="31" r="1.058"/><circle cx="44.498" cy="28.56" r="1.058"/><circle cx="40.986" cy="26.12" r="1.058"/></g><path fill="#c87b2c" d="M45.083 62.29a3.778 3.778 0 0 1-5.36-1.09c-2.42-3.85-8.64-13.54-12.1-19.51-1.49-2.6-4.23-4.12-7.22-4.31 2.26.13 4.4-.4 6.21-1.66 1.79-1.24 3.02-3.05 3.7-5.19-.85 2.85-.36 5.94 1.54 8.23 4.39 5.31 11.31 14.52 14.07 18.13 1.31 1.71.93 4.17-.84 5.4z"/><path fill="#9e5729" d="M45.083 62.29c-.13.09-.26.17-.39.23a3.76 3.76 0 0 0-.34-4.06c-2.76-3.61-9.68-12.82-14.07-18.13-1.46-1.75-2.08-3.98-1.92-6.2.87-1.03 1.52-2.25 1.95-3.6-.85 2.85-.36 5.94 1.54 8.23 4.39 5.31 11.31 14.52 14.07 18.13 1.31 1.71.93 4.17-.84 5.4z"/><path fill="#fbb449" d="M46.133 61.18a3.778 3.778 0 0 1-6.41.02c-2.42-3.85-8.64-13.54-12.1-19.51-1.49-2.6-4.23-4.12-7.22-4.31 1.43.08 2.82-.1 4.1-.57 1.8.69 3.34 1.94 4.33 3.67 3.46 5.97 9.68 15.66 12.1 19.51a3.765 3.765 0 0 0 5.2 1.19z"/><path fill="#e5e5e5" d="M27.07 14.89a22.286 22.286 0 0 1 2.693 5.18c2.274 6.283 1.195 12.634-3.154 15.655-4.349 3.022-10.67 1.813-15.767-2.509a22.286 22.286 0 0 1-3.917-4.33 22.795 22.795 0 0 1-2.7-5.19c-2.273-6.283-1.202-12.628 3.147-15.65s10.67-1.812 15.774 2.504a22.802 22.802 0 0 1 3.923 4.34z"/><path fill="#d3d3d3" d="M26.613 35.72c-2.12 1.48-4.7 1.95-7.39 1.53 1.38-.22 2.67-.72 3.83-1.53 4.35-3.02 5.43-9.37 3.15-15.65-.63-1.76-1.53-3.51-2.69-5.18s-2.5-3.13-3.92-4.34c-2.62-2.21-5.56-3.61-8.39-4.03 3.8-.64 8.2.86 11.94 4.03a22.87 22.87 0 0 1 3.93 4.34c1.16 1.67 2.06 3.42 2.69 5.18 2.27 6.28 1.19 12.63-3.15 15.65z"/><path fill="#fbfbfb" d="M21.943 37.36c-3.6.3-7.63-1.2-11.1-4.14a22.204 22.204 0 0 1-3.92-4.34 22.919 22.919 0 0 1-2.7-5.18c-2.27-6.29-1.2-12.63 3.15-15.65 1.89-1.31 4.14-1.83 6.51-1.64-1.69.14-3.28.67-4.67 1.64-4.34 3.02-5.41 9.36-3.14 15.65.64 1.75 1.54 3.51 2.7 5.18 1.16 1.68 2.48 3.13 3.92 4.34 2.88 2.44 6.16 3.89 9.25 4.14z"/><path fill="#59b9ff" d="M27.07 14.89a22.286 22.286 0 0 1 2.693 5.18l-18.92 13.146a22.286 22.286 0 0 1-3.918-4.33 22.795 22.795 0 0 1-2.7-5.19L23.147 10.55a22.8 22.8 0 0 1 3.923 4.34z"/><path fill="#489cd5" d="m29.763 20.07-18.92 13.15c-.84-.71-1.65-1.51-2.41-2.39.05.04.1.09.15.13l18.92-13.15c-.63-1.76-1.53-3.5-2.69-5.18-.47-.68-.98-1.33-1.51-1.94 1.37 1.18 2.64 2.59 3.77 4.2 1.16 1.67 2.06 3.42 2.69 5.18z"/><path fill="#b4dff9" d="M24.453 11.86 5.533 25c.64 1.76 1.54 3.52 2.7 5.19.61.88 1.27 1.71 1.96 2.46a22.206 22.206 0 0 1-3.27-3.77 22.919 22.919 0 0 1-2.7-5.18l18.92-13.15c.64.54 1.26 1.13 1.84 1.77-.18-.15-.35-.31-.53-.46z"/><circle cx="5.988" cy="17.286" r="1.058" fill="#f0373c"/><circle cx="9.5" cy="14.846" r="1.058" fill="#f0373c"/><circle cx="13.011" cy="12.406" r="1.058" fill="#f0373c"/><circle cx="16.523" cy="9.966" r="1.058" fill="#f0373c"/><circle cx="17.466" cy="33.8" r="1.058" fill="#f0373c"/><circle cx="20.977" cy="31.36" r="1.058" fill="#f0373c"/><circle cx="24.489" cy="28.92" r="1.058" fill="#f0373c"/><circle cx="28.001" cy="26.48" r="1.058" fill="#f0373c"/><path d="M62.047 7.07c-4.49-3.12-11.2-2.09-16.69 2.55-5.82 4.946-9.63 13.55-7.41 20.69 0 .11 1.456 4.188-1.39 7.61-.68.82-1.43 1.74-2.21 2.72-.68-.84-1.32-1.63-1.92-2.36-1.68-2.02-2.2-4.84-1.4-7.53.01-.03.01-.05.01-.08 1.443-4.64.566-11.204-4.26-17.43-5.949-7.554-14.656-9.407-19.83-5.81-5.336 3.699-6.671 13.196-.64 21.88 3.203 4.64 8.367 8.424 13.87 8.78.218.086 4.583.103 6.8 3.98.79 1.36 1.72 2.9 2.71 4.53-2.229 2.897-4.214 5.518-7.22 9.48a4.523 4.523 0 0 0 1.01 6.47c2.062 1.437 5.017.938 6.42-1.31.72-1.141 1.387-2.192 4.48-7.09 4.869 7.704 4.228 6.676 4.71 7.45 1.38 2.21 4.325 2.77 6.42 1.31 2.137-1.474 2.571-4.438 1.01-6.47-2.611-3.441-5.344-7.043-7.46-9.79 1.09-1.78 2.11-3.48 2.96-4.95 2.23-3.911 6.584-3.888 6.79-3.97 7.336-.475 14.02-6.905 16.66-14.14 2.45-6.76 1.07-13.4-3.42-16.52zM7.797 8.66c4.22-2.909 9.966-1.305 14.09 1.85l-17.27 12c-1.77-5.78-.54-11.26 3.18-13.85zm15.29 2.85c1.01.793 2.323 2.448 2.427 2.567l-.873 2.782-3.265-.174a.724.724 0 0 0-.756.524l-.981 3.127-3.274-.171a.726.726 0 0 0-.755.524l-.98 3.126-3.265-.175a.729.729 0 0 0-.756.524l-.981 3.127-2.931-.153a20.671 20.671 0 0 1-1.56-3.159l17.95-12.47zM7.71 28.692l2.42.126a.751.751 0 0 0 .755-.524l.981-3.126 3.265.176c.357.016.653-.2.756-.525l.981-3.127 3.273.171a.766.766 0 0 0 .755-.524l.98-3.126 3.266.175c.356.025.654-.2.756-.525l.722-2.3c1.103 1.616 2.15 3.873 2.237 4.225l-17.96 12.48c-1.128-.991-2.456-2.5-3.187-3.576zm21.657-7.434c1.504 4.902 1.077 10.918-3.19 13.85-4.238 2.928-9.968 1.306-14.09-1.85l17.28-12zm-.74 39.18c-.923 1.468-2.84 1.863-4.3.88-1.415-.999-1.725-2.964-.67-4.33 2.584-3.4 4.593-6.055 6.88-9 .96 1.57 1.97 3.19 2.96 4.76-2.201 3.494-3.932 6.205-4.87 7.69zm16.7-3.09c1.053 1.363.749 3.329-.67 4.33a3.036 3.036 0 0 1-4.3-.88c-1.65-2.648-8.89-13.92-12.08-19.48-.91-1.59-2.29-2.85-3.94-3.66.744-.212 1.835-.716 2.7-1.32.859-.594 1.53-1.258 2.18-2.07.19 1.83.89 3.56 2.06 4.97 4.175 5.074 10.41 13.324 14.05 18.11zm-4.61-16.39c-.77 1.33-1.68 2.83-2.65 4.42-.93-1.21-1.87-2.41-2.76-3.54.86-1.07 1.67-2.07 2.4-2.96 1.18-1.41 1.88-3.14 2.06-4.97 1.41 1.765 3.214 2.914 4.88 3.39a9.143 9.143 0 0 0-3.93 3.66zm-.88-9.87c-1.061-2.124-1.53-5.93-.22-10.19l17.28 12c-7.298 5.588-15.023 3.721-17.06-1.81zm18.25.82-17.96-12.48c.276-.74.74-1.69 1.06-2.27 0-.01 0-.01.01-.02.534-1.029 1.109-1.83 1.171-1.931l.72 2.297a.736.736 0 0 0 .757.524l3.264-.176.98 3.126c.102.326.401.551.756.525l3.273-.171.981 3.127a.73.73 0 0 0 .756.524l3.266-.175.98 3.126c.1.314.39.526.716.526l.04-.001 2.417-.127c-1.207 1.777-3.016 3.405-3.187 3.576zm4.211-5.13-2.939.153-.981-3.128a.73.73 0 0 0-.756-.525l-3.266.176-.98-3.126c-.103-.326-.429-.559-.755-.524l-3.273.17-.982-3.126c-.102-.327-.397-.558-.756-.525l-3.264.176-.874-2.784c.094-.1 1.663-2.026 2.435-2.567l17.94 12.47c-.44 1.148-1.174 2.558-1.549 3.16zm-15.2-16.63c4.8-3.67 10.36-4.44 14.09-1.85 3.73 2.59 4.96 8.08 3.18 13.85l-17.27-12z"/><path d="M63.827 15.74c-.66-.46-1.56-.29-2.02.36a1.467 1.467 0 0 0 .36 2.02c.67.437 1.568.29 2.02-.37.46-.65.29-1.56-.36-2.01zm-.28 1.57c-.21.3-.63.38-.93.17a.667.667 0 0 1-.17-.93v-.01a.675.675 0 0 1 .93-.16c.31.21.38.63.17.93zm-5.25-3.65c-.45.66-.29 1.56.36 2.02.625.424 1.553.313 2.02-.37.448-.631.317-1.53-.36-2.01a1.445 1.445 0 0 0-2.02.36zm1.74 1.21c-.21.3-.63.38-.93.17-.311-.23-.378-.645-.17-.93a.663.663 0 0 1 .93-.17c.317.21.374.623.17.93zm-5.25-3.65a1.45 1.45 0 0 0 .36 2.02c.648.44 1.57.29 2.02-.37a1.448 1.448 0 0 0-.37-2.01 1.435 1.435 0 0 0-2.01.36zm1.74 1.21c-.21.3-.63.38-.93.17a.667.667 0 0 1-.17-.93v-.01a.673.673 0 0 1 .93-.16.664.664 0 0 1 .17.93zm-5.25-3.65c-.46.66-.3 1.56.36 2.02a1.47 1.47 0 0 0 2.02-.37 1.448 1.448 0 0 0-.37-2.01 1.435 1.435 0 0 0-2.01.36zm1.74 1.21c-.21.3-.63.37-.94.17a.674.674 0 0 1-.16-.93.66.66 0 0 1 .93-.17.68.68 0 0 1 .17.93zm-2.32 24.64c.62.446 1.54.311 2.01-.36a1.444 1.444 0 0 0-.36-2.02 1.466 1.466 0 0 0-2.02.36c-.45.66-.29 1.56.37 2.02zm.28-1.57c.208-.313.619-.379.93-.17.306.217.369.664.16.93a.67.67 0 0 1-.93.17.674.674 0 0 1-.16-.93zm-3.79-.87c.703.477 1.576.26 2.01-.36a1.445 1.445 0 0 0-.36-2.02 1.465 1.465 0 0 0-2.02.36c-.414.602-.345 1.527.37 2.02zm.27-1.57a.664.664 0 0 1 .93-.17c.315.209.377.64.17.93-.21.3-.63.38-.93.17a.663.663 0 0 1-.17-.93zm-3.79-.87a1.45 1.45 0 1 0 1.66-2.38 1.464 1.464 0 0 0-2.02.36c-.45.66-.29 1.56.36 2.02zm.28-1.57a.665.665 0 0 1 .93-.17c.313.207.378.639.17.93-.21.3-.63.38-.93.17a.665.665 0 0 1-.17-.93zm-3.79-.87c.625.45 1.554.306 2.02-.36.45-.66.29-1.56-.37-2.02a1.444 1.444 0 0 0-2.01.37 1.435 1.435 0 0 0 .36 2.01zm.28-1.57a.663.663 0 0 1 .93-.17c.3.21.38.63.17.93-.21.3-.63.38-.93.17a.663.663 0 0 1-.17-.93zM5.157 16.1a1.454 1.454 0 0 0-.36 2.01 1.45 1.45 0 0 0 2.02.37c.654-.459.818-1.384.36-2.02-.46-.66-1.36-.82-2.02-.36zm1.21 1.74c-.308.22-.748.101-.93-.17-.205-.309-.145-.72.17-.93a.675.675 0 0 1 .93.16c.21.31.13.73-.17.94zm2.31-4.18c-.66.45-.82 1.36-.37 2.01.41.595 1.289.867 2.02.37a1.452 1.452 0 0 0 .36-2.02c-.45-.66-1.36-.82-2.01-.36zm1.2 1.74c-.263.188-.674.155-.93-.17-.21-.3-.13-.72.17-.93a.665.665 0 0 1 .93.17.662.662 0 0 1-.17.93zm2.31-4.18c-.66.45-.82 1.36-.37 2.01.423.614 1.336.854 2.02.37.693-.474.795-1.418.36-2.02a1.434 1.434 0 0 0-2.01-.36zm1.21 1.74a.68.68 0 0 1-.93-.17c-.22-.3-.14-.72.16-.93a.661.661 0 0 1 .93.17c.21.3.14.72-.16.93zm4.32-3.82c-.46-.66-1.37-.82-2.02-.36a1.435 1.435 0 0 0-.36 2.01c.438.636 1.342.842 2.01.37.66-.45.81-1.374.37-2.02zm-.81 1.38a.68.68 0 0 1-.93-.17.67.67 0 0 1 .16-.93.672.672 0 0 1 .93.16c.219.297.143.701-.16.94zm-.27 22.09c-.65.46-.82 1.36-.36 2.02a1.436 1.436 0 0 0 2.01.36 1.458 1.458 0 0 0 .37-2.02c-.46-.65-1.36-.81-2.02-.36zm1.21 1.74c-.309.205-.72.143-.93-.17-.21-.3-.14-.72.17-.93a.665.665 0 0 1 .93.17.665.665 0 0 1-.17.93zm3.96-1.8a1.45 1.45 0 0 0 .36-2.02 1.464 1.464 0 0 0-2.02-.36 1.45 1.45 0 1 0 1.66 2.38zm-1.38-.81a.665.665 0 0 1 .17-.93.668.668 0 0 1 .93.17.662.662 0 0 1-.17.93.664.664 0 0 1-.93-.17zm4.89-1.63c.661-.455.816-1.35.36-2.02-.45-.65-1.36-.81-2.02-.36a1.464 1.464 0 0 0-.36 2.02 1.45 1.45 0 0 0 2.02.36zm-1.21-1.74a.665.665 0 0 1 .93.17c.22.328.123.735-.17.93a.67.67 0 0 1-.76-1.1zm4.72-.7a1.437 1.437 0 0 0 .36-2.01c-.45-.66-1.36-.82-2.01-.37a1.458 1.458 0 0 0-.37 2.02 1.454 1.454 0 0 0 2.02.36zm-1.21-1.74a.665.665 0 0 1 .93.17.662.662 0 0 1-.17.93.666.666 0 0 1-.93-.17c-.22-.309-.104-.735.17-.93z"/></svg>