<svg xmlns="http://www.w3.org/2000/svg" viewBox="0 0 69 69"><path fill="#726f76" d="M42.054 3.249H26.95c-3.539 0-6.408 2.874-6.408 6.42v28.293c0 3.547 2.87 6.421 6.408 6.421h15.104c3.539 0 6.408-2.874 6.408-6.42V9.668c0-3.546-2.87-6.42-6.408-6.42z"/><path fill="#59575b" d="M48.46 9.672v28.29c0 3.55-2.87 6.42-6.409 6.42h-15.1c-3.18 0-5.81-2.31-6.32-5.35.34.06.7.09 1.06.09h15.1c3.54 0 6.41-2.88 6.41-6.42v-28.3c0-.36-.03-.72-.09-1.06 3.04.5 5.35 3.14 5.35 6.33z"/><path fill="#9a9ba5" d="M37.79 3.252H26.95c-3.539 0-6.409 2.87-6.409 6.42v2.68c0-3.55 2.87-6.42 6.41-6.42h8.158c1.48 0 2.68-1.2 2.68-2.68z"/><path fill="#e5e5e5" d="M56.448 29.23v9.954c0 7.305-5.904 13.22-13.194 13.22h-6.878v10.968h-3.748V52.405H25.75c-7.29 0-13.194-5.916-13.194-13.221V29.23c0-1.033.834-1.878 1.874-1.878.516 0 .984.207 1.322.554.337.338.553.808.553 1.324v9.954c0 5.23 4.226 9.465 9.445 9.465h17.504c5.22 0 9.445-4.235 9.445-9.465V29.23c0-1.033.834-1.878 1.874-1.878.516 0 .984.207 1.322.554.337.338.553.808.553 1.324z"/><path fill="#c87b2c" d="M49.252 60.994H19.75a4.75 4.75 0 0 0-4.744 4.755h38.99a4.75 4.75 0 0 0-4.744-4.755z"/><path fill="#9e5729" d="M54.001 65.752h-38.99c0-.86.23-1.68.64-2.38h37.71c.41.7.64 1.52.64 2.38z"/><path d="M19.795 37.96c0 3.96 3.21 7.17 7.15 7.17h15.11c3.95 0 7.16-3.21 7.16-7.17V9.67c0-3.95-3.21-7.17-7.16-7.17h-15.11c-3.94 0-7.15 3.22-7.15 7.17v28.29zM26.945 4h1.006v3.405a.75.75 0 0 0 1.5 0V4h2.37v3.405a.75.75 0 0 0 1.5 0V4h2.362v3.405a.75.75 0 0 0 1.5 0V4h2.37v3.405a.75.75 0 0 0 1.5 0V4h1.002c3.12 0 5.66 2.54 5.66 5.67v3.754h-9.454a.75.75 0 0 0 0 1.5h9.454v2.357h-9.454a.75.75 0 0 0 0 1.5h9.454v2.357c-8.37.275-10.204-.627-10.204.75 0 1.372 1.802.473 10.204.75v2.356h-9.454c-.992 0-.992 1.5 0 1.5h9.454v2.357h-9.454a.75.75 0 0 0 0 1.5h9.454v2.356h-9.454a.75.75 0 0 0 0 1.5h9.454v3.753c0 3.13-2.54 5.67-5.66 5.67h-1.002v-3.403a.75.75 0 0 0-1.5 0v3.403h-2.37v-3.403a.75.75 0 0 0-1.5 0v3.403h-2.362v-3.403a.75.75 0 0 0-1.5 0v3.403h-2.37v-3.403a.75.75 0 0 0-1.5 0v3.403h-1.006c-3.11 0-5.65-2.54-5.65-5.67v-3.753h9.448a.75.75 0 0 0 0-1.5h-9.448v-2.356h9.448a.75.75 0 0 0 0-1.5h-9.448v-2.357h9.448a.75.75 0 0 0 0-1.5h-9.448v-2.356h9.448a.75.75 0 0 0 0-1.5h-9.448V18.78h9.448a.75.75 0 0 0 0-1.5h-9.448v-2.356h9.448a.75.75 0 0 0 0-1.5h-9.448V9.67c0-3.13 2.54-5.67 5.65-5.67z"/><path d="M43.255 53.15c7.69 0 13.94-6.26 13.94-13.97v-9.95c0-1.417-1.14-2.63-2.62-2.63-1.45 0-2.63 1.18-2.63 2.63v9.95c0 4.81-3.9 8.72-8.69 8.72h-17.51c-4.79 0-8.69-3.91-8.69-8.72v-9.95c0-1.406-1.133-2.63-2.62-2.63-1.45 0-2.63 1.18-2.63 2.63v9.95c0 7.71 6.26 13.97 13.94 13.97h6.13v7.09h-12.12c-3.03 0-5.5 2.47-5.5 5.51 0 .41.34.75.75.75h38.99c.42 0 .75-.34.75-.75 0-3.04-2.46-5.51-5.49-5.51h-12.13v-7.09h6.13zm6 8.59c1.94 0 3.57 1.41 3.92 3.26h-37.35a4.012 4.012 0 0 1 3.93-3.26h29.5zm-15.88-1.5V52.4c0-.41-.33-.75-.75-.75h-6.88c-6.86 0-12.44-5.59-12.44-12.47v-9.95c0-.62.51-1.13 1.13-1.13.594 0 1.12.508 1.12 1.13v9.95c0 5.64 4.57 10.22 10.19 10.22h17.51c5.62 0 10.19-4.58 10.19-10.22v-9.95c0-.62.51-1.13 1.13-1.13.624 0 1.12.533 1.12 1.13v9.95c0 6.88-5.58 12.47-12.44 12.47h-6.88c-.41 0-.75.34-.75.75v7.84h-2.25z"/></svg>