<svg xmlns="http://www.w3.org/2000/svg" viewBox="0 0 69 69"><path fill="#fbfbfb" d="M31.469 33.369h7.93v25.03h-7.93z"/><path fill="#e5e5e5" d="M39.398 55.909v2.49h-7.93v-25.03h2.49v18.67a3.87 3.87 0 0 0 3.87 3.87h1.57z"/><path fill="#fbfbfb" d="M21.419 33.369h10.053v25.03H21.419z"/><path fill="#e5e5e5" d="M31.469 55.429v2.97h-10.05v-25.03h2.97V50.75a4.678 4.678 0 0 0 4.678 4.678h2.402z"/><path fill="#fbfbfb" d="M11.268 33.369h10.145v25.03H11.268z"/><path fill="#e5e5e5" d="M21.419 55.989v2.41h-10.15v-25.03h2.41v18.847a3.773 3.773 0 0 0 3.772 3.773h3.968z"/><path fill="#fbfbfb" d="M11.267 33.365H3.25v21.03c0 2.21 1.79 4 4 4h4.017v-25.03z"/><path fill="#e5e5e5" d="M11.268 55.869v2.53h-4.02c-2.21 0-4-1.79-4-4v-21.03h2.52v18.5c0 2.21 1.79 4 4 4h1.5z"/><path fill="#fbfbfb" d="M65.748 33.369v21.03c0 2.21-1.79 4-4 4h-4.28v-25.03h8.28z"/><path fill="#e5e5e5" d="M65.609 55.439a3.993 3.993 0 0 1-3.86 2.96h-4.28v-25.03h2.82v18.516a3.694 3.694 0 0 0 3.693 3.694h.586c.36 0 .71-.05 1.04-.14z"/><path fill="#fbfbfb" d="M47.688 33.369h9.776v25.03h-9.776z"/><path fill="#e5e5e5" d="M57.469 55.579v2.82h-9.78v-25.03h2.82v17.753a4.457 4.457 0 0 0 4.457 4.457h2.503z"/><path fill="#fbfbfb" d="M39.401 33.365h8.291v25.03h-8.291z"/><path fill="#e5e5e5" d="M47.688 55.579v2.82h-8.29v-25.03h2.82v18.186a4.024 4.024 0 0 0 4.025 4.024h1.445z"/><path fill="#726f76" d="M65.75 33.361V16.605a6 6 0 0 0-6-6H43.1a6 6 0 0 0-6 6v1.97a6 6 0 0 1-6 6H9.25a6 6 0 0 0-6 6v2.786h62.5z"/><path fill="#59575b" d="M65.748 29.909v3.45h-62.5v-2.78c0-.23.01-.45.04-.67h62.46z"/><path fill="#9a9ba5" d="M59.748 10.609h-16.65c-3.31 0-6 2.68-6 6v1.97c0 3.31-2.68 6-6 6H18.113a1.88 1.88 0 0 0 1.88 1.88h12.996a6 6 0 0 0 6-6v-1.97a6 6 0 0 1 6-6h16.65c1.17 0 2.26.34 3.18.93a5.944 5.944 0 0 0-5.07-2.81z"/><path fill="#6b6c6b" d="M21.326 48.577a2.513 2.513 0 0 1-2.514-2.513V33.365h5.027v12.7a2.513 2.513 0 0 1-2.513 2.512zm-10.089 0a2.513 2.513 0 0 1-2.513-2.513V33.365h5.027v12.7a2.513 2.513 0 0 1-2.514 2.512zm20.177 0a2.513 2.513 0 0 1-2.513-2.513V33.365h5.026v12.7a2.513 2.513 0 0 1-2.513 2.512zm26.206 0a2.513 2.513 0 0 1-2.513-2.513V33.365h5.026v12.7a2.513 2.513 0 0 1-2.513 2.512zm-10.088 0a2.513 2.513 0 0 1-2.514-2.513V33.365h5.027v12.7a2.513 2.513 0 0 1-2.513 2.512z"/><path fill="#494949" d="M23.838 33.369v12.7a2.512 2.512 0 0 1-3.66 2.23c.81-.42 1.36-1.26 1.36-2.23v-12.7h2.3zm-10.09 0v12.7a2.512 2.512 0 0 1-3.66 2.23c.81-.42 1.36-1.26 1.36-2.23v-12.7h2.3zm20.18 0v12.7c0 1.38-1.13 2.51-2.51 2.51-.41 0-.81-.1-1.15-.28.81-.42 1.36-1.26 1.36-2.23v-12.7h2.3zm26.2 0v12.7a2.512 2.512 0 0 1-3.66 2.23c.81-.42 1.36-1.26 1.36-2.23v-12.7h2.3zm-10.08 0v12.7a2.52 2.52 0 0 1-3.67 2.23c.81-.42 1.37-1.26 1.37-2.23v-12.7h2.3z"/><path fill="#8a8c8a" d="M22.039 48.479a2.52 2.52 0 0 1-3.23-2.41v-12.7h1.42v12.7c0 1.14.77 2.1 1.81 2.41zm-10.09 0a2.512 2.512 0 0 1-3.22-2.41v-12.7h1.41v12.7c0 1.14.77 2.1 1.81 2.41zm20.18 0a2.52 2.52 0 0 1-3.23-2.41v-12.7h1.42v12.7c0 1.14.77 2.11 1.81 2.41zm26.2 0a2.512 2.512 0 0 1-3.22-2.41v-12.7h1.42v12.7c0 1.14.76 2.1 1.8 2.41zm-10.09 0a2.512 2.512 0 0 1-3.22-2.41v-12.7h1.42v12.7c0 1.14.76 2.1 1.8 2.41z"/><path d="M66.5 16.605a6.757 6.757 0 0 0-6.75-6.75H43.1a6.757 6.757 0 0 0-6.75 6.75v1.97a5.256 5.256 0 0 1-5.25 5.25H9.25a6.757 6.757 0 0 0-6.75 6.75v23.82c0 2.62 2.13 4.75 4.75 4.75h54.5c2.62 0 4.75-2.13 4.75-4.75v-37.79zm-20.732 17.51h3.527v11.95c0 .972-.791 1.763-1.763 1.763a1.765 1.765 0 0 1-1.764-1.764V34.115zm-7.117 23.53h-6.487v-8.413a3.263 3.263 0 0 0 2.513-3.168V34.115h3.974v23.53zM9.474 34.115H13v11.95c0 .972-.79 1.763-1.763 1.763s-1.763-.791-1.763-1.764V34.115zm21.94 13.713a1.765 1.765 0 0 1-1.763-1.764V34.115h3.526v11.95c0 .972-.79 1.763-1.763 1.763zm-10.088 0a1.765 1.765 0 0 1-1.764-1.764V34.115h3.527v11.95c0 .972-.791 1.763-1.763 1.763zm-9.339 1.404a3.263 3.263 0 0 0 2.513-3.168V34.115h3.562v11.95a3.263 3.263 0 0 0 2.514 3.167v8.413h-8.589v-8.413zm10.089 0a3.263 3.263 0 0 0 2.513-3.168V34.115h3.562v11.95a3.263 3.263 0 0 0 2.513 3.167v8.413h-8.588v-8.413zm26.206 0a3.263 3.263 0 0 0 2.513-3.168V34.115h3.561v11.95a3.263 3.263 0 0 0 2.514 3.167v8.413h-8.588v-8.413zm9.338-1.404a1.765 1.765 0 0 1-1.764-1.764V34.115h3.527v11.95c0 .972-.791 1.763-1.763 1.763zM4 30.575a5.256 5.256 0 0 1 5.25-5.25H31.1a6.757 6.757 0 0 0 6.75-6.75v-1.97a5.256 5.256 0 0 1 5.25-5.25h16.65a5.256 5.256 0 0 1 5.25 5.25v16.006H4v-2.036zm0 23.82v-20.28h3.974v11.95a3.263 3.263 0 0 0 2.513 3.167v8.413H7.25A3.254 3.254 0 0 1 4 54.395zm36.151-20.28h4.117v11.95a3.263 3.263 0 0 0 2.514 3.167v8.413h-6.63v-23.53zM65 54.395a3.254 3.254 0 0 1-3.25 3.25h-3.38v-8.413a3.263 3.263 0 0 0 2.513-3.168V34.115H65v20.28z"/></svg>