<svg xmlns="http://www.w3.org/2000/svg" viewBox="0 0 69 69"><path fill="#e5e5e5" d="M65.75 30.327c0 3.517-2.856 6.356-6.374 6.356V23.981c3.518 0 6.374 2.839 6.374 6.346z"/><path fill="#d3d3d3" d="M65.749 30.329c0 3.52-2.85 6.35-6.37 6.35v-2.72c3.05 0 5.6-2.13 6.22-4.99.1.44.15.89.15 1.36z"/><path fill="#fbfbfb" d="M65.749 30.329c0 .31-.02.61-.07.9a6.346 6.346 0 0 0-6.3-5.46v-1.79c3.52 0 6.37 2.84 6.37 6.35z"/><path fill="#f0373c" d="M23.645 20.19v20.294h-12.71a2.753 2.753 0 0 1-2.754-2.748v-14.8c0-1.52 1.24-2.747 2.755-2.747h12.71z"/><path fill="#d5202a" d="M23.648 35.189v5.29h-12.71c-1.52 0-2.76-1.22-2.76-2.74v-5.3c0 1.52 1.24 2.75 2.76 2.75h12.71z"/><path fill="#fe5c6e" d="M23.648 20.189v2.1h-12.71c-1.52 0-2.76 1.23-2.76 2.75v-2.1c0-1.52 1.24-2.75 2.76-2.75h12.71z"/><path fill="#e5e5e5" d="M54.482 11.123v38.409c-10.01-7.015-21.406-7.73-30.846-9.048V20.189c9.44-1.328 20.836-2.042 30.846-9.066z"/><path fill="#d3d3d3" d="M54.479 43.769v5.76c-10.01-7.01-21.4-7.73-30.84-9.05v-5.76c9.44 1.32 20.83 2.03 30.84 9.05z"/><path fill="#fbfbfb" d="M54.479 11.119v2.74c-10.01 7.02-21.4 7.74-30.84 9.07v-2.74c9.44-1.33 20.83-2.04 30.84-9.07z"/><path fill="none" d="M54.482 11.123v38.409c-10.01-7.015-21.406-7.73-30.846-9.048V20.189c9.44-1.328 20.836-2.042 30.846-9.066z"/><path fill="#f0373c" d="M56.928 52.778a2.448 2.448 0 0 1-2.448-2.448V10.333a2.448 2.448 0 1 1 4.896 0V50.33a2.448 2.448 0 0 1-2.448 2.448z"/><path fill="#d5202a" d="M59.379 10.329v40c0 1.35-1.1 2.45-2.45 2.45-.38 0-.75-.09-1.07-.25a2.44 2.44 0 0 0 1.38-2.2v-40a2.459 2.459 0 0 0-1.38-2.2c.32-.15.69-.24 1.07-.24.67 0 1.29.27 1.73.71s.72 1.06.72 1.73z"/><path fill="#fe5c6e" d="M54.479 33.064a2.862 2.862 0 0 0 1.41-2.467V10.33c0-1.1.74-2.03 1.74-2.34-.22-.07-.46-.1-.7-.1-1.35 0-2.45 1.09-2.45 2.44v22.735z"/><path fill="#e5e5e5" d="M8.18 23.798v13.077H6.005a2.753 2.753 0 0 1-2.754-2.747v-7.583a2.753 2.753 0 0 1 2.754-2.747h2.177z"/><path fill="#6b6c6b" d="M27.186 59.668c-.14.856-.945 1.447-1.812 1.447H21.35a4.635 4.635 0 0 1-4.554-3.771l-2.385-12.56c-.96 0-1.82-.389-2.45-1.009-.62-.63-1.01-1.5-1.01-2.45v-.84h11.02l2.6 17.15h.9c1.057 0 1.895.944 1.716 2.033z"/><path fill="#494949" d="M27.189 59.669c-.14.86-.95 1.45-1.81 1.45h-4.03c-1.68 0-3.17-.9-3.99-2.27.27.05.54.07.82.07a9.849 9.849 0 0 0 2.508-8.168L19.129 40.49h2.84l2.6 17.15h.9c1.06 0 1.9.94 1.72 2.03z"/><path fill="#8a8c8a" d="M19.218 40.489h-8.27v.84c0 .27.03.54.1.79h6.54c.9 0 1.63-.73 1.63-1.63z"/><path d="M66.5 30.327c0-3.66-2.798-6.681-6.374-7.056V10.333c0-1.763-1.435-3.198-3.198-3.198S53.73 8.57 53.73 10.334v.388c-9.534 6.541-19.976 7.288-30.144 8.717h-12.65a3.505 3.505 0 0 0-3.505 3.498v.11H6.005A3.505 3.505 0 0 0 2.5 26.545v7.583a3.505 3.505 0 0 0 3.505 3.497H7.43v.111a3.503 3.503 0 0 0 2.77 3.417v.172c0 1.115.434 2.172 1.234 2.985a4.233 4.233 0 0 0 2.345 1.178l2.278 11.996a5.39 5.39 0 0 0 5.29 4.38h4.026c1.26 0 2.358-.891 2.553-2.074a2.493 2.493 0 0 0-2.456-2.905h-.256l-2.373-15.652h.745c10.505 1.463 20.645 2.192 30.142 8.7v.397c0 1.764 1.435 3.198 3.199 3.198s3.198-1.434 3.198-3.198V37.393c3.576-.375 6.374-3.4 6.374-7.066zM6.005 36.125A2.003 2.003 0 0 1 4 34.128v-7.583c0-1.102.9-1.998 2.005-1.998H7.43v11.578H6.005zm2.926 1.611v-14.8c0-1.1.9-1.997 2.005-1.997h11.95v18.794h-11.95a2.003 2.003 0 0 1-2.005-1.997zm15.64 20.649h.9c.586 0 1.08.522.975 1.162-.076.466-.538.818-1.072.818h-4.025a3.887 3.887 0 0 1-3.817-3.16l-2.385-12.56a.75.75 0 0 0-.737-.61c-.72 0-1.402-.282-1.915-.786a2.731 2.731 0 0 1-.795-1.924v-.09h9.626l2.503 16.512a.75.75 0 0 0 .741.638zm-.175-18.554V20.84c10.223-1.4 19.974-2.24 29.333-8.307v35.587c-9.38-6.072-19.392-6.938-29.333-8.29zm34.23 10.5c0 .936-.762 1.697-1.698 1.697s-1.698-.761-1.698-1.698V10.334c0-.937.761-1.699 1.698-1.699s1.698.762 1.698 1.699V50.33zm1.5-14.448V24.78c2.748.366 4.874 2.714 4.874 5.547 0 2.838-2.126 5.19-4.874 5.556z"/></svg>