<?xml version="1.0" encoding="UTF-8" standalone="no"?>
<svg
   viewBox="0 0 69 69"
   version="1.1"
   id="svg9"
   sodipodi:docname="saxophone-soprano.svg"
   inkscape:version="1.3.1 (91b66b0783, 2023-11-16)"
   xmlns:inkscape="http://www.inkscape.org/namespaces/inkscape"
   xmlns:sodipodi="http://sodipodi.sourceforge.net/DTD/sodipodi-0.dtd"
   xmlns="http://www.w3.org/2000/svg"
   xmlns:svg="http://www.w3.org/2000/svg">
  <defs
     id="defs9" />
  <sodipodi:namedview
     id="namedview9"
     pagecolor="#ffffff"
     bordercolor="#000000"
     borderopacity="0.25"
     inkscape:showpageshadow="2"
     inkscape:pageopacity="0.0"
     inkscape:pagecheckerboard="0"
     inkscape:deskcolor="#d1d1d1"
     inkscape:zoom="11.26087"
     inkscape:cx="34.455598"
     inkscape:cy="34.5"
     inkscape:window-width="1920"
     inkscape:window-height="991"
     inkscape:window-x="-9"
     inkscape:window-y="-9"
     inkscape:window-maximized="1"
     inkscape:current-layer="svg9" />
  <path
     fill="#ffca0f"
     d="M55.297 3.25h-4.699a13.94 13.94 0 0 0-13.644 11.062l-7.81 33.97c-.24 1.133-1.836 1.194-2.16.082l-3.256-11.165-17.272 4.067L8.21 51.62c1.382 8.159 8.455 14.13 16.737 14.13 8.839 0 16.198-6.777 16.918-15.578L44.74 16.08c0-4.17 3.384-7.552 7.558-7.552h3V3.25z"
     id="path1" />
  <path
     fill="#ffa301"
     d="M51.328 8.454v.076h-3a7.55 7.55 0 0 0-7.55 7.55l-2.88 34.09c-.67 8.14-7.01 14.55-14.96 15.46.66.08 1.33.12 2.01.12 8.84 0 16.2-6.78 16.92-15.58l2.87-34.09c0-3.857 2.894-7.032 6.636-7.488-.018-.045-.03-.092-.046-.138z"
     id="path2" />
  <path
     fill="#ffed91"
     d="M26.478 65.68c-.5.05-1.01.07-1.53.07-8.28 0-15.36-5.97-16.74-14.13l-1.75-10.35 17.27-4.07.2.68-14.4 3.39 1.76 10.35c1.29 7.65 7.58 13.37 15.19 14.06z"
     id="path3" />
  <path
     fill="#f0373c"
     d="m61.45 7.493-6.153 1.036V3.251l6.153 1.036z"
     id="path4" />
  <path
     fill="#f6991d"
     d="M25.345 34.574a2.186 2.186 0 0 0-2.63-1.625L5.134 37.09a2.184 2.184 0 1 0 1.003 4.25l17.583-4.14a2.184 2.184 0 0 0 1.626-2.626z"
     id="path5" />
  <path
     fill="#fbb449"
     d="M25.248 35.88a2.174 2.174 0 0 0-2.53-1.32L5.128 38.7c-.72.17-1.27.68-1.52 1.32-.04-.1-.08-.2-.1-.3-.28-1.18.45-2.35 1.62-2.63l17.59-4.14c1.17-.28 2.35.45 2.63 1.62.1.45.06.91-.1 1.31z"
     id="path6" />
  <circle
     cx="39.214"
     cy="25.182"
     r="1.606"
     fill="#fbfbfb"
     id="circle6" />
  <circle
     cx="38.214"
     cy="31.57"
     r="1.606"
     fill="#fbfbfb"
     id="circle7" />
  <circle
     cx="37.214"
     cy="37.959"
     r="1.606"
     fill="#fbfbfb"
     id="circle8" />
  <circle
     cx="36.214"
     cy="44.347"
     r="1.606"
     fill="#fbfbfb"
     id="circle9" />
  <path
     d="M65.551 5.14H62.2v-.854a.75.75 0 0 0-.626-.74C59.578 3.215 55.4 2.5 55.297 2.5h-4.699c-6.908 0-12.955 4.902-14.375 11.644l-7.814 33.984c-.05.24-.236.283-.342.287-.101.017-.294-.023-.363-.26l-3.07-10.525a2.897 2.897 0 0 0 1.44-3.229 2.94 2.94 0 0 0-3.53-2.182L4.96 36.36a2.937 2.937 0 0 0-2.184 3.529 2.94 2.94 0 0 0 2.857 2.26c.069 0 .138-.019.207-.024l1.63 9.621A17.672 17.672 0 0 0 24.947 66.5c9.16 0 16.92-7.145 17.666-16.264l.432-5.14h3.359a.75.75 0 0 0 0-1.5h-3.232l.411-4.887h3.82a.75.75 0 0 0 0-1.5H43.71l.412-4.889h4.283a.75.75 0 0 0 0-1.5h-4.157l.412-4.888h4.745a.75.75 0 0 0 0-1.5h-4.619l.703-8.351c0-3.75 3.055-6.802 6.81-6.802 5.18-.292-1 .679 9.276-1.047a.75.75 0 0 0 .626-.739V6.64h3.351a.75.75 0 0 0 0-1.5zM4.237 39.545a1.436 1.436 0 0 1 1.068-1.725l17.582-4.14a1.436 1.436 0 0 1 1.727 1.065v.001c.181.764-.288 1.54-1.067 1.724L5.964 40.61a1.434 1.434 0 0 1-1.727-1.065zm39.754-23.527-.71 8.414h-1.845a2.351 2.351 0 0 0-2.222-1.607 2.358 2.358 0 0 0-2.356 2.357 2.358 2.358 0 0 0 2.356 2.355 2.351 2.351 0 0 0 2.222-1.605h1.72l-.413 4.888h-2.307a2.351 2.351 0 0 0-2.222-1.606 2.358 2.358 0 0 0-2.356 2.356 2.358 2.358 0 0 0 2.356 2.356 2.351 2.351 0 0 0 2.222-1.606h2.18l-.411 4.889h-2.769a2.351 2.351 0 0 0-2.222-1.606 2.358 2.358 0 0 0-2.356 2.356 2.358 2.358 0 0 0 2.356 2.355 2.351 2.351 0 0 0 2.222-1.605h2.642l-.412 4.888h-3.23a2.351 2.351 0 0 0-2.222-1.606 2.358 2.358 0 0 0-2.356 2.356c0 1.3 1.057 2.356 2.356 2.356a2.351 2.351 0 0 0 2.222-1.606h3.104l-.423 5.014C40.435 58.46 33.332 65 24.947 65A16.177 16.177 0 0 1 8.949 51.496l-1.636-9.661 15.894-3.742 3.056 10.481c.244.835.987 1.382 1.861 1.34a1.834 1.834 0 0 0 1.75-1.464l7.814-33.984C38.965 8.4 44.395 4 50.598 4h3.949v3.78h-2.25c-4.581 0-8.309 3.724-8.306 8.238zm-3.921 9.164a.857.857 0 1 1-1.713-.003.857.857 0 0 1 1.713.003zm-1 6.388a.857.857 0 1 1-1.713-.002.857.857 0 0 1 1.713.002zm-1 6.389a.857.857 0 1 1-1.713-.002.857.857 0 0 1 1.713.002zm-1 6.388a.857.857 0 1 1-1.714-.001.857.857 0 0 1 1.714 0zM60.7 6.859l-4.653.784V4.138l4.653.783v1.938z"
     id="path9" />
  <text
     xml:space="preserve"
     style="font-style:normal;font-variant:normal;font-weight:normal;font-stretch:normal;font-size:18.6667px;font-family:Corbel;-inkscape-font-specification:Corbel;opacity:1;fill:#e3ac35"
     x="13.320463"
     y="56.833981"
     id="text9"><tspan
       id="tspan9"
       x="13.320463"
       y="56.833981"
       style="font-style:normal;font-variant:normal;font-weight:normal;font-stretch:normal;font-size:18.6667px;font-family:Corbel;-inkscape-font-specification:Corbel;opacity:0.9;fill:#1a1a1a"
       sodipodi:role="line">S</tspan></text>
</svg>
