<svg xmlns="http://www.w3.org/2000/svg" data-name="Artboard 30" viewBox="0 0 64 64"><path fill="#f4ac1c" d="M44.408 44.124L36.716 36.86 33.7 34.012 31.54 31.971a1.672 1.672 0 010-2.461h0a1.92 1.92 0 012.606 0L36.7 31.919l3.018 2.851 5.9 5.572zM30.421 36.758l-2.275-2.229a1.87 1.87 0 00-2.606 0h0a1.779 1.779 0 000 2.553l2.3 2.252 2.942 2.883 8.687 8.512 2.563-2.6-8.655-8.48zM31 53.8l-5.319-5.024-2.947-2.783L19.54 42.971a1.672 1.672 0 010-2.461h0a1.92 1.92 0 012.606 0L24.785 43l2.96 2.8 7.582 7.161z"/><path fill="#f4ac1c" d="M17.513,24.141a10.791,10.791,0,0,1-5.177-4.521L26.389,5.566A13.741,13.741,0,0,0,35.554,11.2,23.993,23.993,0,0,1,52.8,21.956c6.466,10.38,2.123,23.088-3.978,29.88-6.789,7.558-16.478,8.6-19.889,8.964A36.669,36.669,0,0,1,16,60V57l13-1,10.087-5.741,5.152-5.8L45,35,40,25,29,22Z"/><path fill="#db8f09" d="M28.928,60.8c.3-.033.674-.074,1.072-.122V55.431L29,56l-1,.077v4.8C28.31,60.85,28.612,60.834,28.928,60.8Z"/><path fill="#ffe69e" d="M43.1,32.861C35.545,36.59,27.671,44.137,23.839,52.088l-.527,1.385-3.521-1.45.563-1.764a45.518,45.518,0,0,1,20.905-20.9l1.905-.68,1.662,3.685Z"/><path fill="#ffd55d" d="M29,20A18,18,0,1,0,47,38,18,18,0,0,0,29,20Zm0,33A15,15,0,1,1,44,38,15,15,0,0,1,29,53Z"/><rect width="25.139" height="4.179" x="4.931" y="9.41" fill="#ffd55d" rx="2.09" transform="rotate(-45 17.5 11.5)"/><rect width="4" height="7" x="12" y="55" fill="#ffe69e" rx="2"/><path fill="#f8cd77" d="M52.8,21.956A23.993,23.993,0,0,0,35.554,11.2a13.5,13.5,0,0,1-7.506-3.733c-.038.047-.081.086-.115.137a2.5,2.5,0,0,0,.661,3.473,15.886,15.886,0,0,0,6.689,2.6,21.466,21.466,0,0,1,15.465,9.6c6.14,9.857,1.142,21.48-3.716,26.889a23.073,23.073,0,0,1-8.856,6.007,2.494,2.494,0,0,0-1.447,3.117,26.4,26.4,0,0,0,12.088-7.454C54.918,45.044,59.261,32.336,52.8,21.956Z"/><path d="M45,38A16,16,0,1,0,29,54,16.019,16.019,0,0,0,45,38ZM22.557,44.447l-2.33-2.2a.674.674,0,0,1,0-1.008.923.923,0,0,1,1.233,0l2,1.893C23.153,43.563,22.853,44,22.557,44.447ZM40.9,30.665a13.973,13.973,0,0,1,.922,1.736,46.641,46.641,0,0,0-18.451,18.41,13.959,13.959,0,0,1-1.709-.909A44.739,44.739,0,0,1,40.9,30.665Zm-13.074,7.26L26.24,36.37a.78.78,0,0,1,0-1.125.865.865,0,0,1,1.207,0l1.547,1.516Q28.4,37.333,27.827,37.925Zm4.4-6.679a.674.674,0,0,1,0-1.008.923.923,0,0,1,1.233,0L35.1,31.792c-.443.3-.883.611-1.316.929Zm6.206,17.071L32.193,42.2q.576-.59,1.172-1.159l6.219,6.094A14.391,14.391,0,0,1,38.433,48.317Zm-11.456.3c.291-.441.595-.879.908-1.315L32.4,51.568a13.9,13.9,0,0,1-1.923.354ZM29.1,45.7c.55-.691,1.131-1.369,1.73-2.036l6.035,5.914a13.918,13.918,0,0,1-2.314,1.271Zm5.744-6.009c.594-.521,1.2-1.028,1.812-1.514l5.331,5.035A13.959,13.959,0,0,1,40.79,45.52Zm3.434-2.733q.658-.474,1.328-.918l3.337,3.152a13.9,13.9,0,0,1-.294,1.9Zm3.084-2.01c.376-.221.753-.435,1.131-.639a13.964,13.964,0,0,1,.412,2.1ZM25.9,50.358l1.663,1.57a13.893,13.893,0,0,1-2.291-.445C25.474,51.107,25.685,50.733,25.9,50.358ZM15,38a13.99,13.99,0,0,1,24.726-8.98q-1.479.773-2.9,1.649l-2-1.886a2.937,2.937,0,0,0-3.98,0,2.674,2.674,0,0,0,0,3.916l1.329,1.254q-.876.7-1.717,1.449l-1.619-1.587a2.879,2.879,0,0,0-4.007,0,2.781,2.781,0,0,0,0,3.982l1.627,1.594c-.617.694-1.217,1.4-1.792,2.133l-1.842-1.74a2.935,2.935,0,0,0-3.98,0,2.673,2.673,0,0,0,0,3.915l2.608,2.463q-.762,1.257-1.442,2.564A13.972,13.972,0,0,1,15,38Z"/><path d="M27.1,1.906a3.1,3.1,0,0,0-4.369,0L7.9,16.727a3.085,3.085,0,0,0,4.272,4.45,11.9,11.9,0,0,0,3.6,3.21,18.967,18.967,0,0,0,5.973,31.169l-4.953.381A2.995,2.995,0,0,0,11,57v3a3,3,0,0,0,5.743,1.206,36.31,36.31,0,0,0,7.873.827,41.4,41.4,0,0,0,4.419-.239c3.334-.357,13.481-1.447,20.526-9.289,6.878-7.658,10.49-20.792,4.083-31.078A24.951,24.951,0,0,0,35.692,10.212a12.716,12.716,0,0,1-8.059-4.691A3.085,3.085,0,0,0,27.1,1.906ZM9.319,19.683a1.094,1.094,0,0,1,0-1.542L24.14,3.321a1.09,1.09,0,1,1,1.541,1.541L10.86,19.682A1.091,1.091,0,0,1,9.319,19.683ZM12,38A17,17,0,1,1,29,55,17.019,17.019,0,0,1,12,38Zm3,22a1,1,0,1,1-2,0V57a1,1,0,0,1,2,0Zm2-.786V57.928l11-.846v2.791A35.908,35.908,0,0,1,17,59.215ZM35.416,12.192a22.959,22.959,0,0,1,16.53,10.294c5.886,9.448,2.507,21.581-3.873,28.683-5.9,6.568-13.995,8.01-18.073,8.5V56.951A18.987,18.987,0,1,0,17.4,22.988a9.86,9.86,0,0,1-3.788-3.228l12.7-12.7A14.7,14.7,0,0,0,35.416,12.192Z"/></svg>