<svg xmlns="http://www.w3.org/2000/svg" viewBox="0 0 69 69"><path fill="#9a9ba5" d="M65.75 20.175v28.65a2 2 0 0 1-2 2H5.25c-1.1 0-2-.9-2-2v-28.65a2 2 0 0 1 2-2h58.5c1.11 0 2 .89 2 2z"/><path fill="#726f76" d="M65.752 20.18v28.65a2 2 0 0 1-2 2h-58.5c-1.1 0-2-.9-2-2v-3.49h55.01a2 2 0 0 0 2-2V18.18h3.49c1.11 0 2 .89 2 2z"/><path fill="#acadb5" d="M29.329 18.18H5.252a2 2 0 0 0-2 2v1.93a2 2 0 0 1 2-2h22.147a1.93 1.93 0 0 0 1.93-1.93z"/><path fill="#fbfbfb" d="M7.25 32.964h54.5v13.861H7.25z"/><path fill="#d3d3d3" d="M61.752 32.96v13.87h-54.5v-3.14h40.63c5.926 0 10.73-4.804 10.73-10.73h3.14z"/><path fill="#e5e5e5" d="M7.252 32.959h23.994v2.09H7.252z"/><path fill="#494949" d="M11.404 32.964h4.009v7.833h-4.009zM19.841 32.964h4.009v7.833h-4.009zM28.277 32.964h4.009v7.833h-4.009zM36.714 32.964h4.009v7.833h-4.009zM45.15 32.964h4.009v7.833H45.15zM53.587 32.964h4.009v7.833h-4.009z"/><path fill="#e5e5e5" d="M7.25 23.315h8.014v4.508H7.25zM53.737 23.315h8.014v4.508h-8.014z"/><circle cx="23.463" cy="25.569" r="1.899" fill="#ffca0f"/><circle cx="30.821" cy="25.569" r="1.899" fill="#ffca0f"/><circle cx="38.179" cy="25.569" r="1.899" fill="#ffca0f"/><circle cx="45.538" cy="25.569" r="1.899" fill="#ffca0f"/><path d="M63.75 17.425H5.25a2.753 2.753 0 0 0-2.75 2.75v28.65a2.753 2.753 0 0 0 2.75 2.75h58.5a2.753 2.753 0 0 0 2.75-2.75v-28.65a2.753 2.753 0 0 0-2.75-2.75zm1.25 31.4c0 .69-.56 1.25-1.25 1.25H5.25c-.69 0-1.25-.56-1.25-1.25v-28.65c0-.69.56-1.25 1.25-1.25h58.5c.701 0 1.25.55 1.25 1.25v28.65z"/><path d="M61.75 32.213H7.25a.75.75 0 0 0-.75.75v13.862c0 .414.336.75.75.75h54.5a.75.75 0 0 0 .75-.75V32.963a.75.75 0 0 0-.75-.75zm-4.904 1.5v6.334h-2.51v-6.334h2.51zm-41.432 7.834a.75.75 0 0 0 .75-.75v-7.084h2.927v7.084c0 .414.336.75.75.75h1.26v4.528h-6.94v-4.528h1.253zm7.187 0h1.25c1.367 0 .5-2.032.75-7.834h2.926c.255 5.94-.594 7.834.75 7.834h1.253v4.528H22.6v-4.528zm8.43 0h1.255c1.367 0 .501-2.032.75-7.834h2.928c.255 5.94-.595 7.834.75 7.834h1.256v4.528h-6.94v-4.528zm8.439 0h1.253c1.367 0 .5-2.032.75-7.834H44.4c.255 5.94-.594 7.834.75 7.834h1.25v4.528h-6.93v-4.528zm8.43 0h1.26c1.366 0 .5-2.032.75-7.834h2.927c.255 5.94-.595 7.834.75 7.834h1.253v4.528H47.9v-4.528zm.51-7.834v6.334H45.9v-6.334h2.51zm-8.437 0v6.334h-2.51v-6.334h2.51zm-8.437 0v6.334h-2.509v-6.334h2.51zm-8.435 0v6.334h-2.51v-6.334h2.51zm-8.437 0v6.334h-2.51v-6.334h2.51zm-6.664 0h2.654v7.084c0 .414.336.75.75.75h1.256v4.528H8V33.713zm53 12.362h-4.66v-4.528h1.256a.75.75 0 0 0 .75-.75v-7.084H61v12.362zM7.25 28.574h8.014a.75.75 0 0 0 .75-.75v-4.508a.75.75 0 0 0-.75-.75H7.25a.75.75 0 0 0-.75.75v4.508c0 .414.336.75.75.75zM8 24.066h6.514v3.008H8v-3.008zm53.75-1.5h-8.014a.75.75 0 0 0-.75.75v4.508c0 .414.336.75.75.75h8.014a.75.75 0 0 0 .75-.75v-4.508a.75.75 0 0 0-.75-.75zM61 27.074h-6.514v-3.008H61v3.008zm-37.537 1.144a2.652 2.652 0 0 0 2.648-2.648c0-1.461-1.188-2.65-2.648-2.65a2.652 2.652 0 0 0-2.65 2.65 2.652 2.652 0 0 0 2.65 2.648zm0-3.798a1.15 1.15 0 0 1 1.148 1.15 1.15 1.15 0 0 1-1.148 1.148 1.15 1.15 0 0 1-1.15-1.148c0-.634.516-1.15 1.15-1.15zm7.358 3.798a2.652 2.652 0 0 0 2.649-2.648c0-1.461-1.189-2.65-2.649-2.65a2.652 2.652 0 0 0-2.65 2.65 2.652 2.652 0 0 0 2.65 2.648zm0-3.798a1.15 1.15 0 0 1 1.149 1.15 1.15 1.15 0 0 1-1.149 1.148 1.15 1.15 0 0 1-1.15-1.148c0-.634.517-1.15 1.15-1.15zm7.359 3.798a2.652 2.652 0 0 0 2.648-2.648c0-1.461-1.188-2.65-2.648-2.65a2.652 2.652 0 0 0-2.65 2.65 2.652 2.652 0 0 0 2.65 2.648zm0-3.798a1.15 1.15 0 0 1 1.148 1.15 1.15 1.15 0 0 1-1.148 1.148 1.15 1.15 0 0 1-1.15-1.148c0-.634.516-1.15 1.15-1.15zm7.358 3.798a2.652 2.652 0 0 0 2.649-2.648c0-1.461-1.189-2.65-2.649-2.65a2.652 2.652 0 0 0-2.65 2.65 2.652 2.652 0 0 0 2.65 2.648zm0-3.798a1.15 1.15 0 0 1 1.149 1.15 1.15 1.15 0 0 1-1.149 1.148 1.15 1.15 0 0 1-1.15-1.148c0-.634.516-1.15 1.15-1.15z"/></svg>