<svg xmlns="http://www.w3.org/2000/svg" viewBox="0 0 69 69"><path fill="#726f76" d="M65.75 15.453v38.1c0 2.21-1.79 4-4 4H7.25c-2.21 0-4-1.79-4-4v-38.1c0-2.21 1.79-4 4-4h54.5c2.21 0 4 1.79 4 4z"/><path fill="#59575b" d="M65.746 15.452v38.1c0 2.21-1.79 4-4 4h-54.5c-2.21 0-4-1.79-4-4v-2.09h52.41c2.21 0 4-1.79 4-4v-36.01h2.09c2.21 0 4 1.79 4 4z"/><path fill="#9a9ba5" d="M32.027 11.452H7.246a4 4 0 0 0-4 4v2.39c0-2.21 1.79-4 4-4h22.391a2.39 2.39 0 0 0 2.39-2.39z"/><path fill="#ffca0f" d="M37.15 31.353v6.05c0 .55-.45 1-1 1h-3.3c-.55 0-1-.45-1-1v-6.05c0-.55.45-1 1-1h3.3c.55 0 1 .45 1 1zm11.31-3.19v6.05c0 .55-.45 1-1 1h-3.31c-.55 0-1-.45-1-1v-6.05c0-.55.45-1 1-1h3.31c.55 0 1 .45 1 1zm11.3-5.81v6.05c0 .55-.45 1-1 1h-3.31c-.55 0-1-.45-1-1v-6.05c0-.55.45-1 1-1h3.31c.55 0 1 .45 1 1zm-45.21-4.02v6.04c0 .55-.45 1-1 1h-3.31c-.55 0-1-.45-1-1v-6.04c0-.55.45-1 1-1h3.31c.55 0 1 .45 1 1zm11.3 6.95v6.05c0 .55-.45 1-1 1h-3.31c-.55 0-1-.45-1-1v-6.05c0-.55.45-1 1-1h3.31c.55 0 1 .45 1 1z"/><path fill="#ffa301" d="M37.146 31.352v6.05c0 .55-.45 1-1 1h-2.21c.55 0 1-.45 1-1v-6.05c0-.55-.45-1-1-1h2.21c.55 0 1 .45 1 1zm11.31-3.19v6.05c0 .55-.45 1-1 1h-2.21c.55 0 1-.45 1-1v-6.05c0-.55-.45-1-1-1h2.21c.55 0 1 .45 1 1zm11.3-5.81v6.05c0 .55-.45 1-1 1h-2.21c.55 0 1-.45 1-1v-6.05c0-.55-.45-1-1-1h2.21c.55 0 1 .45 1 1zm-45.21-4.02v6.04c0 .55-.45 1-1 1h-2.21c.55 0 1-.45 1-1v-6.04c0-.55-.45-1-1-1h2.21c.55 0 1 .45 1 1zm11.3 6.95v6.05c0 .55-.45 1-1 1h-2.21c.55 0 1-.45 1-1v-6.05c0-.55-.45-1-1-1h2.21c.55 0 1 .45 1 1z"/><path fill="#ffed91" d="M34.216 38.402h-1.37c-.55 0-1-.45-1-1v-6.05c0-.55.45-1 1-1h1.37c-.55 0-1 .45-1 1v6.05c0 .55.45 1 1 1zm11.3-3.19h-1.37c-.55 0-1-.45-1-1v-6.05c0-.55.45-1 1-1h1.37c-.55 0-1 .45-1 1v6.05c0 .55.45 1 1 1zm11.3-5.81h-1.37c-.55 0-1-.45-1-1v-6.05c0-.55.45-1 1-1h1.37c-.55 0-1 .45-1 1v6.05c0 .55.45 1 1 1zm-45.21-4.03h-1.37c-.55 0-1-.45-1-1v-6.04c0-.55.45-1 1-1h1.37c-.55 0-1 .45-1 1v6.04c0 .55.45 1 1 1zm11.3 6.96h-1.37c-.55 0-1-.45-1-1v-6.05c0-.55.45-1 1-1h1.37c-.55 0-1 .45-1 1v6.05c0 .55.45 1 1 1z"/><path d="M61.75 10.7H7.25c-2.62 0-4.75 2.13-4.75 4.75v38.1c0 2.62 2.13 4.75 4.75 4.75h54.5c2.62 0 4.75-2.13 4.75-4.75v-38.1c0-2.62-2.13-4.75-4.75-4.75zM65 53.55c0 1.8-1.46 3.25-3.25 3.25H7.25A3.25 3.25 0 0 1 4 53.55v-38.1c0-1.79 1.46-3.25 3.25-3.25h54.5c1.79 0 3.25 1.46 3.25 3.25v38.1z"/><path d="M36.15 29.6h-.9V17.33c0-.41-.34-.75-.75-.75s-.75.34-.75.75V29.6h-.9c-.97 0-1.75.79-1.75 1.75v6.05c0 .97.78 1.75 1.75 1.75h.9v12.28c0 .41.34.75.75.75s.75-.34.75-.75V39.15h.9c.96 0 1.75-.78 1.75-1.75v-6.05c0-.96-.79-1.75-1.75-1.75zm.25 7.8c0 .14-.11.25-.25.25h-3.3c-.14 0-.25-.11-.25-.25v-6.05c0-.13.11-.25.25-.25h3.3c.14 0 .25.12.25.25v6.05zm11.06-10.99h-.91v-9.08a.749.749 0 1 0-1.5 0v9.08h-.9c-.97 0-1.75.79-1.75 1.75v6.05c0 .97.78 1.75 1.75 1.75h.9v15.47a.749.749 0 1 0 1.5 0V35.96h.91c.96 0 1.75-.78 1.75-1.75v-6.05c0-.96-.79-1.75-1.75-1.75zm.25 7.8c0 .14-.11.25-.25.25h-3.31c-.14 0-.25-.11-.25-.25v-6.05c0-.13.11-.25.25-.25h3.31c.14 0 .25.12.25.25v6.05zM58.76 20.6h-.91v-3.27a.749.749 0 1 0-1.5 0v3.27h-.9c-.96 0-1.75.79-1.75 1.75v6.05c0 .97.79 1.75 1.75 1.75h.9v21.28a.749.749 0 1 0 1.5 0V30.15h.91c.96 0 1.75-.78 1.75-1.75v-6.05c0-.96-.79-1.75-1.75-1.75zm.25 7.8c0 .14-.11.25-.25.25h-3.31c-.14 0-.25-.11-.25-.25v-6.05c0-.13.11-.25.25-.25h3.31c.14 0 .25.12.25.25v6.05zM13.55 16.58h-3.31c-.96 0-1.75.79-1.75 1.75v6.04c0 .97.79 1.75 1.75 1.75h.9v25.31a.749.749 0 1 0 1.5 0V26.12h.91c.96 0 1.75-.78 1.75-1.75v-6.04c0-.96-.79-1.75-1.75-1.75zm.25 7.79c0 .14-.11.25-.25.25h-3.31c-.14 0-.25-.11-.25-.25v-6.04c0-.13.11-.25.25-.25h3.31c.14 0 .25.12.25.25v6.04zm11.05-.84h-.9v-6.2a.749.749 0 1 0-1.5 0v6.2h-.91c-.96 0-1.75.79-1.75 1.75v6.05c0 .97.79 1.75 1.75 1.75h.91v18.35a.749.749 0 1 0 1.5 0V33.08h.9c.96 0 1.75-.78 1.75-1.75v-6.05c0-.96-.79-1.75-1.75-1.75zm.25 7.8c0 .14-.11.25-.25.25h-3.31c-.14 0-.25-.11-.25-.25v-6.05c0-.13.11-.25.25-.25h3.31c.14 0 .25.12.25.25v6.05z"/></svg>