<svg xmlns="http://www.w3.org/2000/svg" viewBox="0 0 69 69"><path fill="#f0373c" d="M65.922 31.292v20.35c0 2.46-2.82 4.7-7.48 6.43-3.58 1.32-8.24 2.35-13.56 2.92-3.2.36-6.63.55-10.21.55s-7.01-.19-10.21-.55c-5.32-.57-9.98-1.6-13.56-2.92-4.66-1.73-7.48-3.97-7.48-6.43v-20.35c6.65 4.6 18.99 6.73 31.25 6.73s24.6-2.13 31.25-6.73z"/><path fill="#f0373c" d="M65.922 31.292v20.35c0 2.46-2.82 4.7-7.48 6.43-3.58 1.32-8.24 2.35-13.56 2.92-3.2.36-6.63.55-10.21.55s-7.01-.19-10.21-.55c-5.32-.57-9.98-1.6-13.56-2.92-4.19-1.56-6.9-3.53-7.39-5.7.89.47 1.9.91 3.02 1.33 3.58 1.32 8.24 2.35 13.56 2.92 3.2.36 6.63.55 10.21.55s7.01-.19 10.21-.55c5.32-.57 9.98-1.6 13.56-2.92 4.66-1.73 7.48-3.97 7.48-6.43v-13.62c1.63-.7 3.1-1.49 4.37-2.36z"/><path fill="#fe5c6e" d="M24.195 37.477c-8.418-.894-16.04-2.91-20.773-6.185v3.11c4.734 3.275 12.355 5.291 20.773 6.185v-3.11z"/><path fill="#6b6c6b" d="M65.925 51.644v5c0 2.46-2.82 4.7-7.48 6.43-3.58 1.32-8.24 2.35-13.56 2.92-3.2.36-6.63.55-10.21.55s-7.01-.19-10.21-.55c-5.32-.57-9.98-1.6-13.56-2.92-4.66-1.73-7.48-3.97-7.48-6.43v-5c0 2.46 2.82 4.7 7.48 6.43 3.58 1.32 8.24 2.35 13.56 2.92 3.2.36 6.63.55 10.21.55s7.01-.19 10.21-.55c5.32-.57 9.98-1.6 13.56-2.92 4.66-1.73 7.48-3.97 7.48-6.43z"/><path fill="#494949" d="M65.922 54.532v2.11c0 2.46-2.82 4.7-7.48 6.43-3.58 1.32-8.24 2.35-13.56 2.92-3.2.36-6.63.55-10.21.55s-7.01-.19-10.21-.55c-5.32-.57-9.98-1.6-13.56-2.92-4.66-1.73-7.48-3.97-7.48-6.43v-2.11c0 2.46 2.82 4.7 7.48 6.43 3.58 1.32 8.24 2.35 13.56 2.92 3.2.36 6.63.55 10.21.55s7.01-.19 10.21-.55c5.32-.57 9.98-1.6 13.56-2.92 4.66-1.73 7.48-3.97 7.48-6.43z"/><path fill="#6b6c6b" d="M65.925 23.124v8.17c-6.65 4.6-18.99 6.73-31.25 6.73s-24.6-2.13-31.25-6.73v-8.17h62.5z"/><path fill="#494949" d="M65.922 28.912v2.38c-6.65 4.6-18.99 6.73-31.25 6.73s-24.6-2.13-31.25-6.73v-2.38c6.65 4.6 18.99 6.73 31.25 6.73s24.6-2.13 31.25-6.73z"/><path fill="#e5e5e5" d="M65.925 23.124c0 5.47-13.99 9.9-31.25 9.9s-31.25-4.43-31.25-9.9c0-5.46 13.99-9.89 31.25-9.89s31.25 4.43 31.25 9.89z"/><path fill="#d3d3d3" d="M65.922 23.122c0 5.47-13.99 9.9-31.25 9.9-16.06 0-29.29-3.84-31.05-8.78 5.3 3.08 15.6 5.16 27.44 5.16 17.26 0 31.25-4.43 31.25-9.9 0-.38-.07-.75-.2-1.11 2.43 1.4 3.81 3.01 3.81 4.73z"/><path fill="#fbfbfb" d="M65.212 21.032c-4.75-3.55-15.84-6.03-28.77-6.03-17.26 0-31.25 4.43-31.25 9.89 0 .71.24 1.41.69 2.08-1.59-1.18-2.46-2.48-2.46-3.85 0-5.46 13.99-9.89 31.25-9.89 14.99 0 27.51 3.34 30.54 7.8z"/><circle cx="10.905" cy="34.813" r="2.08" fill="#fbfbfb"/><circle cx="24.465" cy="37.514" r="2.08" fill="#fbfbfb"/><circle cx="44.885" cy="37.514" r="2.08" fill="#fbfbfb"/><circle cx="58.445" cy="34.814" r="2.08" fill="#fbfbfb"/><circle cx="10.905" cy="58.281" r="2.08" fill="#fbfbfb"/><circle cx="24.465" cy="60.982" r="2.08" fill="#fbfbfb"/><circle cx="44.885" cy="60.982" r="2.08" fill="#fbfbfb"/><circle cx="58.445" cy="58.282" r="2.08" fill="#fbfbfb"/><path fill="#c87b2c" d="M36.425 23.664c0 2.4-1.94 4.34-4.34 4.34a4.336 4.336 0 0 1-4.25-5.21L3.915 6.084c-.9-.64-1.12-1.88-.49-2.79.39-.55 1.01-.85 1.64-.85.4 0 .79.11 1.14.36l24.16 16.88c.53-.23 1.11-.36 1.72-.36 2.4 0 4.34 1.95 4.34 4.34z"/><path fill="#d88f52" d="M36.422 23.662c0 1.61-.88 3.02-2.18 3.76a4.342 4.342 0 0 0-3.79-6.46c-.61 0-1.19.13-1.72.36L4.572 4.442c-.35-.25-.74-.36-1.14-.36-.11 0-.23.01-.34.03.05-.29.16-.57.33-.82.39-.55 1.01-.85 1.64-.85.4 0 .79.11 1.14.36l24.16 16.88c.53-.23 1.11-.36 1.72-.36 2.4 0 4.34 1.95 4.34 4.34z"/><path fill="#c87b2c" d="M40.545 19.564c0 2.4 1.94 4.34 4.34 4.34a4.336 4.336 0 0 0 4.25-5.21l15.94-11.76c.9-.64 1.12-1.88.49-2.79-.39-.55-1.01-.85-1.64-.85-.4 0-.79.11-1.14.36l-16.18 11.93c-.53-.23-1.11-.36-1.72-.36-2.4 0-4.34 1.95-4.34 4.34z"/><path fill="#d88f52" d="M65.812 4.642c-.21-.07-.43-.11-.65-.11-.4 0-.79.11-1.14.36l-16.18 11.93c-.53-.23-1.11-.36-1.72-.36-2.4 0-4.34 1.95-4.34 4.34 0 .88.27 1.71.71 2.39a4.332 4.332 0 0 1-1.95-3.63c0-2.39 1.94-4.34 4.34-4.34.61 0 1.19.13 1.72.36l16.18-11.93c.35-.25.74-.36 1.14-.36.63 0 1.25.3 1.64.85.11.16.19.32.25.5z"/><path d="M66.676 23.12c0-3.54-4.59-6.32-11.24-8.15l10.07-7.43c1.23-.87 1.53-2.59.67-3.83-.85-1.2-2.65-1.51-3.84-.66l-14.13 10.42c-4.27-.65-8.93-.99-13.53-.99-4.12 0-8.28.27-12.18.79L6.636 2.19c-1.17-.84-2.97-.54-3.83.68-.85 1.23-.55 2.95.68 3.83l11.45 8c-7.198 1.83-12.257 4.71-12.26 8.418v33.526c0 3.554 4.63 5.894 7.97 7.133 9.579 3.533 23.902 4.136 34.32 2.962 6.64-.71 21.71-3.479 21.71-10.095V23.12zm-3.46-18.86c.53-.37 1.35-.23 1.73.31.39.57.26 1.35-.32 1.76-30.14 22.235 3.828-2.823-15.94 11.76-.23.17-.35.47-.28.76.04.23.07.47.07.71 0 1.98-1.61 3.59-3.59 3.59-1.98 0-3.59-1.61-3.59-3.59 0-1.98 1.61-3.59 3.59-3.59.49 0 .96.1 1.42.3.24.11.53.08.74-.08.138-.1 3.753-2.767 16.17-11.93zm-16.69 10.45-.04.03-.18-.06.22.03zM4.346 5.47c-.56-.4-.7-1.18-.31-1.74.41-.579 1.192-.709 1.74-.31l24.16 16.88c.21.15.49.17.73.07.45-.2.93-.3 1.42-.3 1.98 0 3.59 1.61 3.59 3.59s-1.61 3.59-3.59 3.59a3.593 3.593 0 0 1-3.52-4.3.73.73 0 0 0-.3-.77C6.083 6.677 14.584 12.623 4.346 5.47zm12.19 10.35 10.49 7.32c-.02.17-.03.35-.03.52 0 2.81 2.28 5.09 5.09 5.09s5.09-2.28 5.09-5.09c0-2.8-2.28-5.09-5.09-5.09-.55 0-1.1.09-1.62.27l-6.16-4.3c3.17-.36 6.65-.56 10.37-.56 3.55 0 6.87.18 9.92.51-2.68.14-4.8 2.37-4.8 5.07 0 2.81 2.28 5.09 5.09 5.09a5.091 5.091 0 0 0 5.06-5.62l3.99-2.95c7.08 1.79 11.24 4.47 11.24 7.04 0 4.42-12.26 9.15-30.5 9.15-18.25 0-30.5-4.73-30.5-9.15 0-2.7 4.6-5.52 12.36-7.3zm18.14 17.95c12.89 0 26.139-2.669 30.5-7.308v4.434c-1.257.83-2.755 1.584-4.437 2.267a2.812 2.812 0 0 0-2.293-1.182c-1.56 0-2.83 1.27-2.83 2.83v.023c-2.47.66-5.176 1.197-8.114 1.598a2.835 2.835 0 0 0-2.616-1.751 2.815 2.815 0 0 0-2.768 2.283 103.17 103.17 0 0 1-14.875.004 2.832 2.832 0 0 0-2.777-2.287c-1.17 0-2.179.72-2.609 1.739-3.34-.452-5.602-.914-8.12-1.588v-.021c0-1.56-1.27-2.83-2.83-2.83-.94 0-1.77.46-2.29 1.17l-.002.001c-1.678-.68-3.185-1.429-4.44-2.256V26.46h.001c4.36 4.64 17.61 7.31 30.5 7.31zm30.5 17.874c0 1.607-1.672 3.275-4.65 4.727-.35-.39-.81-.68-1.33-.81h-.001V37.53h.001c1.2-.32 2.08-1.42 2.08-2.72 0-.08 0-.17-.01-.25v-.005c1.44-.581 2.756-1.212 3.91-1.898v18.986zM44.8 65.25c-6.43.724-13.82.723-20.255 0-5.143-.552-9.77-1.547-13.38-2.878-2.538-.943-6.99-3.02-6.99-5.727v-1.65c.91.967 2.258 1.868 3.966 2.7-.001.006-.004.011-.006.017-.04.18-.06.38-.06.57 0 1.56 1.27 2.83 2.83 2.83 1.06 0 1.99-.59 2.47-1.45l.002-.004c2.83.82 5.401 1.316 8.287 1.728l.001.016c.2 1.36 1.38 2.41 2.8 2.41 1.2 0 2.23-.75 2.64-1.81v-.011c5.7.45 10.516.361 15.137-.01l.003.01a2.842 2.842 0 0 0 2.64 1.82c2.416 0 2.744-2.32 2.8-2.42 2.725-.39 5.224-.85 8.286-1.74.098.102.773 1.46 2.474 1.46 1.56 0 2.83-1.27 2.83-2.83 0-.19-.02-.39-.06-.57 0-.005-.004-.01-.005-.016 1.707-.832 3.055-1.734 3.964-2.7v1.65c0 5.386-14.807 8.008-20.374 8.605zM4.175 32.66c1.155.686 2.472 1.318 3.913 1.9.033.1-.223 2.357 2.067 2.97v18.03a2.66 2.66 0 0 0-1.318.8c-2.974-1.45-4.662-3.112-4.662-4.717V32.661zm17.491 5.262v.008c.17 1.11.98 2.01 2.05 2.3v18.03a2.831 2.831 0 0 0-1.861 1.635c-2.234-.32-4.995-.791-8.12-1.703a2.818 2.818 0 0 0-2.079-2.632h-.001V37.53h.001c.69-.18 1.28-.63 1.65-1.23.01 0 .01 0 .01-.01l.005-.01c2.813.75 5.484 1.251 8.345 1.642zm5.45.568c.004 0 .003-.005.004-.007 5.385.4 9.982.376 15.108-.01 0 .008 0 .017.008.017.31.85 1.02 1.51 1.9 1.74v18.03a2.8 2.8 0 0 0-2.027 2.218 92.7 92.7 0 0 1-14.866-.002 2.8 2.8 0 0 0-2.027-2.216V40.23c.88-.23 1.59-.89 1.9-1.74zm20.57-.57v-.002c3.419-.467 6.008-1.019 8.35-1.641V36.291c.37.6.96 1.059 1.659 1.24v18.03a2.818 2.818 0 0 0-2.077 2.627c-2.14.625-4.422 1.18-8.118 1.71a2.83 2.83 0 0 0-1.864-1.637V40.23a2.813 2.813 0 0 0 2.05-2.31zm10.76 19.03c.73 0 1.33.6 1.33 1.33s-.6 1.33-1.33 1.33c-.73 0-1.33-.6-1.33-1.33s.6-1.33 1.33-1.33zm0-20.81a1.33 1.33 0 1 1 0-2.659 1.33 1.33 0 0 1 0 2.659zm-13.56 23.51c.73 0 1.33.6 1.33 1.33s-.6 1.33-1.33 1.33c-.73 0-1.33-.6-1.33-1.33s.6-1.33 1.33-1.33zm0-20.81a1.33 1.33 0 1 1 0-2.659 1.33 1.33 0 0 1 0 2.659zm-20.42 20.81c.73 0 1.33.6 1.33 1.33s-.6 1.33-1.33 1.33c-.73 0-1.33-.6-1.33-1.33s.6-1.33 1.33-1.33zm0-20.81a1.33 1.33 0 1 1 0-2.659 1.33 1.33 0 0 1 0 2.659zm-13.56 18.11c.73 0 1.33.6 1.33 1.33s-.6 1.33-1.33 1.33c-.73 0-1.33-.6-1.33-1.33s.6-1.33 1.33-1.33zm0-20.81a1.33 1.33 0 1 1 0-2.66c1.761 0 1.761 2.66 0 2.66z"/></svg>