<svg xmlns="http://www.w3.org/2000/svg" viewBox="0 0 69 69"><path fill="#d3d3d3" d="M63.568 28.25 5.05 22.634a2 2 0 1 1 .382-3.982l58.518 5.617a2 2 0 1 1-.382 3.982zM3.25 48.549a2 2 0 0 1 1.8-2.182l58.518-5.618a2 2 0 0 1 .382 3.982L5.432 50.349a2 2 0 0 1-2.182-1.8z"/><path fill="#f0373c" d="M13.455 54.95a4.722 4.722 0 0 1-4.722-4.723V18.771a4.722 4.722 0 1 1 9.443 0v31.456a4.722 4.722 0 0 1-4.721 4.722z"/><path fill="#d5202a" d="M18.18 18.774v31.45a4.724 4.724 0 0 1-6.08 4.52 4.713 4.713 0 0 0 3.37-4.52v-31.45c0-1.31-.53-2.49-1.39-3.34-.54-.54-1.22-.96-1.98-1.18a4.708 4.708 0 0 1 4.69 1.18c.86.85 1.39 2.03 1.39 3.34z"/><path fill="#fe5c6e" d="M14.29 54.864c-.27.05-.55.08-.84.08-2.6 0-4.72-2.11-4.72-4.72v-31.45c0-2.61 2.12-4.72 4.72-4.72.29 0 .57.03.84.08a4.707 4.707 0 0 0-3.88 4.64v31.45c0 2.32 1.67 4.25 3.88 4.64z"/><path fill="#59b9ff" d="M27.485 52.95a4.722 4.722 0 0 1-4.722-4.723V20.771a4.722 4.722 0 1 1 9.443 0v27.456a4.722 4.722 0 0 1-4.721 4.722z"/><path fill="#489cd5" d="M32.21 20.774v27.45c0 2.61-2.12 4.72-4.73 4.72-.4 0-.79-.05-1.16-.15a4.72 4.72 0 0 0 3.55-4.57v-27.45c0-1.31-.53-2.49-1.39-3.34a4.671 4.671 0 0 0-2.16-1.23c.37-.1.76-.15 1.16-.15 1.3 0 2.49.53 3.34 1.38.86.85 1.39 2.03 1.39 3.34z"/><path fill="#b4dff9" d="M28.32 52.864c-.27.05-.55.08-.84.08-2.6 0-4.72-2.11-4.72-4.72v-27.45c0-2.61 2.12-4.72 4.72-4.72.29 0 .57.03.84.08a4.707 4.707 0 0 0-3.88 4.64v27.45c0 2.32 1.67 4.25 3.88 4.64z"/><path fill="#ffca0f" d="M41.515 50.95a4.722 4.722 0 0 1-4.722-4.723V22.771a4.722 4.722 0 1 1 9.443 0v23.456a4.722 4.722 0 0 1-4.721 4.722z"/><path fill="#ffa301" d="M46.24 22.774v23.45c0 2.61-2.12 4.72-4.73 4.72-.47 0-.92-.07-1.34-.19a4.725 4.725 0 0 0 3.38-4.53v-23.45c0-1.31-.53-2.49-1.38-3.34-.55-.55-1.23-.96-2-1.19.42-.12.87-.19 1.34-.19 1.31 0 2.49.53 3.34 1.38.86.85 1.39 2.03 1.39 3.34z"/><path fill="#ffed91" d="M42.35 50.864c-.27.05-.55.08-.84.08-2.6 0-4.72-2.11-4.72-4.72v-23.45c0-2.61 2.12-4.72 4.72-4.72.29 0 .57.03.84.08a4.707 4.707 0 0 0-3.88 4.64v23.45c0 2.32 1.67 4.25 3.88 4.64z"/><path fill="#3cb547" d="M55.545 48.95a4.722 4.722 0 0 1-4.722-4.723V24.771a4.722 4.722 0 1 1 9.443 0v19.456a4.722 4.722 0 0 1-4.721 4.722z"/><path fill="#278d50" d="M60.27 24.774v19.45a4.724 4.724 0 0 1-5.9 4.57 4.71 4.71 0 0 0 3.55-4.57v-19.45a4.704 4.704 0 0 0-3.55-4.57 4.725 4.725 0 0 1 4.51 1.23c.86.85 1.39 2.03 1.39 3.34z"/><path fill="#b7e17a" d="M56.38 48.864c-.27.05-.55.08-.84.08-2.6 0-4.72-2.11-4.72-4.72v-19.45c0-2.61 2.12-4.72 4.72-4.72.29 0 .57.03.84.08a4.707 4.707 0 0 0-3.88 4.64v19.45c0 2.32 1.67 4.25 3.88 4.64z"/><circle cx="13.455" cy="20.697" r="1.678" fill="#fbfbfb"/><circle cx="13.455" cy="48.302" r="1.678" fill="#fbfbfb"/><circle cx="27.485" cy="22.567" r="1.678" fill="#fbfbfb"/><circle cx="27.485" cy="46.432" r="1.678" fill="#fbfbfb"/><circle cx="55.545" cy="25.922" r="1.678" fill="#fbfbfb"/><circle cx="55.545" cy="43.077" r="1.678" fill="#fbfbfb"/><circle cx="41.515" cy="24.107" r="1.678" fill="#fbfbfb"/><circle cx="41.515" cy="44.892" r="1.678" fill="#fbfbfb"/><path fill="#c87b2c" d="M59.487 13.886a1.472 1.472 0 0 1-1.796 1.052l-21.35-5.575.745-2.849 21.349 5.576a1.472 1.472 0 0 1 1.052 1.796zm.26 43.25c.137.8-.4 1.562-1.202 1.7L36.8 62.573l-.499-2.901 21.747-3.738c.801-.138 1.562.4 1.7 1.202z"/><circle cx="35.99" cy="7.749" fill="#726f76" transform="rotate(-70.077 35.99 7.75)" r="4.499"/><ellipse cx="35.812" cy="61.249" fill="#726f76" rx="4.5" ry="4.499" transform="rotate(-79.697 35.812 61.25)"/><path fill="#9a9ba5" d="M39.79 5.344c-.39-.26-.82-.46-1.3-.58A4.5 4.5 0 0 0 33 7.974c-.33 1.26-.09 2.54.56 3.56a4.494 4.494 0 0 1-1.92-4.92 4.489 4.489 0 0 1 5.49-3.22c1.15.3 2.08 1.02 2.66 1.95zM39.59 58.824a4.42 4.42 0 0 0-3.18-.64 4.498 4.498 0 0 0-3.02 6.86 4.509 4.509 0 0 1-2.01-3.03 4.5 4.5 0 0 1 3.67-5.2c1.84-.32 3.61.53 4.54 2.01z"/><path d="m63.496 40.002-2.481.239V28.759l2.48.238a2.754 2.754 0 0 0 3.001-2.475 2.75 2.75 0 0 0-2.475-3l-3.237-.31a5.466 5.466 0 0 0-5.24-3.91c-2.11 0-3.94 1.19-4.85 2.94l-3.79-.363a5.455 5.455 0 0 0-5.39-4.576 5.455 5.455 0 0 0-5.118 3.567l-3.452-.331a5.47 5.47 0 0 0-5.46-5.236 5.47 5.47 0 0 0-5.32 4.2v.001l-3.24-.31v-.421a5.467 5.467 0 0 0-10.9-.63v.004l-2.52-.242a2.72 2.72 0 0 0-2.013.615 2.734 2.734 0 0 0-.988 1.86 2.755 2.755 0 0 0 2.475 3l3.007.288v21.663l-3.007.289a2.748 2.748 0 0 0-2.475 3 2.748 2.748 0 0 0 3 2.474l2.522-.242a5.468 5.468 0 0 0 5.43 4.85c3.02 0 5.47-2.46 5.47-5.48v-.416l3.25-.312a5.458 5.458 0 0 0 5.31 4.209 5.47 5.47 0 0 0 5.46-5.24v-.003l3.449-.33v.003a5.465 5.465 0 0 0 5.12 3.57c2.71 0 4.97-1.98 5.39-4.58l.001-.003 3.797-.364.003.007a5.453 5.453 0 0 0 4.84 2.94c2.478 0 4.566-1.658 5.238-3.915l3.239-.31a2.755 2.755 0 0 0 2.475-3 2.748 2.748 0 0 0-3.001-2.476zM22.015 20.996v2.513l-3.09-.297V20.7l3.09.297zm0 4.019v18.97l-3.09.296V24.718l3.09.297zM5.122 21.887a1.253 1.253 0 0 1-.677-2.21c.258-.213.584-.315.915-.28l2.625.252v2.513l-2.863-.275zm.238 27.715a1.25 1.25 0 0 1-.238-2.49l2.863-.275v2.513l-2.625.252zm12.065.62c0 2.19-1.78 3.98-3.97 3.98s-3.97-1.79-3.97-3.98v-31.45c0-2.19 1.78-3.97 3.97-3.97s3.97 1.78 3.97 3.97v31.45zm1.5-4.435 3.09-.297v2.513l-3.09.297v-2.513zm31.15-19.585-3.09-.296v-2.513l3.199.307a5.49 5.49 0 0 0-.11 1.073v1.43zm-3.09 15.385V27.412l3.09.296v13.583l-3.09.296zm3.09 1.21v1.426c0 .369.04.727.11 1.076l-3.2.308v-2.514l3.09-.296zm-14.03-17.941-3.09-.297v-2.513l3.11.298c-.01.14-.02.29-.02.429v2.083zm0 1.506v16.276l-3.09.296v-16.87l3.09.298zm-4.59 21.86c0 2.19-1.78 3.98-3.97 3.98s-3.97-1.79-3.97-3.98v-27.45c0-2.19 1.78-3.97 3.97-3.97s3.97 1.78 3.97 3.97v27.45zm1.5-1.269V44.44l3.09-.296v2.079c0 .14.01.29.02.43v.002l-3.11.298zm12.53-.73c0 2.19-1.78 3.98-3.97 3.98s-3.97-1.79-3.97-3.98v-23.45c0-2.19 1.78-3.97 3.97-3.97s3.97 1.78 3.97 3.97v23.45zm19.518-19.844a1.261 1.261 0 0 1-1.364 1.125l-2.624-.251v-2.514l2.863.275a1.25 1.25 0 0 1 1.125 1.365zm-5.488 17.844c0 2.19-1.78 3.98-3.97 3.98s-3.97-1.79-3.97-3.98v-19.45c0-2.19 1.78-3.97 3.97-3.97s3.97 1.78 3.97 3.97v19.45zm4.363-.238-2.863.275v-2.513l2.624-.252a1.252 1.252 0 0 1 1.364 1.125 1.253 1.253 0 0 1-1.125 1.365z"/><path d="M13.455 18.633c-1.14 0-2.07.92-2.07 2.06s.93 2.07 2.07 2.07 2.07-.93 2.07-2.07-.93-2.06-2.07-2.06zm0 3.35c-.71 0-1.29-.58-1.29-1.29 0-.71.58-1.28 1.29-1.28s1.29.57 1.29 1.28c0 .71-.58 1.29-1.29 1.29zm0 24.25c-1.14 0-2.07.93-2.07 2.07s.93 2.07 2.07 2.07 2.07-.93 2.07-2.07-.93-2.07-2.07-2.07zm0 3.36c-.71 0-1.29-.58-1.29-1.29s.58-1.29 1.29-1.29 1.29.58 1.29 1.29-.58 1.29-1.29 1.29zm14.03-29.09c-1.14 0-2.07.92-2.07 2.06s.93 2.07 2.07 2.07c1.14 0 2.07-.93 2.07-2.07s-.93-2.06-2.07-2.06zm0 3.35c-.71 0-1.29-.58-1.29-1.29s.58-1.28 1.29-1.28c.71 0 1.29.57 1.29 1.28s-.58 1.29-1.29 1.29zm0 20.51c-1.14 0-2.07.93-2.07 2.07s.93 2.07 2.07 2.07c1.14 0 2.07-.93 2.07-2.07s-.93-2.07-2.07-2.07zm0 3.36c-.71 0-1.29-.58-1.29-1.29s.58-1.29 1.29-1.29c.71 0 1.29.58 1.29 1.29s-.58 1.29-1.29 1.29zm28.06-23.87c-1.14 0-2.07.93-2.07 2.07s.93 2.07 2.07 2.07c1.14 0 2.07-.93 2.07-2.07s-.93-2.07-2.07-2.07zm0 3.36c-.71 0-1.29-.58-1.29-1.29 0-.71.58-1.29 1.29-1.29.71 0 1.29.58 1.29 1.29 0 .71-.58 1.29-1.29 1.29zm0 13.8c-1.14 0-2.07.92-2.07 2.06s.93 2.07 2.07 2.07c1.14 0 2.07-.93 2.07-2.07s-.93-2.06-2.07-2.06zm0 3.35c-.71 0-1.29-.58-1.29-1.29 0-.71.58-1.28 1.29-1.28.71 0 1.29.57 1.29 1.28 0 .71-.58 1.29-1.29 1.29zm-14.03-22.32c-1.14 0-2.07.92-2.07 2.06 0 1.14.93 2.07 2.07 2.07s2.07-.93 2.07-2.07c0-1.14-.93-2.06-2.07-2.06zm0 3.35c-.71 0-1.29-.58-1.29-1.29 0-.71.58-1.28 1.29-1.28.71 0 1.29.57 1.29 1.28 0 .71-.58 1.29-1.29 1.29zm0 17.43c-1.14 0-2.07.93-2.07 2.07 0 1.14.93 2.07 2.07 2.07s2.07-.93 2.07-2.07c0-1.14-.93-2.07-2.07-2.07zm0 3.36c-.71 0-1.29-.58-1.29-1.29 0-.71.58-1.29 1.29-1.29.71 0 1.29.58 1.29 1.29 0 .71-.58 1.29-1.29 1.29zm16.41 9.01-17.81 3.06a5.224 5.224 0 0 0-5.19-2.18 5.26 5.26 0 0 0-4.29 6.07 5.257 5.257 0 0 0 10.25.49l17.79-3.06a2.23 2.23 0 0 0 1.81-2.56 2.232 2.232 0 0 0-2.56-1.82zm-21.48 9.75a3.741 3.741 0 0 1-4.33-3.06c-.339-1.972.956-3.965 3.06-4.33 1.96-.357 3.98.964 4.33 3.06a3.749 3.749 0 0 1-3.06 4.33zm21.97-6.85-17.36 2.98c0-.23-.03-.47-.07-.71-.04-.24-.1-.48-.18-.71l17.37-2.98c.311-.078.769.16.83.59a.71.71 0 0 1-.59.83zm-23.75-45.27c.44.12.89.18 1.33.18 1.464 0 3.015-.644 4.03-1.9l17.48 4.56c1.103.306 2.389-.356 2.71-1.59a2.23 2.23 0 0 0-1.59-2.71l-17.48-4.56c-.36-1.94-1.8-3.6-3.83-4.13a5.25 5.25 0 0 0-6.4 3.75c-.74 2.8.95 5.67 3.75 6.4zm24.1.87c-.1.39-.5.62-.88.52l-17.05-4.45c.09-.22.17-.45.23-.69s.11-.48.13-.71l17.05 4.45c.39.1.62.5.52.88zm-26.4-6.89a3.755 3.755 0 0 1 4.57-2.68 3.759 3.759 0 0 1 2.68 4.57c-.488 1.951-2.53 3.227-4.57 2.68-1.996-.515-3.218-2.563-2.68-4.57z"/></svg>