<svg xmlns="http://www.w3.org/2000/svg" viewBox="0 0 69 69"><path fill="#ffca0f" d="M6 15.165A9.315 9.315 0 0 0 6 28.38l21.67 21.545 4.685-4.657-21.671-21.545a2.747 2.747 0 0 1 0-3.9 2.791 2.791 0 0 1 3.923 0L48.634 53.65c3.911 3.889 10.27 3.889 14.182 0s3.912-10.211 0-14.1L52.34 29.136c-1.826-1.804-5.457-4.925-4.098-9.896l-10.54 10.479c5-1.351 8.139 2.258 9.954 4.075l10.476 10.414a3.37 3.37 0 0 1 0 4.786 3.418 3.418 0 0 1-4.814 0L19.291 15.165c-3.665-3.644-9.626-3.644-13.292 0z"/><path fill="#ffa301" d="M62.818 53.655c-.44.44-.92.83-1.42 1.16a9.925 9.925 0 0 0-1.17-12.68l-10.47-10.41c-1.83-1.81-5.46-4.93-4.1-9.9l-7.93 7.88c-.01 0-.02.01-.03.01l10.54-10.47c-1.36 4.97 2.28 8.09 4.1 9.89l10.48 10.42c3.91 3.88 3.91 10.21 0 14.1z"/><path fill="#ffed91" d="m32.348 45.255.01.01-4.69 4.66-21.67-21.54c-3.66-3.65-3.66-9.58 0-13.22.27-.27.55-.51.84-.74-2.88 3.66-2.62 8.98.76 12.35l21.67 21.55 3.08-3.07z"/><path fill="#6b6c6b" d="m32.355 45.268-4.684 4.657 3.021 4.716a1.614 1.614 0 0 0 2.495.28l4.192-4.17a1.593 1.593 0 0 0-.28-2.48l-4.744-3.003z"/><ellipse cx="8.171" cy="36.565" fill="#e5e5e5" rx="2.052" ry="2.04" transform="translate(-.045 .01)"/><path d="M63.345 39.018 52.508 28.251c-1.872-1.822-4.702-4.573-3.543-8.814a.751.751 0 0 0-1.252-.73l-10.54 10.48a.751.751 0 0 0 .724 1.255c4.272-1.147 7.04 1.661 8.874 3.524l7.124 7.086-3.75 3.729L19.82 14.633c-3.956-3.932-10.394-3.932-14.35 0a10.061 10.061 0 0 0 0 14.28l4.667 4.639-.596.593c-1.068-.597-2.443-.456-3.35.445a2.782 2.782 0 0 0 0 3.95 2.816 2.816 0 0 0 3.96 0c.53-.528.822-1.229.822-1.976 0-.486-.135-.948-.369-1.36l.597-.594 15.884 15.791 2.976 4.645a2.365 2.365 0 0 0 3.655.407l4.192-4.169a2.343 2.343 0 0 0-.408-3.646l-4.674-2.96-8.562-8.512 2.86-2.842 20.981 20.86c4.204 4.177 11.038 4.176 15.24 0a10.683 10.683 0 0 0 0-15.166zM9.093 37.475a1.31 1.31 0 0 1-1.844 0 1.28 1.28 0 0 1 0-1.82c1.131-1.126 3.025.647 1.844 1.82zM54.96 42.11l2.644 2.63a2.618 2.618 0 0 1 0 3.722 2.67 2.67 0 0 1-3.756 0l-2.638-2.623 3.75-3.729zm-23.668 3.158-3.62 3.6-15.406-15.316 3.62-3.6 15.406 15.316zm5.56 4.952-4.193 4.168a.862.862 0 0 1-1.335-.152l-2.694-4.205 3.83-3.809 4.238 2.684a.842.842 0 0 1 .154 1.314zM23.2 35.108l-6.25-6.213 2.859-2.843 6.25 6.214-2.86 2.842zm-7.314-7.271-4.674-4.647a1.995 1.995 0 0 1 0-2.836 2.037 2.037 0 0 1 2.866 0l4.667 4.64-2.86 2.843zm46.401 25.282c-3.618 3.598-9.505 3.599-13.124 0l-34.028-33.83a3.541 3.541 0 0 0-4.98 0 3.495 3.495 0 0 0 0 4.966l4.667 4.64-3.621 3.6-4.673-4.647a8.56 8.56 0 0 1 0-12.151c3.372-3.353 8.861-3.354 12.234 0l34.028 33.83a4.176 4.176 0 0 0 5.87 0 4.119 4.119 0 0 0 0-5.851L47.84 32.914c-1.63-1.657-4.18-4.246-7.96-4.246h-.058l7.367-7.323c-.03 3.795 2.596 6.35 4.273 7.981l10.825 10.757a9.182 9.182 0 0 1 0 13.036z"/></svg>