<svg xmlns="http://www.w3.org/2000/svg" viewBox="0 0 69 69"><path fill="#f6991d" d="m19.443 35.475.651.652a.702.702 0 0 1 0 .991l-.406.407a.702.702 0 0 0 0 .992l12.57 12.577a1.401 1.401 0 1 1-1.982 1.984L17.706 40.5a.7.7 0 0 0-.992 0l-.411.412a.7.7 0 0 1-.991 0l-.651-.652a.702.702 0 0 1 0-.991l3.791-3.794a.7.7 0 0 1 .991 0zm6.915-6.919.651.652a.702.702 0 0 1 0 .992l-.406.406a.702.702 0 0 0 0 .992l12.57 12.578a1.401 1.401 0 1 1-1.982 1.984L24.62 33.581a.7.7 0 0 0-.992 0l-.411.411a.7.7 0 0 1-.992 0l-.65-.651a.702.702 0 0 1 0-.992l3.79-3.794a.7.7 0 0 1 .992 0zm6.915-6.918.65.651a.702.702 0 0 1 0 .992l-.406.407a.702.702 0 0 0 0 .992l12.57 12.577a1.401 1.401 0 1 1-1.982 1.984l-12.57-12.578a.7.7 0 0 0-.991 0l-.412.412a.7.7 0 0 1-.99 0l-.652-.652a.702.702 0 0 1 0-.992l3.791-3.793a.7.7 0 0 1 .992 0z"/><path fill="#ffca0f" d="M38.977 30.982 24 45.968c-4.206 4.209-4.207 11.057 0 15.266 4.206 4.209 11.05 4.209 15.257 0l14.978-14.986c4.206-4.21 4.206-11.057 0-15.266s-11.05-4.209-15.257 0zm12.498 12.505L36.496 58.473a6.883 6.883 0 0 1-9.738 0 6.893 6.893 0 0 1 0-9.744l14.978-14.986a6.883 6.883 0 0 1 9.739 0 6.893 6.893 0 0 1 0 9.744z"/><path fill="#ffca0f" d="m46.84 3.252 18.893 18.904c-6.815-1.726-13.154.959-15.81 3.395L13.407 62.088l-6.477-6.48L43.447 19.07c2.434-2.658 5.118-9 3.394-15.819z"/><path fill="#ffa301" d="m63.771 20.19 1.966 1.966c-6.817-1.725-13.16.955-15.811 3.394L13.404 62.087l-1.959-1.96L47.96 23.586c2.659-2.433 8.995-5.12 15.811-3.394z"/><path fill="#ffed91" d="M26.31 36.218 6.928 55.61l1.266 1.265L26.31 38.75a1.79 1.79 0 0 0 0-2.532z"/><path fill="#6b6c6b" d="M3.886 55.545a2.111 2.111 0 0 0 0 2.985l6.6 6.604a2.108 2.108 0 0 0 2.983 0 2.111 2.111 0 0 0 0-2.984l-6.6-6.605a2.108 2.108 0 0 0-2.983 0z"/><path d="M66.261 21.63 47.371 2.72a.743.743 0 0 0-.9-.12c-.29.17-.44.51-.36.84 1.69 6.67-1 12.7-3.19 15.1l-7.27 7.27-1.6-1.59.4-.41c.28-.27.43-.64.43-1.03 0-.38-.15-.75-.43-1.02l-.65-.65c-.57-.57-1.49-.57-2.05 0l-3.79 3.79c-.57.57-.57 1.49 0 2.05l.65.66c.57.56 1.49.56 2.05-.01l.34-.41 1.64 1.64-3.91 3.91-1.6-1.6.41-.41c.56-.57.56-1.49 0-2.05l-.65-.65c-.57-.57-1.49-.57-2.05 0l-3.79 3.79c-.28.27-.43.64-.43 1.03 0 .38.15.75.42 1.02l.65.65c.28.28.64.43 1.03.43s.75-.15 1.03-.43l.34-.41 1.63 1.64-3.9 3.9-1.6-1.6.4-.4c.57-.57.57-1.49 0-2.05l-.65-.65c-.27-.28-.63-.43-1.02-.43s-.76.15-1.03.43l-3.79 3.79c-.57.56-.57 1.48 0 2.05l.65.65c.56.57 1.48.57 2.05 0l.34-.41 1.64 1.64-11.94 11.94c-.45-.27-.97-.4-1.49-.4-.75 0-1.49.27-2.03.81a2.867 2.867 0 0 0 0 4.04l6.6 6.6a2.86 2.86 0 0 0 4.05 0 2.85 2.85 0 0 0 .41-3.51l5.98-5.98c.46 2.05 1.49 4 3.08 5.59 4.488 4.508 11.82 4.511 16.31 0l14.98-14.98c4.5-4.5 4.5-11.83 0-16.33a11.41 11.41 0 0 0-5.59-3.09l1.26-1.26c2.42-2.22 8.44-4.91 15.12-3.22.33.08.67-.06.83-.35.17-.3.12-.67-.12-.9zm-34.2 4.5c-.28-.28-.65-.42-1.02-.42s-.74.14-1.03.42l-.34.41-.65-.58 3.76-3.76.61.55-.4.41c-.57.56-.57 1.48 0 2.05l1.63 1.63-.92.93-1.64-1.64zm-6.91 6.92a1.461 1.461 0 0 0-2.05 0l-.34.41-.66-.58 3.76-3.76.62.55-.41.41c-.27.27-.42.63-.42 1.02s.15.75.42 1.03l1.63 1.63-.92.93-1.63-1.64zm-6.91 6.92a1.48 1.48 0 0 0-1.03-.43c-.39 0-.75.16-1.03.43l-.34.41-.65-.58 3.75-3.77.62.56-.4.4c-.57.57-.57 1.49 0 2.06l1.63 1.63-.92.92-1.63-1.63zm-5.3 24.63c-.53.53-1.39.53-1.93 0l-6.6-6.6c-.52-.53-.52-1.39 0-1.92.54-.53 1.4-.53 1.93 0l6.6 6.6c.53.53.53 1.39 0 1.92zm40.76-33.09c3.92 3.92 3.92 10.29 0 14.21L38.721 60.7c-3.91 3.932-10.295 3.916-14.19 0a9.994 9.994 0 0 1-2.86-5.82l2.42-2.42c-.36 2.31.36 4.76 2.14 6.54 2.942 2.962 7.783 3.017 10.8 0l14.97-14.98c2.98-2.98 2.98-7.83 0-10.81-1.851-1.851-4.448-2.534-6.53-2.14l2.4-2.41a9.9 9.9 0 0 1 5.83 2.85zm-25.37 16.71 3.4 3.4c.25.26.25.67 0 .93a.69.69 0 0 1-.93 0l-3.4-3.4.93-.93zm6.91-6.91 3.4 3.4c.26.25.26.66 0 .92-.25.25-.67.25-.92 0l-3.4-3.4.92-.92zm1.42 5.38c.42.42.97.63 1.52.63s1.1-.21 1.52-.63c.84-.84.84-2.2 0-3.04l-3.41-3.39v-.01l3.88-3.88 3.4 3.4c.41.41.95.63 1.53.63a2.149 2.149 0 0 0 1.52-3.67l-3.31-3.29a6.103 6.103 0 0 1 7.63.83c2.4 2.4 2.4 6.29 0 8.69l-14.97 14.98a6.13 6.13 0 0 1-8.68 0 6.144 6.144 0 0 1-.85-7.63l3.3 3.3c.41.4.95.63 1.53.63.57 0 1.11-.23 1.52-.63.84-.84.84-2.21 0-3.05l-3.41-3.39 3.88-3.88 3.4 3.4zm5.5-12.31 3.4 3.41c.25.25.25.67 0 .92s-.68.25-.93 0l-3.4-3.4.93-.93zm7.23-9.36c-15.535 15.551-16.743 16.774-35.98 36.01l-5.42-5.42 36.01-36.03c2.16-2.37 4.74-7.83 4.01-14.09l15.49 15.49c-6.27-.72-11.73 1.86-14.11 4.04z"/></svg>