<svg xmlns="http://www.w3.org/2000/svg" viewBox="0 0 69 69"><path fill="#ffca0f" d="M43.207 10.313h4.401v5.052h-4.401z"/><path fill="#ffca0f" d="M23.424 31.758h24.184c4.933.49 13.215 1.398 18.142 5.824V8.33c-4.927 4.425-13.209 6.544-18.142 7.034h-21.46c-12.646 0-22.898 10.146-22.898 22.652 0 6.26 2.564 11.92 6.708 16.018a22.952 22.952 0 0 0 16.19 6.635h19.887c6.99 0 12.657-5.606 12.657-12.519 0-3.456-1.42-6.586-3.709-8.85a12.618 12.618 0 0 0-7.375-3.566 11.256 11.256 0 0 0-1.573-.103H25.732c-4.083 0-7.388 3.275-7.388 7.313 0 2.022.826 3.85 2.16 5.17a7.411 7.411 0 0 0 5.228 2.143h13.937c4.382 0 7.939-3.517 7.939-7.852v-1.882c2.503 1.047 4.254 3.499 4.254 6.356a6.84 6.84 0 0 1-2.045 4.873 6.956 6.956 0 0 1-4.927 2.022H23.424c-6.151 0-11.134-4.928-11.134-11.012 0-3.038 1.243-5.787 3.263-7.784a11.186 11.186 0 0 1 7.871-3.22zm19.783 9.45c0 2.663-2.185 4.818-4.879 4.818H25.934c-1.69 0-3.055-1.35-3.055-3.02 0-.836.343-1.592.894-2.143a3.065 3.065 0 0 1 2.16-.884h17.274v1.229z"/><path fill="#ffa301" d="M54.986 39.305c-.5-.49-1.03-.94-1.61-1.35 1.45 2.03 2.3 4.51 2.3 7.18 0 6.92-5.66 12.52-12.65 12.52h-19.89c-5.6 0-10.74-1.99-14.72-5.31.48.59 1 1.15 1.54 1.69 4.15 4.1 9.87 6.63 16.19 6.63h19.89c6.99 0 12.66-5.6 12.66-12.51 0-3.46-1.42-6.59-3.71-8.85z"/><path fill="#ffed91" d="M47.606 15.365h-21.46c-12.64 0-22.9 10.15-22.9 22.65 0 6.26 2.57 11.92 6.71 16.02.32.31.64.62.98.91a22.327 22.327 0 0 1-5.67-14.91c0-12.51 10.25-22.66 22.9-22.66h21.46c4.31-.43 11.17-2.09 16.12-5.45v-3.59c-4.92 4.42-13.21 6.54-18.14 7.03z"/><path fill="#ffca0f" d="M43.206 39.975v-8.22h4.4v8.77"/><path d="M66.056 7.646a.748.748 0 0 0-.807.127c-4.74 4.257-12.545 6.2-16.892 6.755v-3.465h1.085a.75.75 0 0 0 0-1.5h-8.07a.75.75 0 0 0 0 1.5h1.085v3.552h-16.31C13.108 14.615 2.5 25.113 2.5 38.017c0 12.949 10.594 23.402 23.647 23.402h19.887c7.394 0 13.408-5.952 13.408-13.268 0-6.588-4.813-11.97-11.086-13.047v-2.517c4.636.473 12.323 1.449 16.893 5.552a.749.749 0 0 0 1.251-.558V8.332a.749.749 0 0 0-.444-.685zm-22.099 3.417h2.9v3.552h-2.9v-3.552zm-7.832 31.975a.75.75 0 0 0-.75.75v1.488h-1.163v-1.488a.75.75 0 0 0-1.5 0v1.488H31.55v-1.488a.75.75 0 0 0-1.5 0v1.488h-1.162v-1.488a.75.75 0 0 0-1.5 0v1.488h-1.454c-1.27 0-2.305-1.019-2.305-2.27a2.286 2.286 0 0 1 2.305-2.277h16.523v.479c0 2.243-1.853 4.068-4.129 4.068h-1.453v-1.488a.75.75 0 0 0-.75-.75zm6.331-3.809H25.934a3.785 3.785 0 0 0-3.805 3.776c0 2.08 1.707 3.77 3.805 3.77h12.394c3.104 0 5.629-2.497 5.629-5.567l-.001-8.703h2.9l.001 9.902c0 3.915-3.224 7.1-7.188 7.1H25.73c-3.635 0-6.637-2.898-6.637-6.562 0-3.618 2.977-6.563 6.637-6.563h16.725v2.847zm0-4.347H25.731c-4.487 0-8.137 3.617-8.137 8.063 0 4.48 3.657 8.062 8.137 8.062H39.67c4.791 0 8.688-3.858 8.688-8.6v-.637a6.118 6.118 0 0 1 2.754 5.11c0 3.346-2.74 6.145-6.221 6.145H23.424c-5.726 0-10.384-4.604-10.384-10.262 0-5.747 4.732-10.255 10.384-10.255l19.032-.003v2.377zM65 36.017c-5.258-3.8-12.982-4.574-17.366-5.006-.01 0-.018-.006-.028-.006h-4.4c-.005 0-.01.003-.014.003H23.424c-6.545 0-11.884 5.237-11.884 11.755 0 6.485 5.331 11.762 11.884 11.762H44.89c4.282 0 7.721-3.442 7.721-7.646 0-2.91-1.66-5.52-4.255-6.814v-3.437c5.496 1.072 9.586 5.813 9.586 11.523 0 6.49-5.341 11.768-11.908 11.768H26.147C13.915 59.92 4 50.128 4 38.017c0-12.077 9.936-21.902 22.147-21.902l17.045-.003.015.003h4.4c.007 0 .013-.004.02-.004h.055c4.067-.404 11.952-2.156 17.318-6.195v26.101z"/></svg>