<svg xmlns="http://www.w3.org/2000/svg" viewBox="0 0 69 69"><path fill="#6b6c6b" d="M10.879 27.127v36.63c0 .56-.45 1-1 1h-5.63c-.55 0-1-.44-1-1v-36.63c0-.55.45-1 1-1h5.63c.55 0 1 .45 1 1zm32.92 0v24.63c0 .56-.44 1-1 1h-5.63c-.55 0-1-.44-1-1v-24.63c0-.55.45-1 1-1h5.63c.56 0 1 .45 1 1zm10.98 0v20.63c0 .56-.45 1-1 1h-5.63c-.55 0-1-.44-1-1v-20.63c0-.55.45-1 1-1h5.63c.55 0 1 .45 1 1zm-32.93 0v32.63c0 .56-.44 1-1 1h-5.62c-.56 0-1-.44-1-1v-32.63c0-.55.44-1 1-1h5.62c.56 0 1 .45 1 1zm43.9 0v16.63c0 .56-.45 1-1 1h-5.63c-.55 0-1-.44-1-1v-16.63c0-.55.45-1 1-1h5.63c.55 0 1 .45 1 1zm-32.92 0v28.63c0 .56-.45 1-1 1h-5.63c-.55 0-1-.44-1-1v-28.63c0-.55.45-1 1-1h5.63c.55 0 1 .45 1 1z"/><path fill="#494949" d="M10.879 27.127v36.63c0 .56-.45 1-1 1h-2.67c.55 0 1-.44 1-1v-36.63c0-.55-.45-1-1-1h2.67c.55 0 1 .45 1 1zm32.92 0v24.63c0 .56-.44 1-1 1h-2.67c.56 0 1-.44 1-1v-24.63c0-.55-.44-1-1-1h2.67c.56 0 1 .45 1 1zm10.98 0v20.63c0 .56-.45 1-1 1h-2.67c.55 0 1-.44 1-1v-20.63c0-.55-.45-1-1-1h2.67c.55 0 1 .45 1 1zm-32.93 0v32.63c0 .56-.44 1-1 1h-2.67c.56 0 1-.44 1-1v-32.63c0-.55-.44-1-1-1h2.67c.56 0 1 .45 1 1zm43.9 0v16.63c0 .56-.45 1-1 1h-2.67c.55 0 1-.44 1-1v-16.63c0-.55-.45-1-1-1h2.67c.55 0 1 .45 1 1zm-32.92 0v28.63c0 .56-.45 1-1 1h-2.67c.55 0 1-.44 1-1v-28.63c0-.55-.45-1-1-1h2.67c.55 0 1 .45 1 1z"/><path fill="#8a8c8a" d="M5.919 64.757h-1.67c-.55 0-1-.44-1-1v-36.63c0-.55.45-1 1-1h1.67c-.55 0-1 .45-1 1v36.63c0 .56.45 1 1 1zm32.92-12h-1.67c-.55 0-1-.44-1-1v-24.63c0-.55.45-1 1-1h1.67c-.55 0-1 .45-1 1v24.63c0 .56.45 1 1 1zm10.98-4h-1.67c-.55 0-1-.44-1-1v-20.63c0-.55.45-1 1-1h1.67c-.55 0-1 .45-1 1v20.63c0 .56.45 1 1 1zm-32.92 12h-1.67c-.56 0-1-.44-1-1v-32.63c0-.55.44-1 1-1h1.67c-.56 0-1 .45-1 1v32.63c0 .56.44 1 1 1zm43.89-16h-1.67c-.55 0-1-.44-1-1v-16.63c0-.55.45-1 1-1h1.67c-.55 0-1 .45-1 1v16.63c0 .56.45 1 1 1zm-32.92 12h-1.67c-.55 0-1-.44-1-1v-28.63c0-.55.45-1 1-1h1.67c-.55 0-1 .45-1 1v28.63c0 .56.45 1 1 1z"/><path fill="#c87b2c" d="M64.25 4.243H4.75a3 3 0 0 0-3 3v8.842a3 3 0 0 0 3 3h59.5a3 3 0 0 0 3-3V7.243a3 3 0 0 0-3-3z"/><path fill="#9e5729" d="M67.249 10.857v5.23c0 1.65-1.34 3-3 3h-59.5c-1.66 0-3-1.35-3-3v-5.23c0 1.66 1.34 3 3 3h59.5c1.66 0 3-1.34 3-3z"/><path fill="#d88f52" d="M67.249 7.247v3.04c0-1.66-1.34-3-3-3h-59.5c-1.66 0-3 1.34-3 3v-3.04c0-1.66 1.34-3 3-3h59.5c1.66 0 3 1.34 3 3z"/><path d="M64.25 3.493H4.75A3.755 3.755 0 0 0 1 7.243v8.841a3.755 3.755 0 0 0 3.75 3.75h1.564v5.543H4.25c-.965 0-1.75.786-1.75 1.75v36.63c0 .965.785 1.75 1.75 1.75h5.63c.965 0 1.75-.785 1.75-1.75v-36.63c0-.964-.785-1.75-1.75-1.75H7.814v-5.543h9.474v5.543h-2.06c-.964 0-1.75.786-1.75 1.75v32.63c0 .982.77 1.75 1.75 1.75h5.62c.982 0 1.75-.768 1.75-1.75v-32.63c0-.964-.785-1.75-1.75-1.75h-2.06v-5.543h9.475v5.543h-2.065c-.965 0-1.75.786-1.75 1.75v28.63c0 .965.785 1.75 1.75 1.75h5.63c.965 0 1.75-.785 1.75-1.75v-28.63c0-.964-.785-1.75-1.75-1.75h-2.065v-5.543h9.473v5.543H37.17c-.965 0-1.75.786-1.75 1.75v24.63c0 .965.785 1.75 1.75 1.75h5.63c.981 0 1.75-.768 1.75-1.75v-24.63c0-.964-.785-1.75-1.75-1.75h-2.063v-5.543h9.475v5.543h-2.063c-.964 0-1.75.786-1.75 1.75v20.63c0 .965.786 1.75 1.75 1.75h5.63c.965 0 1.75-.785 1.75-1.75v-20.63c0-.964-.785-1.75-1.75-1.75h-2.067v-5.543h9.474v5.543h-2.067c-.965 0-1.75.786-1.75 1.75v16.63c0 .965.785 1.75 1.75 1.75h5.631c.965 0 1.75-.785 1.75-1.75v-16.63c0-.964-.785-1.75-1.75-1.75h-2.064v-5.543h1.565a3.755 3.755 0 0 0 3.75-3.75V7.243a3.755 3.755 0 0 0-3.75-3.75zM10.129 27.127v36.63c0 .141-.11.25-.25.25h-5.63c-.14 0-.25-.11-.25-.25v-36.63c0-.135.114-.25.25-.25h5.63c.136 0 .25.115.25.25zm10.97 0v32.63c0 .145-.106.25-.25.25h-5.62a.242.242 0 0 1-.25-.25v-32.63c0-.14.109-.25.25-.25h5.62c.14 0 .25.11.25.25zm10.98 0v28.63c0 .141-.11.25-.25.25h-5.63c-.141 0-.25-.11-.25-.25v-28.63c0-.135.114-.25.25-.25h5.63c.135 0 .25.115.25.25zm10.97 0v24.63c0 .145-.106.25-.25.25h-5.63c-.14 0-.25-.11-.25-.25v-24.63c0-.135.114-.25.25-.25h5.63c.14 0 .25.11.25.25zm10.98 0v20.63c0 .141-.11.25-.25.25h-5.63c-.141 0-.25-.11-.25-.25v-20.63c0-.135.114-.25.25-.25h5.63c.135 0 .25.115.25.25zm10.97 0v16.63c0 .141-.11.25-.25.25h-5.63c-.141 0-.25-.11-.25-.25v-16.63c0-.135.113-.25.25-.25h5.63c.136 0 .25.115.25.25zM66.5 16.084c0 1.24-1.01 2.25-2.25 2.25H4.75c-1.24 0-2.25-1.01-2.25-2.25V7.243c0-1.24 1.01-2.25 2.25-2.25h59.5c1.24 0 2.25 1.01 2.25 2.25v8.841z"/></svg>