<svg xmlns="http://www.w3.org/2000/svg" data-name="Artboard 30" viewBox="0 0 64 64"><rect width="16" height="2" x="19" y="5" fill="#444"/><polygon fill="#444" points="31.749 11 19 11 19 9 35 9 35 11 31.749 11"/><path fill="#a66a43" d="M30.4,22.363A16.158,16.158,0,0,1,43,36.006L41,36a4.272,4.272,0,0,0-4,4.5h0A4.272,4.272,0,0,0,41,45h1.043a.922.922,0,0,1,.929.957C42.479,54.417,35.517,62,27,62h0A16,16,0,0,1,11,46h0a1,1,0,0,1,1-1h1a4.272,4.272,0,0,0,4-4.5h0A4.272,4.272,0,0,0,13,36H11A16.139,16.139,0,0,1,23.6,22.361Z"/><path fill="#bc7751" d="M41,36l2,.006A16.158,16.158,0,0,0,30.4,22.363l-6.8,0A16.139,16.139,0,0,0,11,36h2a4.272,4.272,0,0,1,4,4.5,4.829,4.829,0,0,1-.81,2.689,34.8,34.8,0,0,0,24.234,9.789c.192,0,.382-.011.573-.014a17.366,17.366,0,0,0,1.975-7.007A.922.922,0,0,0,42.043,45H41a4.272,4.272,0,0,1-4-4.5A4.272,4.272,0,0,1,41,36Z"/><path fill="#e8e4d8" d="M50.982,56.394l-1.307-.449A5.376,5.376,0,0,1,46,50.838V14.161a5.378,5.378,0,0,1,3.683-5.109l1.488-.518.658,1.888-1.5.522A3.387,3.387,0,0,0,48,14.161V50.838a3.383,3.383,0,0,0,2.316,3.213l1.316.451Z"/><path fill="#a66a43" d="M30.982,14H23.018A1.006,1.006,0,0,1,22,12.917l.847-10A1.011,1.011,0,0,1,23.865,2h6.268a1.01,1.01,0,0,1,1.014.917l.849,10A1.006,1.006,0,0,1,30.982,14Z"/><path fill="#444" d="M24,14,23,34.954A1.006,1.006,0,0,0,24.012,36h5.976A1.006,1.006,0,0,0,31,34.953L30,14Z"/><rect width="2" height="5" x="23" y="42" fill="#444"/><rect width="2" height="5" x="29" y="42" fill="#444"/><rect width="3" height="54" x="50" y="8" fill="#a66a43" rx="1.5"/><path fill="#eaebef" d="M31,61.41V54a1.833,1.833,0,0,0-1.6-2H24.6A1.833,1.833,0,0,0,23,54v7.476A15.99,15.99,0,0,0,27,62,14.292,14.292,0,0,0,31,61.41Z"/><path fill="#444" d="M11.138,48A15.99,15.99,0,0,0,25,61.862,14,14,0,0,0,11.138,48Z"/><path fill="#bc7751" d="M31.147,2.917A1.01,1.01,0,0,0,30.133,2h-5.6l-.817,9.645a1.006,1.006,0,0,0,1.014,1.083h7.25Z"/><rect width="2" height="5" x="23" y="42.001"/><rect width="2" height="5" x="29" y="42.001"/><path d="M13 44H12a2 2 0 00-2 2A17.019 17.019 0 0027 63c8.812 0 16.424-7.619 16.971-16.985a1.873 1.873 0 00-.516-1.406A1.949 1.949 0 0042.043 44H41a3.283 3.283 0 01-3-3.5A3.283 3.283 0 0141 37l2 .006h0a1 1 0 00.992-1.124 17.058 17.058 0 00-12.629-14.3l-.314-6.587a2.029 2.029 0 001.425-.646 1.994 1.994 0 00.519-1.515L32.838 11H35V9H32.668L32.5 7H35V5H32.328l-.184-2.168A2.023 2.023 0 0030.133 1H23.865a2.024 2.024 0 00-2.011 1.834L21.671 5H19V7h2.5l-.169 2H19v2h2.162l-.155 1.834a1.994 1.994 0 00.518 1.513 2.031 2.031 0 001.426.646l-.313 6.584a17.042 17.042 0 00-12.63 14.3A1 1 0 0011 37h2a3.283 3.283 0 013 3.5A3.283 3.283 0 0113 44zm-.681 5.072A13.075 13.075 0 0123.928 60.682 15.04 15.04 0 0112.319 49.073zM25.945 60.948A14.829 14.829 0 0024 54.578V54c0-.572.317-1 .6-1h4.8c.283 0 .6.428.6 1v6.635A12.931 12.931 0 0127 61C26.644 61 26.3 60.972 25.945 60.948zM29.988 35L24 35l.954-20h4.092zM23.865 3l6.286 0L31 12.993S31 13 30.982 13L23 13zM13 35h-.824A15.063 15.063 0 0122.537 23.679L22 34.911a2 2 0 00.551 1.467A2.026 2.026 0 0024.012 37h5.976A2 2 0 0032 34.907l-.535-11.225A15.077 15.077 0 0141.822 35L41 35a5.274 5.274 0 00-5 5.5A5.274 5.274 0 0041 46h.968A16.484 16.484 0 0132 59.987V54a2.825 2.825 0 00-2.6-3H24.6a2.53 2.53 0 00-2.165 1.344 15 15 0 00-10.382-5.288C12.029 46.706 12 46.357 12 46h1a5.274 5.274 0 005-5.5A5.274 5.274 0 0013 35zM51.5 63A2.5 2.5 0 0054 60.5V9.5a2.494 2.494 0 00-4.983-.166A5.371 5.371 0 0046 14.162V50.84a5.372 5.372 0 003 4.82V60.5A2.5 2.5 0 0051.5 63zM51 9.5a.5.5 0 111 0v51a.5.5 0 11-1 0zM48 50.84V14.162a3.381 3.381 0 011-2.4V53.24A3.379 3.379 0 0148 50.84z"/></svg>