<svg xmlns="http://www.w3.org/2000/svg" viewBox="0 0 69 69"><path fill="#c87b2c" d="M53.152 54.266c-.009 7.404-5.43 10.84-12.48 11.403-.684.054-1.393.082-2.111.083-.719.001-1.428-.025-2.11-.078-7.05-.546-12.463-3.969-12.454-11.373.001-1.566.243-3.214.706-4.835 2.083.454 4.329-1.572 5.033-4.554.713-3.018-.41-5.863-2.52-6.371a11.787 11.787 0 0 0-.319-.054l.004-2.847c.005-4.073 2.837-7.586 6.793-8.414l4.914-1.036 4.911 1.024c3.954.819 6.778 4.325 6.773 8.398l-.003 2.847c-.115.018-.222.036-.32.054-2.11.513-3.24 3.361-2.534 6.378.697 2.98 2.938 5 5.022 4.541.46 1.62.697 3.267.695 4.834z"/><path fill="#9e5729" d="M53.156 54.262c-.01 7.41-5.43 10.84-12.48 11.41-.69.05-1.4.08-2.12.08-.71 0-1.42-.02-2.11-.08-4.83-.37-8.91-2.1-10.98-5.55 2.1 1.32 4.77 2.05 7.72 2.28.68.06 1.39.08 2.11.08.71 0 1.42-.03 2.11-.08 7.05-.56 12.47-4 12.48-11.4 0-.76-.06-1.53-.17-2.31.84.65 1.81.95 2.74.74.46 1.62.7 3.27.7 4.83z"/><path fill="#d88f52" d="M48.446 30.282c-1-.81-2.19-1.38-3.51-1.65l-4.91-1.02-4.91 1.04c-3.96.82-6.79 4.34-6.79 8.41l-.01 2.02c-.33-.26-.7-.44-1.1-.54-.1-.02-.2-.04-.32-.05v-2.85c.01-4.07 2.84-7.59 6.8-8.42l4.91-1.03 4.91 1.02a8.35 8.35 0 0 1 4.93 3.07z"/><path fill="#6b6c6b" d="m41.262 40.057-5.341.006.924-30.993 3.567-.005z"/><path fill="#8a8c8a" d="m38.556 9.072-.93 30.99h-1.71l.93-30.99z"/><path fill="#e5e5e5" d="m40.676 61.739-.005 3.93c-.683.054-1.392.082-2.11.083-.719.001-1.428-.025-2.11-.078l.004-3.93 4.22-.005zM40.678 61.736l-4.225.005-1.771-4.966 7.779-.009z"/><path fill="#ffca0f" d="m40.943 9.06-4.63.007a.887.887 0 0 1-.84-1.154L36.7 3.89a.898.898 0 0 1 .852-.636l2.164-.003c.39 0 .736.259.85.635l1.22 4.018a.891.891 0 0 1-.844 1.156z"/><path d="M53.18 49.23a.742.742 0 0 0-.88-.53c-1.69.37-3.54-1.42-4.13-3.98-.61-2.61.27-5.06 1.94-5.47l.3-.05c.36-.06.63-.37.63-.74v-2.85c.01-4.4-3.09-8.24-7.37-9.13l-2.04-.42-.29-10.41h1.63a.749.749 0 1 0 0-1.5H41.3l-.04-1.48h1.71c.42 0 .75-.34.75-.75 0-.42-.33-.75-.75-.75h-1.75l-.04-1.38c.43-.06.81-.28 1.07-.64.32-.43.41-.96.25-1.46l-1.22-4.02c-.21-.7-.84-1.17-1.56-1.17h-2.17c-.72.01-1.35.47-1.57 1.17l-1.22 4.02c-.16.51-.07 1.04.24 1.46.26.35.64.59 1.07.65l-.04 1.38h-1.75c-.42 0-.75.34-.75.75 0 .42.33.75.75.75h1.7l-.04 1.49h-1.67a.749.749 0 1 0 0 1.5h1.62l-.31 10.39-2.04.43c-4.28.9-7.38 4.75-7.39 9.15v2.85c0 .36.26.68.63.74l.26.04c1.7.41 2.58 2.86 1.97 5.47-.61 2.57-2.48 4.35-4.15 3.99a.76.76 0 0 0-.88.53c-.48 1.7-.73 3.4-.73 5.04-.01 7.06 4.78 11.47 13.14 12.12.68.06 1.4.08 2.13.08s1.49-.03 2.21-.08c8.36-.67 13.16-5.1 13.17-12.15 0-1.65-.24-3.34-.72-5.04zm-12.69-9.92h-1.51l.04-29.49h.66l.81 29.49zm-4.3-31.18 1.23-4.02c.02-.06.07-.11.13-.11h2.17c.06 0 .11.04.13.1l1.22 4.03c.02.05 0 .1-.02.13-.02.02-.06.05-.11.05l-4.63.01c-.03-.02-.07-.02-.1-.06-.02-.02-.04-.07-.02-.13zm1.38 1.69h.67c0 4.635-.008 4.313-.04 29.49h-1.51c.09-3.078-.301 10.03.88-29.49zM24.75 54.3c0-1.29.18-2.67.51-4.02h.05c2.26 0 4.43-2.13 5.16-5.2.78-3.33-.43-6.41-2.82-7.19v-2.25c.01-3.7 2.61-6.93 6.2-7.68l1.69-.35-.37 12.43c-.01.2.07.4.21.55.14.14.34.22.54.22h2.28l-.02 15.22h-3.5a.74.74 0 0 0-.7 1l1.72 4.82v3c-4.43-.5-10.96-2.6-10.95-10.55zm15.4 6.69h-3.17l-1.23-3.47h5.64l-1.24 3.47zm-.49 3.99c-.36.01-.73.02-1.1.02-.42-.01-.92-.01-1.36-.03v-2.48h2.72v2.47c-.08.01-.17.01-.26.02zm1.76-.14.01-2.99 1.74-4.83c.08-.23.04-.49-.1-.69a.74.74 0 0 0-.61-.31h-3.5l.02-15.21h2.28c.2 0 .4-.08.54-.23.14-.14.22-.34.21-.54l-.34-12.44 1.7.35c3.58.74 6.18 3.96 6.17 7.66v2.25c-2.38.76-3.62 3.86-2.84 7.2.72 3.07 2.89 5.19 5.15 5.19h.05c.33 1.36.5 2.71.5 4.02-.01 7.95-6.55 10.06-10.98 10.57z"/><path d="M33.616 47.203c.178-1.811 1.49-2.176 1.928-1.622a.749.749 0 1 0 1.177-.928c-1.223-1.555-4.27-.915-4.597 2.404-.089.907.034 1.784.055 2.57.027.89-.09 1.521-.37 1.987-.475.79-1.618 1.135-2.437.74a.75.75 0 1 0-.653 1.35c2.064.994 5.073-.186 4.96-4.122-.028-.876-.135-1.646-.063-2.38zm14.162 5.128c-.825.401-1.96.057-2.433-.732-.71-1.182-.146-2.935-.303-4.555-.319-3.31-3.37-3.944-4.593-2.398a.75.75 0 1 0 1.178.93c.457-.58 1.747-.2 1.923 1.612.15 1.57-.518 3.467.508 5.183.88 1.467 2.844 2.053 4.374 1.31a.75.75 0 1 0-.654-1.35zM16.1 3c0-.27-.22-.5-.5-.5s-.5.23-.5.5v63c0 .18.09.34.24.43a.53.53 0 0 0 .49.02l3.85-2.01c.16-.09.27-.26.27-.44V21.57c0-3.83-1.37-7.48-3.85-10.29V3zm2.85 18.57v42.12l-2.85 1.49V12.86c1.84 2.49 2.85 5.53 2.85 8.71z"/></svg>