<svg xmlns="http://www.w3.org/2000/svg" viewBox="0 0 69 69"><path fill="#9e5729" d="M9.107 32.732h6.964V65.75H9.107zM52.927 32.732h6.964V65.75h-6.964z"/><path fill="#d88f52" d="M63.75 29.843H5.25a2 2 0 0 0-2 2v4.946a2 2 0 0 0 2 2h58.5a2 2 0 0 0 2-2v-4.946a2 2 0 0 0-2-2z"/><path fill="#c87b2c" d="M65.751 31.845v4.94a2 2 0 0 1-2 2h-58.5c-1.11 0-2-.89-2-2v-1.54h56.95a2 2 0 0 0 2-2v-3.4h1.55a2 2 0 0 1 2 2z"/><path fill="#f6991d" d="M33.428 29.845H5.251a2 2 0 0 0-2 2v1.82c0-1.11.89-2 2-2h26.357a1.82 1.82 0 0 0 1.82-1.82z"/><path fill="#e5e5e5" d="M58.073 29.843H10.926v-3.3a1 1 0 0 1 1-1h45.147a1 1 0 0 1 1 1v3.3z"/><path fill="#fbfbfb" d="M58.071 26.545v2.15c0-.55-.45-1-1-1h-45.15c-.55 0-1 .45-1 1v-2.15c0-.55.45-1 1-1h45.15c.55 0 1 .45 1 1z"/><path fill="#f0373c" d="M13.202 21.867h5.479v3.676h-5.479zM22.481 21.867h5.479v3.676h-5.479zM31.76 21.867h5.479v3.676H31.76zM41.039 21.867h5.479v3.676h-5.479zM50.318 21.867h5.479v3.676h-5.479z"/><path fill="#ffca0f" d="M21.846 38.79h5.061v22.211h-5.061zM26.907 38.79h5.061v18.211h-5.061zM31.969 38.79h5.061v14.211h-5.061zM37.03 38.79h5.061v10.211H37.03zM42.091 38.79h5.061v6.211h-5.061zM3.37 4.566a2 2 0 0 1 2.565-1.194l20.778 7.577-1.37 3.759L4.565 7.13A2 2 0 0 1 3.37 4.566zm62.258 0a2 2 0 0 0-2.564-1.194l-20.778 7.577 1.37 3.759L64.434 7.13a2 2 0 0 0 1.194-2.565z"/><ellipse cx="26.969" cy="13.171" fill="#59b9ff" rx="4.802" ry="4.803" transform="rotate(-5.311 26.97 13.172)"/><ellipse cx="42.029" cy="13.171" fill="#59b9ff" rx="4.803" ry="4.802" transform="rotate(-84.689 42.029 13.171)"/><path fill="#b4dff9" d="M31.001 10.565c-.29-.18-.6-.33-.93-.45-2.49-.91-5.25.38-6.16 2.87-.53 1.46-.3 3.02.48 4.24a4.806 4.806 0 0 1 4.22-8.57c1.02.37 1.84 1.06 2.39 1.91zM46.09 10.595a4.77 4.77 0 0 0-4.25-.48 4.817 4.817 0 0 0-2.419 7.08 4.708 4.708 0 0 1-1.9-2.38c-.91-2.49.37-5.25 2.86-6.16 2.17-.78 4.52.08 5.71 1.94z"/><path d="M63.745 29.094h-4.92v-2.55c0-.97-.79-1.75-1.75-1.75h-.53v-2.93c0-.41-.33-.75-.75-.75h-5.48c-.41 0-.75.34-.75.75v2.93h-2.3v-2.93c0-.41-.33-.75-.75-.75h-5.48c-.41 0-.75.34-.75.75v2.93h-2.3v-2.93c0-.41-.33-.75-.75-.75h-5.48c-.41 0-.75.34-.75.75v2.93h-2.29v-2.93c0-.41-.34-.75-.75-.75h-5.48c-.42 0-.75.34-.75.75v2.93h-2.3v-2.93c0-.41-.34-.75-.75-.75h-5.48c-.42 0-.75.34-.75.75v2.93h-.53c-.96 0-1.75.78-1.75 1.75v2.55h-4.93c-1.51 0-2.75 1.23-2.75 2.75v4.95c0 1.51 1.24 2.75 2.75 2.75h3.11v26.21c0 .41.34.75.75.75h6.97c.41 0 .75-.34.75-.75v-26.21h4.27v21.46c0 .41.34.75.75.75h5.06c.42 0 .75-.34.75-.75v-3.25h4.31c.42 0 .75-.34.75-.75v-3.25h4.32c.41 0 .75-.34.75-.75v-3.25h4.31c.41 0 .75-.34.75-.75v-3.25h4.31c.41 0 .75-.34.75-.75v-5.46h4.27v26.21c0 .41.34.75.75.75h6.97c.41 0 .75-.34.75-.75v-26.21h3.1c1.52 0 2.75-1.24 2.75-2.75v-4.95c0-1.52-1.23-2.75-2.75-2.75zm-12.68-6.48h3.98v2.18h-3.98v-2.18zm-9.28 0h3.98v2.18h-3.98v-2.18zm-9.28 0h3.98v2.18h-3.98v-2.18zm-9.27 0h3.98v2.18h-3.98v-2.18zm-9.28 0h3.98v2.18h-3.98v-2.18zm-2.28 3.93c0-.14.11-.25.25-.25h45.15c.14 0 .25.11.25.25v2.55h-45.65v-2.55zm3.65 38.46h-5.47v-25.46h5.47v25.46zm10.83-4.75h-3.56v-20.71h3.56v20.71zm5.06-4h-3.56v-16.71h3.56v16.71zm5.07-4h-3.57v-12.71h3.57v12.71zm5.06-4h-3.56v-8.71h3.56v8.71zm5.06-4h-3.56v-4.71h3.56v4.71zm12.74 20.75h-5.47v-25.46h5.47v25.46zm5.85-28.21c0 .69-.56 1.25-1.25 1.25h-58.5c-.69 0-1.25-.56-1.25-1.25v-4.95c0-.69.56-1.25 1.25-1.25h58.5c.69 0 1.25.56 1.25 1.25v4.95zM4.305 7.834l17.19 6.27c.33 1.9 1.63 3.58 3.57 4.28v.01c2.907 1.031 6.06-.43 7.12-3.32a5.561 5.561 0 0 0-3.31-7.12 5.552 5.552 0 0 0-5.49.98l-17.19-6.27a2.744 2.744 0 0 0-3.53 1.65 2.745 2.745 0 0 0 1.64 3.52zm24.05 1.53c2.1.77 3.19 3.1 2.42 5.2a4.057 4.057 0 0 1-5.19 2.42 4.06 4.06 0 0 1-2.42-5.2c.763-2.086 3.092-3.183 5.19-2.42zm-24.28-4.54a1.25 1.25 0 0 1 1.6-.75l16.65 6.07a5.2 5.2 0 0 0-.57 1.13c-.15.4-.25.81-.29 1.22l-16.64-6.07a1.238 1.238 0 0 1-.75-1.6zm39.86 13.57v-.01c1.94-.7 3.24-2.38 3.57-4.28l17.19-6.27a2.74 2.74 0 0 0 1.55-1.42c.17-.37.26-.76.26-1.16a2.764 2.764 0 0 0-3.7-2.59l-17.19 6.27a5.552 5.552 0 0 0-5.49-.98 5.561 5.561 0 0 0-3.31 7.12c1.065 2.903 4.227 4.346 7.12 3.32zm19.39-14.32c.64-.23 1.36.1 1.6.75.11.31.1.65-.04.96-.14.3-.39.53-.71.64l-16.64 6.07c-.04-.41-.14-.82-.29-1.22-.15-.41-.34-.79-.57-1.13l16.65-6.07zm-22.68 5.29c2.232-.794 4.453.405 5.19 2.42a4.05 4.05 0 1 1-7.61 2.78c-.77-2.1.32-4.43 2.42-5.2z"/></svg>